<svg id="Capa_1" data-name="Capa 1" xmlns="http://www.w3.org/2000/svg" viewBox="0 0 546 308"><defs><style>.cls-1{fill:#f7f7f7;}.cls-2{fill:#322a18;}.cls-3{fill:#ffc801;}.cls-4{fill:#9d9192;}.cls-5{fill:#fefee4;}.cls-6{fill:#1c1b1c;}.cls-7{fill:#afafaf;}.cls-8{fill:#69696a;}.cls-9{fill:#464646;}</style></defs><title>full-gym-final</title><path class="cls-1" d="M537.73,213.07a10.46,10.46,0,0,0-8-8.92s-.43-5.13-.56-5.68a11.39,11.39,0,0,0-2.64-5.21c-1.53-1.67-3.29-2.06-3.56-4.52s.15-5.25-.79-7.66a9,9,0,0,0-3.91-4.12c-1.51-.91-2.56-2.05-4.4-2.47-.48-.1-2.08,0-2.4-.24-.63-.55-.79-3.76-1-4.66a14.77,14.77,0,0,0-.56-2.2c-1.24-3.75-2.59-7.48-4-11.07a12.83,12.83,0,0,0-9.86-7.92c-3.47-.55-7.08-1.05-10.77-1.49l-3-8.3h-.43c-.78-1.64-1.61-3.25-2.54-4.81-.24-.4-.5-.78-.77-1.15A12.56,12.56,0,0,0,476,130a11.76,11.76,0,0,0-1.55-1c-.26-.13-.56-.23-.82-.38s-.33-.35-.64-.41a7.18,7.18,0,0,1-.81-.12,12.1,12.1,0,0,0-1.48-.29c-1.9-.28-3.82-.58-5.78-.89-2.77-.44-5.51-.64-8.16-.83-1.8-.13-3.51-.26-5.17-.46a18.14,18.14,0,0,0-1.91-.09h-.8a9.47,9.47,0,0,0-4.37.24l-.81,0-.54.42a10.18,10.18,0,0,0-2,1.18,16.7,16.7,0,0,0-6-1.12c-.28,0-.55,0-.82,0l.19-.2a16.7,16.7,0,0,1,7.35-4.72,10.74,10.74,0,0,1,3.69-.59,34.07,34.07,0,0,1,7.59,1.17c11.74,2.8,23.69,5.17,35.47,7l.85.13h.81a10.32,10.32,0,0,0,10.17-8.51l0-.14a10.35,10.35,0,0,0-2.37-8.45l-.22-.25Q484.46,97.27,471,82.58l26.61-30.27c4.62-5.25,2.83-10.41,2.17-11.87a10.49,10.49,0,0,0-9.74-6.11,14.47,14.47,0,0,0-2.15.17,5.61,5.61,0,0,1-.6,0l-42.26,0c0-6.37,0-12.7,0-18.95a11.07,11.07,0,0,0-11.29-11.3H400.88c-35.78,0-71.44.52-107.2.52-38.25,0-76.58-.88-114.68-.88-19.3,0-44.73-.06-70.24-.49l-4.64.06-3,3.25a11.26,11.26,0,0,0-3.27,8.67V31.26l-45-.08A10.57,10.57,0,0,0,45,48.74L71.7,79.11c-8.35,9.17-16.74,18.32-25,27.27a21.84,21.84,0,0,0-3.31,4.69,10.12,10.12,0,0,0,9,14.9,10.65,10.65,0,0,0,1.84-.16q9.29-1.64,18.51-3.53,4.47-.91,8.91-1.88l4.45-1c1.29-.29,2.5-.72,3.81-1a6.47,6.47,0,0,1,.88-.15c.35,0,.71,0,1.06,0a17.53,17.53,0,0,0,1.71-.5,7.66,7.66,0,0,1,1.59-.17l3.5-.11a4,4,0,0,1,.91,0,4.06,4.06,0,0,1,1,.36l2.37,1.06a4.16,4.16,0,0,1,1.12.65,4.2,4.2,0,0,1,.87,1.38.41.41,0,0,1,0,.4.41.41,0,0,1-.17.12,7.11,7.11,0,0,1-1.89.43,14.16,14.16,0,0,0-3.43,1,13.39,13.39,0,0,1-1.52.61,9.25,9.25,0,0,1-2.4.26c-1,0-2.09.09-3.13.06a14.83,14.83,0,0,0-2.88.36q-3,.51-6.08,1.14c-1.64.34-3.28.61-4.87.79q-3,.34-6,.77a13.44,13.44,0,0,0-9.88,6,.73.73,0,0,0,0,.09l-.89-.12-2.85,7.17-2.5,5.89h-.08a1.85,1.85,0,0,1-.3,0h-.14c-.57,0-1.13,0-1.71,0a40.79,40.79,0,0,0-9.48,1.15,13.09,13.09,0,0,0-8.4,6.44c0,.06-.06.12-.1.18L35,153.64l-2.25,7.16-1.44,3.9-.08,0-.07.35L28.61,172c-1,.11-2,.26-3,.46a15.69,15.69,0,0,0-6.78,3.1,16.57,16.57,0,0,0-4.47,5.67c-.32.65-.6,1.31-.89,2H13.4l-.14.55c-.5,1.15-1,2.32-1.37,3.5a10.83,10.83,0,0,0-1.35,3.91,32.37,32.37,0,0,0-1.42,9.33H8.84L8,216.55v2l-.15,2.14H8v23.6l.29,1.18C10,252.32,15.16,256,23.66,256.4c1.17,1.88,2.41,3.73,3.73,5.53l.39.54c1.62,2.25,5,6.94,12.2,7.07a69,69,0,0,1,8.34.67c1.48,2.51,3,4.87,4.5,7.08a12,12,0,0,0,10,5.33,12.41,12.41,0,0,0,1.63-.1c6.63-.85,12.49-1.56,17.43-2.12q2.5,3.45,5.23,6.79a11.55,11.55,0,0,0,9,4.26,11.9,11.9,0,0,0,3.41-.51c5.5-1.7,11.41-3.32,17.56-4.82,1.38-.34,2.74-.74,4-1.19a10.88,10.88,0,0,0,3.86-2.34,16.68,16.68,0,0,0,6.19-1.28c9.28-3.83,13-14.61,14.94-22.37.25-1,.48-2,.7-3-.17.79,4.91,4.76,5.62,5.41,2,1.82,4,3.6,6.07,5.32q6.18,5.14,12.82,9.69c19.14,13,40.41,22.13,63.35,25.46,20.56,3,42.37,4,63,1.25,1-.13,2-.27,3-.42,7.37-1.12,14.87-2.27,21.95-4.71,5.61-1.93,10.81-3.88,15.47-5.8a170,170,0,0,0,36.82-20.91,128.43,128.43,0,0,0,10-8.33c.26,1.44.54,2.9.9,4.41,2.68,11.21,10.13,18.46,19,18.46a17.14,17.14,0,0,0,3.95-.48,10.45,10.45,0,0,0,6.4,2.2h.13a9.73,9.73,0,0,1,1.3.1c7.22,1,14.62,2.14,22,3.32a11.77,11.77,0,0,0,11.16-4.39l.09-.1c1.81-2.07,3.55-4.18,5.24-6.32l17.27,3.4a11.67,11.67,0,0,0,2.28.22,11.42,11.42,0,0,0,9.1-4.52c2.43-3.17,4.71-6.5,6.85-9.94,2.82-.16,5.61-.33,8.34-.51A13.81,13.81,0,0,0,509.05,263q2.63-3.33,4.93-6.77c2.67,0,8.35-.15,12.1-4.62,7.62-9,11.78-20.92,12-34.36l0-.66Z"/><path class="cls-2" d="M303.7,52.73h17.62a1.36,1.36,0,0,1,1.45,1.13,13.66,13.66,0,0,1,.15,4,1.61,1.61,0,0,1-1.37,1.41l-1.75.25c-.75.1-1.13.54-1.54,1.3V71.35c.28.44-.08.78-.51.78h0l-4.32,0a2.52,2.52,0,0,1-2.26-1.55,1.06,1.06,0,0,0-1.41-.48,19.77,19.77,0,0,1-14.27,1.37,15,15,0,0,1-10.68-9.15,19.6,19.6,0,0,1,.28-16.49c4.28-9.29,16-11.52,24.87-8a.87.87,0,0,0,.69,0,2.46,2.46,0,0,0,.84-.57,1,1,0,0,1,.78-.35l4.72-.09c.46,0,.84.36.56.82h0V50c.38.94-.09,1.41-1,1.33h-4.6a1,1,0,0,1-1.11-.79c-.76-3.14-1.85-7.24-5.72-7.73Q299,42,298,49a31.41,31.41,0,0,0,.37,12.18q1.39,5.46,6.78,4.66c2.3-.34,2.09-3.92,1.62-5.54a1.09,1.09,0,0,0-.93-.79l-1.7-.2a1.55,1.55,0,0,1-1.38-1.52l-.07-4a.94.94,0,0,1,1-1ZM311,68.29a.49.49,0,0,1,.67.18l0,.09c1,3,2.82,2.49,5.4,2.39.43,0,.65-.24.48-.67V59.75a2.28,2.28,0,0,1,1.66-1.62l1.74-.28a.8.8,0,0,0,.61-.5,4.4,4.4,0,0,0,.15-2.41.85.85,0,0,0-1.08-.79H305c-.68-.27-1.05.07-1.1.75l-.16,1.82a1.2,1.2,0,0,0,1,1.28l2.07.37a.81.81,0,0,1,.6.45c1.1,2.32,1.65,7.53-2.09,8.12-9.93,1.55-9.37-12.84-8.43-18.56.81-5,4.22-8.14,9.49-6.5,3.6,1.14,4.42,4.65,5.46,7.77a.94.94,0,0,0,.93.64l3.08-.16a1,1,0,0,0,1-1.08V38.84a1,1,0,0,0-1-1.22h-.08l-2.89.16a.76.76,0,0,0-.68.44l-.74,1.46a.41.41,0,0,1-.56.18l-.09,0c-3-2.55-7.76-2.65-11.72-2.28-14,1.34-19.55,19.13-10.12,29C294.38,72.27,304.58,72,311,68.29Z"/><path class="cls-2" d="M153.34,49.58q3,.15,3.06-3.44a1.65,1.65,0,0,1,1.87-1.81l1.95,0a1.64,1.64,0,0,1,1.6,1.69q-.23,7.61-.2,14.44c0,3-4.14,2.5-5,1a1,1,0,0,1-.1-.38l-.28-2.8a2.2,2.2,0,0,0-1.59-2l-.27-.09c-1-.33-1.49,0-1.51,1.09,0,2.4-.09,4.62-.19,6.65-.06,1.06.93,1.56,3,1.5,1,0,1.55.48,1.54,1.54l-.08,3.64A1.2,1.2,0,0,1,155.77,72l-19.41.12a.92.92,0,0,1-.88-.67,10.22,10.22,0,0,1-.19-4.44,1.65,1.65,0,0,1,1.47-1.34l2.18-.22a1.16,1.16,0,0,0,1-1.14l-.12-19.61a.94.94,0,0,0-1-1l-2.08-.07a1.5,1.5,0,0,1-1.62-1.5,17.22,17.22,0,0,1,.09-3.84A1.37,1.37,0,0,1,136.59,37l33.95,0a.8.8,0,0,1,.81.8v-.59l-.1,14.35a1,1,0,0,1-1.09,1.1l-3.8.06a1.16,1.16,0,0,1-1.31-1.19,14.09,14.09,0,0,0-2.27-7.09,3.5,3.5,0,0,0-3-1.33q-3.18-.09-6.24,0a.8.8,0,0,0-.77.8l0,5A.6.6,0,0,0,153.34,49.58Zm-1.43-7.14c2.26,0,4.54,0,6.86.07,5.06.17,6.47,3.64,7,8.2a1.52,1.52,0,0,0,1.55,1.37l1.39,0a1.15,1.15,0,0,0,1.25-1.3l0-11.65a.6.6,0,0,0-.68-.7q-14,0-28.67.09a20.17,20.17,0,0,0-2.73.19c-1.21.17-1.08,1.56-1,2.45a1.6,1.6,0,0,0,.35.92,1,1,0,0,0,.87.41c1.52,0,3.52.1,3.5,2.2q-.12,10.64-.23,20.6c0,1.75-2.05,1.94-3.33,2a1.12,1.12,0,0,0-1.2,1.3l0,1.58A1.16,1.16,0,0,0,138,71.27l16.19-.06c1,0,1.51-.47,1.49-1.42l0-1.42c0-.87-.49-1.28-1.42-1.23-2.23.12-3.4-.92-3.53-3.13a62.14,62.14,0,0,1,0-7.72,1,1,0,0,1,1-.89c4.49,0,5.38,1,5.86,5a1.49,1.49,0,0,0,1.81,1.46,1.43,1.43,0,0,0,1.29-1.31.76.76,0,0,0,0-.15l0-13.26a1.25,1.25,0,0,0-1-1.22,2.07,2.07,0,0,0-1,0A1.25,1.25,0,0,0,157.8,47c-.45,3.37-2.37,4.77-5.77,4.18a.78.78,0,0,1-.65-.76l0-7.39A.54.54,0,0,1,151.91,42.44Z"/><path class="cls-2" d="M188,71.8c-.54-.06-1.09-.11-1.63-.14-3.62-.2-7.21-3.3-8.55-6.14q-1-2.19-.88-7.08.18-6.16.14-13a4.61,4.61,0,0,0-.34-1.71.49.49,0,0,0-.48-.28l-2.52.13a.82.82,0,0,1-1-.92l-.05-4.6a.9.9,0,0,1,1-1h18.82a1.09,1.09,0,0,1,1.23,1.13,20,20,0,0,1-.14,4.38,1.19,1.19,0,0,1-1.06,1l-2.14.2A1.62,1.62,0,0,0,189,45.44q.24,6.42.1,13a30.56,30.56,0,0,0,.11,3.29,4.25,4.25,0,0,0,1,2.47c2,2.36,8.44,1.78,9.63-1.23a5.92,5.92,0,0,0,.36-1.69q.5-8.2.42-16.12a1,1,0,0,0-.42-.79,5.1,5.1,0,0,0-2.86-.85,1.58,1.58,0,0,1-1.74-1.83l.1-3.63a.93.93,0,0,1,1.06-1q18.06,0,35.39.11a1.34,1.34,0,0,1,1.49,1.49,26.89,26.89,0,0,1-.18,3.94,1,1,0,0,1-.89.91l-2.56.35a.94.94,0,0,0-.83.94l0,20a.71.71,0,0,0,.85.8c1.32-.08,2.69-.18,4.12-.29,3.75-.29,4.78-4.61,4.83-7.69a1.81,1.81,0,0,1,1.93-1.78l2.87.18a1.65,1.65,0,0,1,1.75,1.83l0,13.46a.67.67,0,0,1-.68.67H213.8c-.89.27-1.6-.44-1.8-1.33V67.06a1.8,1.8,0,0,1,1.32-1.21l2.35-.29c.69-.08,1.32-1.35,1.32-1.35v-19a1.61,1.61,0,0,0-1.43-1.59,28.55,28.55,0,0,0-5.55,0,1.83,1.83,0,0,0-1.65,1.86c.11,5.87,0,11.49-.22,16.83-.22,4.58-3.07,7.24-7.16,8.63a26.36,26.36,0,0,1-11.31,1.29,2,2,0,0,0-.69,0,.46.46,0,0,1-.54-.22A.54.54,0,0,0,188,71.8Zm.4-16q.06-5.07-.05-10.78c0-2,1.24-3,3.24-2.75A1.08,1.08,0,0,0,193,41.05l.06-1.46c0-.83-.37-1.24-1.2-1.84H174.77c-.57.59-.86.87-.57,1.45v2.54c-.25.58,0,.8.6.66q3.06-.75,3.13,2,.13,6.14,0,12.68c-.1,6.31,1.1,11.76,8.38,13.1a29.17,29.17,0,0,0,14-.43q5.2-1.61,6.15-5.42a33,33,0,0,0,.62-7.74q0-4.85-.13-9.74a8.69,8.69,0,0,1,.52-3.31,1.63,1.63,0,0,1,1.29-1l2.12-.32a.86.86,0,0,0,.82-.91l.07-2.2a.81.81,0,0,0-.79-.84s0,0,0,.18H197.92c-.36-.23-.67,0-.74.39a8,8,0,0,0,0,2.76.62.62,0,0,0,.58.55l2.35.32a1.53,1.53,0,0,1,1.48,1.66c.11,5.76.17,11.4.17,16.89a5.23,5.23,0,0,1-3.42,5.34c-4.1,1.67-9.85.67-9.76-4.8C188.6,59.63,188.41,57.7,188.43,55.76ZM230,67.29a1.25,1.25,0,0,1-1.4-.88,4.33,4.33,0,0,1-.2-1.27q-.13-10.06,0-20.5c0-1.6,1.16-2.34,3.43-2.2a1.29,1.29,0,0,0,1.36-1.19l.11-1.47c.07-.87-.34-1.31-1.22-1.32l-17.74-.05a.83.83,0,0,0-.85.83h0l0,2.36a.77.77,0,0,0,.72.84l2.67.43a.82.82,0,0,1,.56.35,3.67,3.67,0,0,1,.64,2q.08,6.5,0,19.13c0,2.77-2.06,2.46-4,2.9a.57.57,0,0,0-.48.53c-.21,1.63-.67,3.62,1.84,3.57q15.74-.3,29-.1a.46.46,0,0,0,.46-.45h0V58.76a1.4,1.4,0,0,0-1.46-1.4l-1.59,0a1.32,1.32,0,0,0-1.25,1.11c-.56,3.69-1.07,8.11-5.9,8.33A44.63,44.63,0,0,0,230,67.29Z"/><path class="cls-2" d="M265.31,66.37c1.39-.09,2.8-.22,4.24-.39,4.64-.54,4.84-4.66,5.17-8.34A1.29,1.29,0,0,1,276,56.47l4.06.09a1.13,1.13,0,0,1,1.09,1.12l0,13.41a1.61,1.61,0,0,1-1.61,1.61h-.34l-30.6,0a.86.86,0,0,1-.84-.81,29.49,29.49,0,0,1,.12-5,.81.81,0,0,1,.82-.72c1.74,0,4,.07,3.93-2.46q-.24-9.9-.11-18.43a1.49,1.49,0,0,0-1.33-1.52l-2.47-.23a1,1,0,0,1-.94-1,25.49,25.49,0,0,1,.07-4.33A1.19,1.19,0,0,1,249.23,37l18.74.12a1,1,0,0,1,1.08,1.12v4.1a1.39,1.39,0,0,1-1.38,1.4h-.18a4.35,4.35,0,0,0-2.18.18.74.74,0,0,0-.54.77l0,21.13C264.74,66.23,264.93,66.4,265.31,66.37ZM250.18,42.54c2.44.24,3.71.44,3.66,3.39q-.14,6.78-.06,18.71c0,1.72-1.17,2.57-3.53,2.57a1.16,1.16,0,0,0-1.19,1.06A11.73,11.73,0,0,0,249,70a1.3,1.3,0,0,0,1.3,1.23l28.42,0a1,1,0,0,0,1-1l.07-11.63c0-.83-.4-1.22-1.22-1.17l-1.76.1a1.42,1.42,0,0,0-1.33,1.25c-.34,2.56-.7,5.81-2.94,7.31-1.54,1-5.18,1-7.38,1.14a1.21,1.21,0,0,1-1.31-1.12V66q-.09-10.85,0-21.54c0-2,2.24-1.95,3.59-2a.87.87,0,0,0,.9-1l0-2a.78.78,0,0,0-.85-.89q-8.77-.24-17.29,0a1,1,0,0,0-1.14,1.19v1.57A1.21,1.21,0,0,0,250.18,42.54Z"/><path class="cls-2" d="M372.36,51.7l-.11.07h0l0,0a.51.51,0,0,1-.07-.17A5.27,5.27,0,0,1,372,51a1.34,1.34,0,0,0,0-.2c0-.07-.08-.1-.13-.15a.52.52,0,0,1-.09-.2s0-.15-.06-.19a.32.32,0,0,0-.35,0,.26.26,0,0,0-.07.1,3.27,3.27,0,0,1-.2.55.92.92,0,0,0,0,.44V63.62a3.08,3.08,0,0,0,.1,1A2,2,0,0,0,373,65.79c.09,0,.21,0,.27,0a1.66,1.66,0,0,1,.31-.23l.36-.18a.87.87,0,0,1,.24-.1,1.62,1.62,0,0,1,.84.09,1.09,1.09,0,0,1,.38.44,1.14,1.14,0,0,1,.1.19,1.59,1.59,0,0,1,.06.3c0,.25,0,.49.07.74s.11.57.16.86c.11.58.21,1.16.31,1.74,0,.26.06.54.09.81s.05.58.07.87a1,1,0,0,1,0,.25,2.24,2.24,0,0,1-.11.5l-.14.43a.59.59,0,0,1-.06.14.46.46,0,0,1-.22.14,1.26,1.26,0,0,1-.37.13H373.8a7.67,7.67,0,0,0-.83,0l-.88.1-1.77.14c-1.18.09-2.37.15-3.55.19s-2.36,0-3.53,0c-.44,0-.87,0-1.3,0l-.63,0c-.24,0-.47,0-.72,0a4.76,4.76,0,0,1-1.6-.47l-.44-.19a.59.59,0,0,1-.17-.1.4.4,0,0,1-.1-.18c-.17-.5,0-1.06-.16-1.55a6.74,6.74,0,0,1-.4-.92c-.08-.37-.3-.7-.39-1.07a4.31,4.31,0,0,1-.09-1,3.74,3.74,0,0,1,.29-1.66,1.55,1.55,0,0,1,1.34-.89c.38,0,.62.26,1,.36a2.35,2.35,0,0,0,.53,0c.41,0,.81,0,1.22-.06.78-.1,1.53-.46,1.53-1.36q0-10.35,0-19.38a1.24,1.24,0,0,0-1.39-1.37c-2,0-5.08-.13-6.35,1.8q-3.62,5.51-7.21,10.8A12.12,12.12,0,0,0,346.66,62c-.17,2.83.35,3.81,3.43,3.92a1.27,1.27,0,0,1,1.38,1.37l.14,3.58c0,1-1.39,1.87-1.39,1.87l-18.93-.07a1.26,1.26,0,0,1-1.32-1,12.42,12.42,0,0,1,0-4.93,1.33,1.33,0,0,1,1.29-1.12l1.66,0a1.09,1.09,0,0,0,1.06-1c.48-3.36.27-6.4-1.65-9.33s-3.85-6-5.79-9.24a4.62,4.62,0,0,0-4.1-2.51,1.34,1.34,0,0,1-1.36-1.33l0-4.1c0-.69.7-1.93,1.4-1.93h18c2,0,2,.59,2,1V43c-.41.31-.64.54-1.09.56l-1.56.07a.83.83,0,0,0-.79.85.93.93,0,0,0,.12.4l3.07,5.07a.58.58,0,0,0,1,0l3.24-5.21a.79.79,0,0,0-.25-1.07.77.77,0,0,0-.49-.11l-1,.11a1.18,1.18,0,0,1-1.42-1,11.68,11.68,0,0,1,0-4.89c.11-.52.43-.78,1-1.42h33.93c.64.63,1,.94,1.21,1.56L384,54.8c.18.7.39.71.62,0q1.45-4.41,2.7-8.9c.42-1.51.83-3,1.21-4.56s.67-3.59,1.57-5A2.66,2.66,0,0,1,392.17,35a3.57,3.57,0,0,1,.92.12,17.62,17.62,0,0,0,2.21.51,16.3,16.3,0,0,0,2.4-.26,26.78,26.78,0,0,1,5.37.15c1.32.17,3.11.8,4.42.4.23-.07.44-.17.67-.24a4,4,0,0,1,1.09-.11,1.74,1.74,0,0,1,1,.2,1.57,1.57,0,0,1,.53.88c.07.25.3.35.37.59a3.22,3.22,0,0,1-.1,1c0,.53.09,1.1.09,1.64a5.59,5.59,0,0,1-.7,3.19.87.87,0,0,1-.73.37l-1.73,0a1.33,1.33,0,0,0-1.33.94,1.21,1.21,0,0,0-.05.46c.47,6.21-.05,12.3-.19,18.43a4.1,4.1,0,0,0,.23,1.55.8.8,0,0,0,.68.54l2.39.24A1.26,1.26,0,0,1,411,67.05L411,70.66A1.19,1.19,0,0,1,409.63,72H392.08s-1.74-.19-1.67-1.37l.21-3.57q.08-1.59,1.65-1.29c2.14.43,3.18-.22,3.12-1.93q-.21-6.89-.14-13,0-2.87-.9-.15-2.09,6.09-4.2,12.35c-.89,2.63-1.43,5.34-2.21,8a2.73,2.73,0,0,1-1.67,1.7h-6.43a6.72,6.72,0,0,1-1.15-.9,3,3,0,0,1-.4-.53,1.51,1.51,0,0,1-.13-.29.61.61,0,0,1,0-.13s-.08-.07-.09-.13,0-.11,0-.15l-.05-.06s0-.09,0-.13a.81.81,0,0,0-.14-.33,1.23,1.23,0,0,0-.22-.29l-.07-.06,0-.08-.06-.14a2.63,2.63,0,0,1-.15-.53c0-.18,0-.36-.06-.53a1.31,1.31,0,0,0-.12-.33.46.46,0,0,0-.27-.38,1.29,1.29,0,0,1-.16-.18,2,2,0,0,1-.3-.67,10,10,0,0,1-.28-1.11L376,65c-.09-.42-.18-.83-.25-1.25l-.09-.64c0-.1,0-.21,0-.31a1.19,1.19,0,0,1,0-.26c0-.08,0-.17,0-.25a1.54,1.54,0,0,0-.17-.51,1.26,1.26,0,0,0-.18-.32,1.49,1.49,0,0,1-.12-.14.94.94,0,0,1-.06-.15l-.08-.25a1.23,1.23,0,0,1-.05-.25,1,1,0,0,1,0-.24,1.38,1.38,0,0,0,0-.35c0-.06-.1-.12-.13-.19l-.3-.66a2.47,2.47,0,0,1-.18-.52.3.3,0,0,1,0-.23s.1-.08.12-.14,0-.14,0-.2l-.15-.51c-.1-.34-.2-.68-.31-1-.33-1.11-.68-2.21-1-3.31-.19-.54-.39-1.09-.59-1.63-.11-.28-.2-.59-.33-.87M332.4,71.27l17.25-.09a1,1,0,0,0,1-1,6.52,6.52,0,0,0-.26-2.4.7.7,0,0,0-.5-.46c-1.52-.33-3.49,0-3.77-2.17-.45-3.51-.46-6.69,1.46-9.7q3.84-6,7.34-11.18c.4-.59,1.57-1.19,3.5-1.79a.7.7,0,0,0,.49-.6l.19-2.52a.76.76,0,0,0-.86-.93l-12.57,0a.93.93,0,0,0-1.06,1.07l0,2a1,1,0,0,0,.79,1,7.16,7.16,0,0,0,1.54.23.88.88,0,0,1,.79.48,2.41,2.41,0,0,1,0,2.52,75.11,75.11,0,0,1-4.24,6.37.59.59,0,0,1-.84.13.57.57,0,0,1-.15-.16q-2-3.16-4.08-6.51a1.66,1.66,0,0,1,.24-2.42c.69-.58,1.81-.55,2.6-1a.58.58,0,0,0,.27-.45l.21-2c.08-.85-.3-1.27-1.16-1.27l-16.95.11a1.09,1.09,0,0,0-1.23,1.28l.05,1.45a1.39,1.39,0,0,0,1.24,1.36,5.34,5.34,0,0,1,4.15,2.56q3.38,5.14,6.81,10.58c1.61,2.52,1.18,6.35,1,9.19-.09,1.76-1.07,2.46-2.92,2.1a1.26,1.26,0,0,0-1.56,1.14l-.15,1.6A1.3,1.3,0,0,0,332.4,71.27Zm63.39-29.4a.28.28,0,0,1,.23,0,.32.32,0,0,1,.22.33q.09,12.44-.09,23.32c0,1.1-1.09,1.59-3.23,1.46-.88,0-1.2,1.25-1.2,1.25l0,1.7a1.2,1.2,0,0,0,1.37,1.38L405,71.21h2.92a5.06,5.06,0,0,0,1,0c.81-.18.74-1.35.44-2a3.81,3.81,0,0,0-.34-.58c-.16-.23-.32-.62-.57-.74-.51-.25-1,.17-1.55.05a3.78,3.78,0,0,1-1.17-.9,2.39,2.39,0,0,1-.31-.69,11,11,0,0,1-.1-2.92c-.09-1.53-.61-3-.8-4.46a4.19,4.19,0,0,0-.4-1.07,7.32,7.32,0,0,1-.41-4.17,22.51,22.51,0,0,1,1.21-4.06,9.59,9.59,0,0,0,.79-2.41c0-.59,0-1.22,0-1.83.07-1.11.23-2.54,1.19-3.28.71-.55,1.61-.26,2.29-.73a.67.67,0,0,0,.22-.36c.21-.63.63-1.75,0-2.09a6.52,6.52,0,0,0-2.46-.15l-9.19-.19c-.91,0-1.83,0-2.75,0-.71,0-1.43.12-2.14.23s-2,.18-2.42.74a2,2,0,0,0-.16.54l-.63,2.07-1.95,6.5-2.89,9.59c-.09.29-.26.36-.52.19a1.84,1.84,0,0,1-.74-1.15q-2.24-8.6-4.88-17.8a1.25,1.25,0,0,0-1.49-1H360.88c-.67-.14-.54.86-.54.86v2s-.14,1.06.59,1c2.42-.35,3.6.61,3.56,2.89q-.19,8.84,0,19.05c0,1.65-1.06,3.08-2.85,2.72-1.13-.23-1.73.23-1.79,1.38l-.05,1.06c0,1,.43,1.52,1.44,1.14H374c.41.33.74,0,.74-.42v-.08l-.27-2.42a.62.62,0,0,0-.62-.6c-1.57-.13-3.82-.15-3.83-2.37q0-10.48-.08-21.33c0-1.66.29-1.72.88-.17.47,1.26,1,2.55,1.44,3.83q3.31,10.74,6.87,22.68A2.51,2.51,0,0,0,381,71.27h4.71a2.09,2.09,0,0,0,1.16-1.18c2.6-9.54,6.14-18.5,8.79-28A.43.43,0,0,1,395.79,41.87Z"/><path class="cls-3" d="M311,68.29c-6.38,3.74-16.58,4-22-1.74-9.43-9.89-3.91-27.68,10.12-29,4-.37,8.75-.27,11.72,2.28a.43.43,0,0,0,.6-.05.22.22,0,0,0,.05-.08l.74-1.46a.76.76,0,0,1,.68-.44l2.89-.16A1.21,1.21,0,0,1,317,38.76s0,.05-.15.08V49.05a1,1,0,0,1-1,1.08l-3.08.16a.94.94,0,0,1-.93-.64c-1-3.12-1.86-6.63-5.46-7.77-5.27-1.64-8.68,1.52-9.49,6.5-.94,5.72-1.5,20.11,8.43,18.56,3.74-.59,3.19-5.8,2.09-8.12a.81.81,0,0,0-.6-.45L304.72,58a1.2,1.2,0,0,1-1-1.28l.16-1.82c.05-.68.42-1,1.1-.75h15.64a.85.85,0,0,1,1.08.79,4.4,4.4,0,0,1-.15,2.41.8.8,0,0,1-.61.5l-1.74.28a2.28,2.28,0,0,0-1.66,1.62V70.28c.17.43-.05.65-.48.67-2.58.1-4.39.64-5.4-2.39a.5.5,0,0,0-.63-.31Z"/><path class="cls-3" d="M152,42.5a.54.54,0,0,0-.6.61l.05,7.31a.78.78,0,0,0,.64.76q5.06.87,5.72-4.14a1.24,1.24,0,0,1,.94-1,2.17,2.17,0,0,1,1,0,1.25,1.25,0,0,1,.94,1.21l0,13.35A1.5,1.5,0,0,1,159.07,62h0a1.44,1.44,0,0,1-1.49-1.46c-.47-4-1.35-5.06-5.8-5a1,1,0,0,0-1,.89,61.61,61.61,0,0,0,0,7.68q.18,3.31,3.48,3.12,1.4-.08,1.41,1.23l0,1.42q0,1.41-1.47,1.41l-16.63.06a1.18,1.18,0,0,1-1.19-1.15l0-1.58a1.13,1.13,0,0,1,1.25-1.3c1.32,0,3.43-.24,3.44-2q.12-10,.23-20.61c0-2.09-2-2.2-3.61-2.19a1.14,1.14,0,0,1-.91-.41,1.6,1.6,0,0,1-.36-.92c-.06-.89-.19-2.28,1.06-2.45a19.93,19.93,0,0,1,2.82-.19q15.22-.12,29.65-.1a.62.62,0,0,1,.71.7l0,11.66a1.18,1.18,0,0,1-1.3,1.3l-1.49,0a1.53,1.53,0,0,1-1.55-1.37c-.5-4.56-2-8-7.2-8.2C156.68,42.48,154.31,42.46,152,42.5Z"/><path class="cls-3" d="M188.43,55.76c0,1.94.17,3.87.15,5.81-.09,5.47,5.66,6.47,9.76,4.8A5.23,5.23,0,0,0,201.76,61c0-5.49-.06-11.13-.17-16.89a1.53,1.53,0,0,0-1.48-1.66l-2.35-.32a.62.62,0,0,1-.58-.55,8,8,0,0,1,0-2.76c.07-.36.38-.62.74-1.1H211a5.35,5.35,0,0,1,1,1.35v0l-.25,2.2a.86.86,0,0,1-.82.91l-2.12.32a1.63,1.63,0,0,0-1.29,1,8.69,8.69,0,0,0-.52,3.31q.09,4.89.13,9.74a33,33,0,0,1-.62,7.74q-.94,3.81-6.15,5.42a29.17,29.17,0,0,1-14,.43c-7.28-1.34-8.48-6.79-8.38-13.1q.09-6.55,0-12.68-.08-2.79-3.13-2c-.56.14-.85-.08-.6-.66V39.2c-.29-.58,0-.86.57-.74h17.09c.83-.11,1.23.3,1.2,1.13L193,41.05a1.08,1.08,0,0,1-1.38,1.18c-2-.24-3.28.73-3.24,2.75Q188.49,50.7,188.43,55.76Z"/><path class="cls-3" d="M228.58,66.43a1.26,1.26,0,0,0,1.41.88,44.43,44.43,0,0,1,4.62-.44c4.83-.21,5.34-4.63,5.9-8.32a1.3,1.3,0,0,1,1.25-1.1l1.59-.06a1.4,1.4,0,0,1,1.46,1.4v12a.46.46,0,0,1-.46.45h0q-13.26-.19-29,.1c-2.51,0-2-1.93-1.84-3.56a.57.57,0,0,1,.49-.53c2-.44,4-.13,4-2.9q.06-12.61,0-19.11a3.74,3.74,0,0,0-.63-2,.86.86,0,0,0-.57-.35l-2.66-.43a.77.77,0,0,1-.72-.84V39.31a.85.85,0,0,1,.85-.85h0l17.73.06c.88,0,1.29.45,1.22,1.32l-.11,1.47a1.29,1.29,0,0,1-1.37,1.18c-2.26-.13-3.41.6-3.42,2.2q-.1,10.43,0,20.47A4.69,4.69,0,0,0,228.58,66.43Z"/><path class="cls-3" d="M253.83,46c.06-3-1.21-3.15-3.65-3.39a1.21,1.21,0,0,1-1.09-1.21V39.78a1,1,0,0,1,1.14-1.19q8.51-.24,17.27,0a.77.77,0,0,1,.84.89l0,2a.86.86,0,0,1-.89,1c-1.35.09-3.57.07-3.58,2q-.06,10.67,0,21.48A1.26,1.26,0,0,0,265,67.26h.21c2.2-.2,5.82-.11,7.36-1.15,2.23-1.49,2.59-4.74,2.92-7.31a1.45,1.45,0,0,1,1.34-1.25l1.75-.1c.81-.05,1.22.34,1.21,1.18l-.07,11.62a1,1,0,0,1-1,1l-28.35,0a1.3,1.3,0,0,1-1.3-1.22,11.85,11.85,0,0,1,0-1.78,1.17,1.17,0,0,1,1.19-1.06c2.36,0,3.53-.85,3.52-2.57Q253.7,52.74,253.83,46Z"/><path class="cls-3" d="M332.3,71.36A1.3,1.3,0,0,1,331,69.92l.15-1.63a1.26,1.26,0,0,1,1.56-1.14c1.87.37,2.85-.34,2.95-2.11.15-2.85.58-6.71-1-9.24q-3.47-5.47-6.85-10.65a5.35,5.35,0,0,0-4.18-2.57,1.42,1.42,0,0,1-1.25-1.36l-.05-1.46a1.12,1.12,0,0,1,1.25-1.3l17-.1c.87,0,1.25.42,1.17,1.27l-.21,2a.57.57,0,0,1-.27.45c-.8.44-1.92.42-2.62,1a1.68,1.68,0,0,0-.24,2.43q2.13,3.38,4.11,6.55a.6.6,0,0,0,.83.19.57.57,0,0,0,.16-.15q2.63-3.6,4.27-6.41a2.42,2.42,0,0,0,0-2.54.87.87,0,0,0-.79-.48,7.35,7.35,0,0,1-1.55-.23,1,1,0,0,1-.79-1l0-1.94a.94.94,0,0,1,1.06-1.08H358.3c.62,0,.9.31.86.93L359,41.91a.7.7,0,0,1-.49.6q-2.91.9-3.51,1.8-3.51,5.19-7.37,11.21c-1.92,3-1.91,6.2-1.46,9.73.28,2.14,2.27,1.84,3.78,2.17a.68.68,0,0,1,.5.47,6.74,6.74,0,0,1,.27,2.4,1.05,1.05,0,0,1-1.05,1Z"/><path class="cls-3" d="M395.61,42.11c-2.65,9.48-6.19,18.44-8.79,28a2.09,2.09,0,0,1-1.16,1.18H381a2.51,2.51,0,0,1-1.83-1.59Q375.57,57.74,372.25,47c-.4-1.28-1-2.57-1.44-3.83-.59-1.55-.88-1.49-.88.17q0,10.85.08,21.33c0,2.22,2.26,2.24,3.83,2.37a.62.62,0,0,1,.62.6l.27,2.42a.74.74,0,0,1-.66.82s-.06,0-.08.39H361.28c-1-.33-1.49-.84-1.44-1.85l.05-1.06c.06-1.15.66-1.61,1.79-1.38,1.79.36,2.88-1.07,2.85-2.72q-.22-10.22,0-19.05c0-2.28-1.14-3.24-3.56-2.89-.73.11-.59-1-.59-1v-2a1.92,1.92,0,0,1,.54-1.57h16.29c.78.6,1.28,1,1.49,1.73q2.64,9.21,4.88,17.8a1.84,1.84,0,0,0,.74,1.15c.26.17.43.1.52-.19l5.67-18.84c.2-.65,1.47-.94,1.47-.94l16.95.08a1.18,1.18,0,0,1,1.18,1.19.41.41,0,0,1,0,.11l-.15,1.44a1.21,1.21,0,0,1-1.33,1.07c-1.87-.17-2.82.72-2.83,2.66q0,9.51,0,19.72c0,2.07,1.58,2.74,3.35,2.76a.8.8,0,0,1,.75.59A5.32,5.32,0,0,1,410,70.5a.84.84,0,0,1-.92.77l-16,.08A1.18,1.18,0,0,1,391.72,70V68.19s.32-1.3,1.2-1.25c2.14.13,3.22-.36,3.23-1.46q.17-10.88.09-23.32a.32.32,0,0,0-.22-.33.28.28,0,0,0-.23,0A.43.43,0,0,0,395.61,42.11Z"/><path class="cls-4" d="M102.32,96.28q10.47.59,20.09.27c1.09,0,1.4.43.92,1.41l-8.13,16.66a.67.67,0,0,1-.9.32.69.69,0,0,1-.27-.24,20.56,20.56,0,0,0-21.71-9q-19.95,4.71-39.9,8.23c-.25,0-.31,0-.19-.27a11.1,11.1,0,0,1,1.8-2.53Q69.12,94.84,84.36,78a1.12,1.12,0,0,0,0-1.67L52.46,40.13a.57.57,0,0,1,0-.81.55.55,0,0,1,.37-.14l47.87.08a.71.71,0,0,1,.71.72h0q-.27,12-.12,24.2.22,17.3-.15,30.86A1.06,1.06,0,0,0,102.32,96.28Z"/><path class="cls-4" d="M457.86,80.43a.41.41,0,0,0,0,.56q16.35,17.9,32.6,35.64a.38.38,0,0,1,.09.32.33.33,0,0,1-.39.28q-17.43-2.76-34.76-6.9c-5.69-1.36-11.26-2.27-16.9-.29a26.63,26.63,0,0,0-11.61,7.63.72.72,0,0,1-1,.08.74.74,0,0,1-.21-.31L419.51,100a.52.52,0,0,1,.32-.66.51.51,0,0,1,.17,0q8.88-.1,20.35.48a.51.51,0,0,0,.61-.57q.33-28.77.14-56.08a.7.7,0,0,1,.71-.7h0l45.51,0a13.32,13.32,0,0,0,2.1-.13c1.46-.24,1.71.2.73,1.31Z"/><path class="cls-3" d="M409.7,94.47a23.09,23.09,0,0,1,1.56,2.67A138.37,138.37,0,0,1,421,123.36a20.2,20.2,0,0,1,.56,3.13,23.6,23.6,0,0,0,.62,3.43,52.37,52.37,0,0,1,1,6.16,17.31,17.31,0,0,1,.09,3.24c-.06,1-.11,2.11-.14,3.23a136,136,0,0,0-15.74,31.17q-4.29,11.92-6.77,21.56a1.21,1.21,0,0,0,.19.73,4.09,4.09,0,0,1-1.51.08q-11-2.46-21.67-4.71-10.44-2.22-33.59-6-6.49-1-14.15-1.84t-14.83-1.81a1.75,1.75,0,0,1-1.3-.9,53.87,53.87,0,0,0-7.62-10.94,1.76,1.76,0,0,1-.31-1.92q2.16-4.75,4.13-9.45,1.31-3.08,2.31-6.22c1.39-4.36,3.2-8.69,4.18-13.09a60.5,60.5,0,0,0,1.14-6.79c.65-6-2.88-10.11-7.92-12.52A56.29,56.29,0,0,0,299,116.15a184,184,0,0,0-27.16-4.38,56.2,56.2,0,0,0-8.48-.2,63.45,63.45,0,0,0-22.44,5.5c-.67.31-1.35.65-2,1s-1.33.7-2,1a36.57,36.57,0,0,0-6.82,4.1,19.87,19.87,0,0,0-4.56,5.47q-2.06,3.21-.4,4a14.22,14.22,0,0,0-.24,10.9q4.91,12.84,9.77,25.5a1.94,1.94,0,0,1-.37,2,47.23,47.23,0,0,0-6.74,9.21q-13.87.41-27.07,2.08-8.61,1.09-16.78,1.93c-3.79.39-7.54,1-11.26,1.54-2.8.39-5.61.87-8.4,1.42q-12.23,2.44-24.57,4.33l-1.55-.22a1.36,1.36,0,0,1-1.16-1.15,207,207,0,0,0-7.3-32.32,99.3,99.3,0,0,0-8.21-19.26,33.88,33.88,0,0,0-5.33-6.95c.78.17,1.18-.16,1.21-1a14.1,14.1,0,0,1,.43-3q2.78-10.89,5.11-17.82a83.59,83.59,0,0,1,5.55-12.56,9.64,9.64,0,0,1,1.59-2,7.7,7.7,0,0,0,1.48-2.19q41.43.11,83.11.07l28.17,0q36.9-.06,73.81,0l88.43.12A8.68,8.68,0,0,1,409.7,94.47Z"/><path class="cls-5" d="M400.84,196l8.73,2a.23.23,0,0,0,.28-.18.15.15,0,0,0,0-.07,3.65,3.65,0,0,1,.12-1.35,133.86,133.86,0,0,1,5.13-15.34c1.32-3.22,3.71-8.55,6.77-10.33a1.61,1.61,0,0,1,2.09.41,10.9,10.9,0,0,1,2,6.26,102.14,102.14,0,0,1-1.48,22.79c-.42,2.31-.44,4.66-.71,7a.84.84,0,0,1-.68.15,459.75,459.75,0,0,0-106.65-21.54.41.41,0,0,0-.44.37.61.61,0,0,0,0,.14l1.17,4.49a4.92,4.92,0,0,1,.61,2q0,1.89.28,5.7.75,9.09-3.63,19.83-.54,1.33-2.25,4.83a2.31,2.31,0,0,1-.55.71,2,2,0,0,0-.44.53,29.22,29.22,0,0,1-6.33,8.07Q301.5,235.23,298,238c-1.91,1.5-5.85,3.41-11.82,5.76a28.44,28.44,0,0,1-9.12,1.92c-.24,0-.24,0,0,.1a.93.93,0,0,0,.24,0c.13,0,.13,0,0,0-5.78.31-11.94.55-17.5-.77a61,61,0,0,1-14.94-5.67c-4.54-2.44-7.89-5.92-11.59-9.32a.91.91,0,0,1-.32-.65c-.08-1,.15-1.55.7-1.52a46,46,0,0,0,43.64,14.38,44.22,44.22,0,0,0,28.58-18.64,41.85,41.85,0,0,0-4.31-53.22,1.15,1.15,0,0,1-.18-1.32,131.9,131.9,0,0,0,9.29-23.14,57.09,57.09,0,0,0,2.08-9.91c1.07-9.59-6.77-12.86-14.27-15.2a118.62,118.62,0,0,0-28.15-5.15,67.57,67.57,0,0,0-14.22.45,65.64,65.64,0,0,0-18.41,5.75c-5.42,2.58-10,4.93-12.61,10.81q-1.65-.78.4-4a19.87,19.87,0,0,1,4.56-5.47,36.57,36.57,0,0,1,6.82-4.1c.68-.3,1.35-.64,2-1s1.36-.73,2-1a63.45,63.45,0,0,1,22.44-5.5,56.2,56.2,0,0,1,8.48.2A184,184,0,0,1,299,116.15a56.29,56.29,0,0,1,10.71,3.79c5,2.41,8.57,6.5,7.92,12.52a60.5,60.5,0,0,1-1.14,6.79c-1,4.4-2.79,8.73-4.18,13.09q-1,3.15-2.31,6.22-2,4.69-4.13,9.45a1.76,1.76,0,0,0,.31,1.92,53.87,53.87,0,0,1,7.62,10.94,1.75,1.75,0,0,0,1.3.9q7.14,1,14.83,1.81t14.15,1.84q23.16,3.75,33.59,6,10.62,2.25,21.67,4.71A4.09,4.09,0,0,0,400.84,196Zm21.5,5.56a.3.3,0,0,0-.21-.37h0l-10.72-3a.3.3,0,0,0-.37.2h0v0a.3.3,0,0,0,.21.37h0l10.72,3a.31.31,0,0,0,.37-.21h0Z"/><path d="M233.65,227.86q-13.44-15.9-10-36.82c.08-.49-.13-.73-.62-.72q-8.2.09-16.66.76a379.42,379.42,0,0,0-42.85,6q-12.8,2.5-25.4,5.59a15.32,15.32,0,0,1-5.27,1,3.58,3.58,0,0,0-2.35,1,1.33,1.33,0,0,0-.38.55A1.27,1.27,0,0,1,129,206a1.41,1.41,0,0,0,0-.62.34.34,0,0,0-.48-.27l-12,3.22a2.33,2.33,0,0,0-1-.12.37.37,0,0,1-.21-.06.34.34,0,0,1-.15-.43.43.43,0,0,0-.13-.48,2.85,2.85,0,0,1-1-2.29.86.86,0,0,0-.19-.6.94.94,0,0,1,0-1.14q19.32-5.37,35.6-8.78a545.14,545.14,0,0,1,70.25-9.72c1.78-.13,3.53-.2,5.27-.2a1,1,0,0,0,.87-.55l1.66-3.66a47.23,47.23,0,0,1,6.74-9.21,1.94,1.94,0,0,0,.37-2q-4.86-12.66-9.77-25.5a14.22,14.22,0,0,1,.24-10.9c2.57-5.88,7.19-8.23,12.61-10.81a65.64,65.64,0,0,1,18.41-5.75,67.57,67.57,0,0,1,14.22-.45,118.62,118.62,0,0,1,28.15,5.15c7.5,2.34,15.34,5.61,14.27,15.2a57.09,57.09,0,0,1-2.08,9.91,131.9,131.9,0,0,1-9.29,23.14,1.15,1.15,0,0,0,.18,1.32,41.85,41.85,0,0,1,4.31,53.22,44.22,44.22,0,0,1-28.58,18.64A46,46,0,0,1,233.65,227.86Zm-3.72-20.92c-2-9.29,1.21-20.15,7.26-27.56,3.24-4,3.77-9.09,2.44-13.87a129.84,129.84,0,0,0-7.92-21.57,13.2,13.2,0,0,1-1.43-4.63c-.18-3.57,3.23-7.74,5.87-9.8a85.89,85.89,0,0,1,18.61-10.72,6.79,6.79,0,0,0,1.12-.62c.7-.49.63-.65-.21-.49a90.2,90.2,0,0,0-19,5.93c-3.27,1.42-6.84,4-8.5,7.26-3.2,6.36-2,13.29,1.38,19.5a71.78,71.78,0,0,1,7.35,19.78,2.26,2.26,0,0,1-.38,2A45.22,45.22,0,0,0,226,197.75c-.95,12,4.71,23.79,13.71,31.52a58.75,58.75,0,0,0,13.16,8.46s.05,0,.06,0l.11-.17a.25.25,0,0,0-.08-.38,71.88,71.88,0,0,1-17.57-18.49A34.89,34.89,0,0,1,229.93,206.94Zm5.71-68.86,8,24.42a.37.37,0,0,0,.48.27,3.71,3.71,0,0,0,1.38-.76l4.82-2.33c13.46-5.33,29.1-4.69,41.61,3,.21.13.35.08.44-.14l1-2.62,8.14-22.41a.9.9,0,0,0-.36-1.07c-12.55-8.28-26.39-10.75-41.23-9.33a41.41,41.41,0,0,0-12.77,3.36,52.78,52.78,0,0,0-11.43,6.84C235.63,137.46,235.59,137.7,235.64,138.08Zm71.5,2.44a9.65,9.65,0,0,0-9.33-11.89,16.68,16.68,0,0,0-3.59.41c-.76.17-.78.39-.05.67,3,1.16,11.66,3.27,9.8,8.37q-3.8,10.35-9.29,22.18a19.74,19.74,0,0,0-1.27,3.49.57.57,0,0,0,.13.56.2.2,0,0,0,.28,0l0-.05q3.91-6.42,8.7-13A27.71,27.71,0,0,0,307.14,140.52Z"/><path class="cls-1" d="M237.19,179.38c-6.05,7.41-9.28,18.27-7.26,27.56a34.89,34.89,0,0,0,5.5,11.73A71.88,71.88,0,0,0,253,237.16a.25.25,0,0,1,.08.38l-.11.17s0,0-.06,0a58.75,58.75,0,0,1-13.16-8.46c-9-7.73-14.66-19.53-13.71-31.52a45.22,45.22,0,0,1,10.46-25.58,2.26,2.26,0,0,0,.38-2,71.78,71.78,0,0,0-7.35-19.78c-3.4-6.21-4.58-13.14-1.38-19.5,1.66-3.29,5.23-5.84,8.5-7.26a90.2,90.2,0,0,1,19-5.93c.84-.16.91,0,.21.49a6.79,6.79,0,0,1-1.12.62,85.89,85.89,0,0,0-18.61,10.72c-2.64,2.06-6.05,6.23-5.87,9.8a13.2,13.2,0,0,0,1.43,4.63,129.84,129.84,0,0,1,7.92,21.57C241,170.29,240.43,175.42,237.19,179.38Z"/><path class="cls-3" d="M293.4,160c.12-.76-.08-1.14-.6-1.15a.48.48,0,0,0-.29.1.94.94,0,0,1-.94.12,68,68,0,0,0-18.48-4.42,39,39,0,0,0-6.21-.08c-3.43.22-7,0-10.25,1.22a21.89,21.89,0,0,0-2.29.57c-1.29.62-2.39,1-3.55,1.56a1.55,1.55,0,0,0-.75.67c-.3.57-.19.94.31,1.12L245.53,162a7.44,7.44,0,0,1-.83-1.64c-.2-.58-.42-1.15-.65-1.7-.77-1.83-1.21-3.68-1.83-5.57q-2.39-7.29-4.75-14.07a2.25,2.25,0,0,0-1.14-1.31q-.41-.19-.69.36c0-.38,0-.62.11-.72a52.78,52.78,0,0,1,11.43-6.84A41.41,41.41,0,0,1,260,127.16c14.84-1.42,28.68,1.05,41.23,9.33a.9.9,0,0,1,.36,1.07Z"/><path class="cls-6" d="M115.88,131.69a33.88,33.88,0,0,1,5.33,6.95,99.3,99.3,0,0,1,8.21,19.26,207,207,0,0,1,7.3,32.32,1.36,1.36,0,0,0,1.16,1.15l1.55.22-12,2.72c-.3-.09-.42-.22-.37-.39a4.16,4.16,0,0,0,.14-1.86,131.16,131.16,0,0,0-5.32-20.47c-1-3.07-3-7.73-5.74-9.76A1.65,1.65,0,0,0,114,162c-2.54,2.52-2.95,9.33-3,12.79a119.13,119.13,0,0,0,2,24,12.65,12.65,0,0,1,.22,2.39,2.49,2.49,0,0,0,.66,2.06.94.94,0,0,0,0,1.14.86.86,0,0,1,.19.6,2.85,2.85,0,0,0,1,2.29.43.43,0,0,1,.13.48.34.34,0,0,0,.15.43.37.37,0,0,0,.21.06,2.33,2.33,0,0,1,1,.12l-1.33.42a.35.35,0,0,0-.27.45c.94,4.29,5.54,22.44,10.47,22.6,1.75.05,2.49-2.17,2.86-3.53a31.43,31.43,0,0,0,1.12-7.66q.18-7.29-.35-14.61a1.27,1.27,0,0,0,1.17-.77,1.33,1.33,0,0,1,.38-.55,3.58,3.58,0,0,1,2.35-1,15.32,15.32,0,0,0,5.27-1,56.69,56.69,0,0,1,.7,5.63q.39,7.5.72,20.42-.47,4.75-.74,9a93.18,93.18,0,0,1-2.39,16.76c-1.29,5.1-3.88,13.46-9.07,15.6-7.12,2.94-13.47-7-16-12a127.67,127.67,0,0,1-9.82-26.79,252.67,252.67,0,0,1-7-46.89,167,167,0,0,1,.36-24.5,109.57,109.57,0,0,1,2.63-16.11c1-4.33,3.45-11.08,7.06-13.85C108.59,126.84,112.8,128.43,115.88,131.69Z"/><path class="cls-1" d="M307.14,140.52a27.71,27.71,0,0,1-4.59,10.78q-4.79,6.57-8.7,13a.19.19,0,0,1-.27.06s0,0,0,0a.57.57,0,0,1-.13-.56,19.74,19.74,0,0,1,1.27-3.49q5.49-11.83,9.29-22.18c1.86-5.1-6.79-7.21-9.8-8.37-.73-.28-.71-.5.05-.67a16.68,16.68,0,0,1,3.59-.41A9.65,9.65,0,0,1,307.14,140.52Z"/><path class="cls-7" d="M95.67,143.23a1.92,1.92,0,0,0-2-.69,13,13,0,0,1-1.92.2q-9.27-.5-15.6-.46a57.76,57.76,0,0,1-8.07-.44A34.18,34.18,0,0,1,71,136.39a3.63,3.63,0,0,1,2.88-1.63q2.91-.4,5.79-.73t5.74-.94c3-.62,6.07-1.17,9.32-1.65a14.66,14.66,0,0,1,2.72-.16c.81,0,1.12.44.92,1.23Z"/><path class="cls-8" d="M447.54,133.68a1.35,1.35,0,0,0-.43,1.52,29.67,29.67,0,0,1,1.09,7.67c-.6-2.69-1.09-5.44-1.46-8.23a1.4,1.4,0,0,1,.35-1.14Q447.23,133.35,447.54,133.68Z"/><path class="cls-7" d="M447.37,133.68a20.67,20.67,0,0,1,3-.06c4.32.51,8.79.57,12.9,1.23,2,.31,4,.62,5.9.9a2.21,2.21,0,0,1,1.56,1.17,46.54,46.54,0,0,1,4.29,9.48,80.08,80.08,0,0,0-8.35.17,32.16,32.16,0,0,1-4.39,0,32.05,32.05,0,0,0-4.49,0,.46.46,0,0,1-.36-.16.7.7,0,0,0-.54-.24,25.08,25.08,0,0,0-3.94.15,17.75,17.75,0,0,1-3.12-.35,1,1,0,0,1-.57-.22,4,4,0,0,1-.84-1.1c-.19-.36-.3-.34-.31.07l-.09,1.58,0-3.42a29.2,29.2,0,0,0-1.08-7.67A1.33,1.33,0,0,1,447.37,133.68Z"/><path class="cls-6" d="M393.78,237.24c.44-3.59.78-7.17,1-10.76a154.16,154.16,0,0,1,3.13-19.63,1.74,1.74,0,0,0,.73.4.73.73,0,0,0,.64-.07,1.64,1.64,0,0,1,1.18-.19,28.56,28.56,0,0,1,6.79,2.33q-.82,5.43-1.39,10.21c-.7,5.91-1,11.91.39,17.51a6.6,6.6,0,0,0,1.52,2.85,1.59,1.59,0,0,0,2.1.21,11.45,11.45,0,0,0,3-3.16,43.41,43.41,0,0,0,3.78-7.21,99.4,99.4,0,0,0,5.12-16.56,1.55,1.55,0,0,0,1.63-1.3c.21-1,.45-2,.7-3a2,2,0,0,0-.31-1.62c.27-2.35.29-4.7.71-7A102.14,102.14,0,0,0,426,177.41a10.9,10.9,0,0,0-2-6.26,1.61,1.61,0,0,0-2.09-.41c-3.06,1.78-5.45,7.11-6.77,10.33A133.86,133.86,0,0,0,410,196.41a3.65,3.65,0,0,0-.12,1.35.24.24,0,0,1-.22.26h-.07l-8.73-2a1.21,1.21,0,0,1-.19-.73q2.49-9.63,6.77-21.56a136,136,0,0,1,15.74-31.17,26.11,26.11,0,0,1,7.68-7c5.62-3.17,10.3.25,12.34,5.51a38,38,0,0,1,2.27,8.59,114.85,114.85,0,0,1,.26,28.89A254.59,254.59,0,0,1,436,224.93a166.3,166.3,0,0,1-13.37,31.55c-3.56,6.4-9.12,14.65-15.5,16.84-6.54,2.26-10.36-5.3-11.57-10.37C393.45,254.13,393.53,246.65,393.78,237.24Z"/><path class="cls-5" d="M245.53,162a3.71,3.71,0,0,1-1.38.76.37.37,0,0,1-.48-.27l-8-24.42q.29-.56.69-.36a2.25,2.25,0,0,1,1.14,1.31q2.35,6.78,4.75,14.07c.62,1.89,1.06,3.74,1.83,5.57.23.55.45,1.12.65,1.7A7.44,7.44,0,0,0,245.53,162Z"/><path class="cls-8" d="M68.11,141.84a57.76,57.76,0,0,0,8.07.44q6.33,0,15.6.46a13,13,0,0,0,1.92-.2,1.92,1.92,0,0,1,2,.69L93.2,154.76a31.12,31.12,0,0,1-9.3-.07,38.2,38.2,0,0,0-3.86,0,.26.26,0,0,1-.24-.14.51.51,0,0,0-.42-.21,31.52,31.52,0,0,1-5-.19,13.08,13.08,0,0,0-4.67,0,13.8,13.8,0,0,1-3.44.13,3.52,3.52,0,0,0-3.13,1l.51-2.42Z"/><path class="cls-8" d="M475.23,146.4l1.89,5.23a2.74,2.74,0,0,0,.53,2.24l.39,1.81.35,1.6,1.14,6.14-.75-1.18c-.13-.19-.27-.21-.42-.05l-.24.24a.43.43,0,0,1-.6.07,1.24,1.24,0,0,0-1-.17,2.69,2.69,0,0,1-.8.09c-1.9,0-3.75-.11-5.56-.27a53.7,53.7,0,0,0-8.3-.11l-7.55.49a14.65,14.65,0,0,1-2.39-.11,12.82,12.82,0,0,0-2.41,0,140.08,140.08,0,0,0-1.25-16.09l.09-1.58c0-.41.12-.43.31-.07a4.15,4.15,0,0,0,.81,1.06,1,1,0,0,0,.6.26,17.75,17.75,0,0,0,3.12.35,25.21,25.21,0,0,1,3.95-.15.68.68,0,0,1,.54.25.45.45,0,0,0,.38.15,31.77,31.77,0,0,1,4.47,0,32,32,0,0,0,4.38,0A80.13,80.13,0,0,1,475.23,146.4Z"/><path class="cls-7" d="M477.12,151.63a3.65,3.65,0,0,1,.53,2.24A2.74,2.74,0,0,1,477.12,151.63Z"/><path class="cls-7" d="M63.69,153l-.51,2.42-1.61,7.14-.45,2.14-.39,7.25-.15-4.65.41-4a.23.23,0,0,0-.21-.25h0l-.22,0a.32.32,0,0,0-.36.22l-.63,1.69-.19-2.12c0-.36-.2-.44-.49-.23a1.71,1.71,0,0,1-1.54.19,9.23,9.23,0,0,0-2.62-.48c-1.88-.06-3.74,0-5.57.08a24.61,24.61,0,0,1-3.43,0c-1.18-.09-2.35-.16-3.5-.22A41.81,41.81,0,0,1,45,156.41a3.14,3.14,0,0,1,2-1.61,30.48,30.48,0,0,1,8.38-.84,11.54,11.54,0,0,0,3.33-.31,12.66,12.66,0,0,1,3.86-.38,1,1,0,0,0,.69-.22C63.67,152.7,63.81,152.67,63.69,153Z"/><path class="cls-9" d="M93.2,154.76,92,164.48l-.23-.77a.35.35,0,0,0-.49-.26,15.59,15.59,0,0,1-5.43.64c-1.21-.06-2.41-.09-3.62-.08-2.38,0-4.69-.06-6.93-.25a11.74,11.74,0,0,1-2.17-.59,4.45,4.45,0,0,0-2.32-.18,5,5,0,0,1-1.89-.05,3.59,3.59,0,0,0-1.6.25,5.43,5.43,0,0,1-2.93.22.61.61,0,0,1-.32-.16,3.21,3.21,0,0,0-1.87-.78.25.25,0,0,0-.28.2c-.18.63-.31.74-.4.32a.83.83,0,0,1,.08-.48l1.61-7.14a3.52,3.52,0,0,1,3.13-1,13.8,13.8,0,0,0,3.44-.13,13.08,13.08,0,0,1,4.67,0,31.52,31.52,0,0,0,5,.19.51.51,0,0,1,.42.21.26.26,0,0,0,.24.14,38.2,38.2,0,0,1,3.86,0A31.12,31.12,0,0,0,93.2,154.76Z"/><path class="cls-5" d="M293.4,160l-1,2.62c-.09.22-.23.27-.44.14-12.51-7.74-28.15-8.38-41.61-3-.5-.18-.61-.55-.31-1.12a1.55,1.55,0,0,1,.75-.67c1.16-.56,2.26-.94,3.55-1.56a21.89,21.89,0,0,1,2.29-.57c3.29-1.18,6.82-1,10.25-1.22a39,39,0,0,1,6.21.08A68,68,0,0,1,291.57,159a.94.94,0,0,0,.94-.12.48.48,0,0,1,.29-.1C293.32,158.83,293.52,159.21,293.4,160Z"/><path class="cls-7" d="M501.35,172.64l-1.56-3.92a.64.64,0,0,0-.62-.43c-1.79,0-3.69-.09-5.7-.25a.18.18,0,0,1-.16-.13.17.17,0,0,0-.15-.12l-8.29-.2a1.16,1.16,0,0,1-.67-.24,1.87,1.87,0,0,0-1.54-.33.41.41,0,0,0-.37.45l0,3.38a92.2,92.2,0,0,0-2.62-12.48c-.19-.71-.57-1.07-1.12-1.09l-.35-1.6-.07-.53a.37.37,0,0,1,.34-.46,13,13,0,0,1,3.83-.07q6.32.72,12.2,1.66a2.72,2.72,0,0,1,2.12,1.71q2,5.16,3.83,10.54a6.63,6.63,0,0,1,.3,1.51,1.58,1.58,0,0,0,.2.66A3.18,3.18,0,0,1,501.35,172.64Z"/><path class="cls-1" d="M127,193.92l-12.2,2.87a.19.19,0,0,0-.16.18l0,.41a.15.15,0,0,0,.13.17h.06l12.59-3.24,12-2.72q12.34-1.87,24.57-4.33c2.79-.55,5.6-1,8.4-1.42,3.72-.52,7.47-1.15,11.26-1.54q8.18-.84,16.78-1.93,13.2-1.68,27.07-2.08L225.85,184a1,1,0,0,1-.87.55c-1.74,0-3.49.07-5.27.2a545.14,545.14,0,0,0-70.25,9.72q-16.28,3.41-35.6,8.78a2.49,2.49,0,0,1-.66-2.06,12.65,12.65,0,0,0-.22-2.39,119.13,119.13,0,0,1-2-24c.06-3.46.47-10.27,3-12.79a1.65,1.65,0,0,1,2.14-.15c2.73,2,4.69,6.69,5.74,9.76a131.16,131.16,0,0,1,5.32,20.47A4.16,4.16,0,0,1,127,193.92Z"/><path class="cls-8" d="M59.57,164.85l-1.08,5a3,3,0,0,0-.15-1.26c-.1-.27-.27-.32-.51-.17l-1.21.8a1,1,0,0,1-.64.16,3.74,3.74,0,0,0-1.69.24,1.29,1.29,0,0,1-.8.05,18.11,18.11,0,0,0-6-.36,21.19,21.19,0,0,1-4.06-.1l-1.19-.3a3.18,3.18,0,0,0-2.32.42L42.23,162c1.15.06,2.32.13,3.5.22a24.61,24.61,0,0,0,3.43,0c1.83-.11,3.69-.14,5.57-.08a9.23,9.23,0,0,1,2.62.48,1.71,1.71,0,0,0,1.54-.19c.29-.21.46-.13.49.23Z"/><path class="cls-6" d="M479.47,163.42a30.17,30.17,0,0,1,.45,3.34,89.22,89.22,0,0,1-.92,21.42,21.15,21.15,0,0,1,.33-7.16,31.35,31.35,0,0,0,.22-10.7c-.1-.66-.33-.7-.67-.14l-.64,1a.82.82,0,0,1-.57.4,16.8,16.8,0,0,1-2.89.32q-8.14.2-16.29,0c-1.45,0-2.74,0-3.87.07l-3.69.25a.55.55,0,0,0-.54.44l-.9,3.87-.08-14.16a12.93,12.93,0,0,1,2.42,0,14.54,14.54,0,0,0,2.38.11l7.55-.49a53.7,53.7,0,0,1,8.3.11c1.81.16,3.67.25,5.56.27a2.69,2.69,0,0,0,.8-.09,1.23,1.23,0,0,1,1,.17.44.44,0,0,0,.61-.07l.23-.24c.16-.16.3-.14.42.05Z"/><path class="cls-6" d="M61.57,162.81a.83.83,0,0,0-.08.48c.09.42.22.31.4-.32a.24.24,0,0,1,.28-.19,3.27,3.27,0,0,1,1.87.77.61.61,0,0,0,.32.16,5.33,5.33,0,0,0,2.93-.21,3.47,3.47,0,0,1,1.6-.26,5,5,0,0,0,1.89,0,4.35,4.35,0,0,1,2.32.19,11.45,11.45,0,0,0,2.17.58c2.24.2,4.55.28,6.93.26,1.21,0,2.41,0,3.62.08a15.8,15.8,0,0,0,5.42-.64.39.39,0,0,1,.5.26l.23.76-.38,5.16q-.39-1.89-3.46.07a1,1,0,0,1-.35.14.49.49,0,0,1-.47-.16.77.77,0,0,0-.48-.2l-12.53-.6a.09.09,0,0,1-.1-.09.15.15,0,0,0-.13-.13,47.22,47.22,0,0,0-5.93-.24,10.94,10.94,0,0,0-2.22.3,4,4,0,0,1-2.34-.11c-.51-.19-1-.39-1.5-.61a.51.51,0,0,0-.64.21,2,2,0,0,0-.24,1c0,.08,0,.12-.11.12h0a.11.11,0,0,1-.11-.12,44.39,44.39,0,0,0,.15-4.62Z"/><path d="M61.33,165q0,2.33-.15,4.62c0,.07,0,.11.11.12h0a.11.11,0,0,0,.12-.12,1.94,1.94,0,0,1,.23-1,.51.51,0,0,1,.64-.21c.5.22,1,.42,1.5.61a4,4,0,0,0,2.35.11,10.94,10.94,0,0,1,2.22-.3,47.06,47.06,0,0,1,5.92.24.14.14,0,0,1,.13.13.09.09,0,0,0,.1.09l12.54.6a.77.77,0,0,1,.48.2.47.47,0,0,0,.46.16.93.93,0,0,0,.36-.14q3.07-2,3.46-.07c0,14.47,1.75,27.7,3.39,41.5a138.94,138.94,0,0,0,13.4,45.69,94.46,94.46,0,0,0,9.63,15.17.72.72,0,0,1-.34,1.18c-1,.35-2.07.66-3.16.92q-9.57,2.34-18.13,5a1.61,1.61,0,0,1-1.71-.52,136.78,136.78,0,0,1-27.73-57,328.34,328.34,0,0,1-6.34-39.37l.12-10.33Z"/><path class="cls-8" d="M501.16,172.64l.81,7.54-.81-3.53a1.67,1.67,0,0,0-.28-.64c-.72-1-1.39-1.17-2-.49a.67.67,0,0,1-.59.22,58,58,0,0,0-12.35.06.84.84,0,0,1-.43-.09.34.34,0,0,1-.19-.28.39.39,0,0,0-.51-.39,3.49,3.49,0,0,0-1.5.58.7.7,0,0,0-.32.54l-1.38,10.37.71-2.15V167.47s-.07-.4.18-.45a1.87,1.87,0,0,1,1.54.33,1.16,1.16,0,0,0,.67.24l8.29.2a.17.17,0,0,1,.15.12.18.18,0,0,0,.16.13c2,.16,3.91.24,5.7.25a.64.64,0,0,1,.62.43Z"/><path class="cls-4" d="M60.67,167.25l.14,4.65-.12,10.32A48.73,48.73,0,0,0,60,176C59.76,174.52,60,171.59,60.67,167.25Z"/><path class="cls-9" d="M58.67,169.8l-.17,11.46L56.79,179a.5.5,0,0,0-.63-.17l-.33.12a.88.88,0,0,1-.71,0,2.14,2.14,0,0,0-1.87.08.58.58,0,0,1-.57,0,4.24,4.24,0,0,0-2.17-.58,59.13,59.13,0,0,1-8.81-.53.3.3,0,0,1-.26-.2.39.39,0,0,0-.46-.21,1.47,1.47,0,0,1-1.48-.32.09.09,0,0,0-.14,0,.2.2,0,0,1-.18.09c-.28,0-.4.11-.36.38a2.37,2.37,0,0,1,0,.88c-.06.25-.13.26-.19,0a2.75,2.75,0,0,1-.05-1.25l1.59-8a3.18,3.18,0,0,1,2.32-.42l1.19.3a21.19,21.19,0,0,0,4.06.1,18,18,0,0,1,6,.37,1.35,1.35,0,0,0,.79-.07,3.68,3.68,0,0,1,1.64-.23,1.11,1.11,0,0,0,.67-.16l1.21-.8a.34.34,0,0,1,.52.17A3.27,3.27,0,0,1,58.67,169.8Z"/><path d="M479.07,188.18q-3.1,18-6.52,31.7a136.5,136.5,0,0,1-30.23,57.91c-.63.72-1.09,1.37-2.17,1.2Q429,277.21,418,275.65a19,19,0,0,0-2.8-.2.56.56,0,0,1-.56-.56.57.57,0,0,1,.11-.33,181.21,181.21,0,0,0,34.81-98l.91-3.87a.53.53,0,0,1,.53-.44l3.7-.25c1.13-.08,2.42-.11,3.86-.07q8.15.24,16.3,0a16.91,16.91,0,0,0,2.89-.32.82.82,0,0,0,.57-.4l.63-1c.35-.56.57-.52.67.14a31.09,31.09,0,0,1-.21,10.7A20.89,20.89,0,0,0,479.07,188.18Z"/><path class="cls-9" d="M502.26,180.18v1.16a.32.32,0,0,1-.33.34.89.89,0,0,0-1,.65.48.48,0,0,1-.5.37q-6.47,0-12.79.26a9.58,9.58,0,0,1-1.61-.2,1.28,1.28,0,0,0-.72.1l-1.08.51a2.53,2.53,0,0,0-1.4,2.35,4.35,4.35,0,0,1-.59,2.09v-1.28l1-10.37a.69.69,0,0,1,.31-.54,3.61,3.61,0,0,1,1.51-.58.4.4,0,0,1,.51.39.32.32,0,0,0,.19.28.82.82,0,0,0,.43.09,57.9,57.9,0,0,1,12.34-.06.69.69,0,0,0,.57-.19c.65-.72,1.34-.55,2.08.5a1.67,1.67,0,0,1,.25.6Z"/><path d="M58.32,181.26q0,4,.23,5.82,1.89,16.28,3.56,26,4.76,27.8,21.29,54.14a.63.63,0,0,1-.2.86.62.62,0,0,1-.26.09q-8.18.91-19.72,2.38a2.09,2.09,0,0,1-2.14-.94A135,135,0,0,1,52.43,255a118.26,118.26,0,0,1-11.25-35.59Q38.63,203.73,37.7,193a66.39,66.39,0,0,1,.65-15.66,2.9,2.9,0,0,0,0,1.25c.07.25.13.24.2,0a2.37,2.37,0,0,0,0-.88c0-.27.08-.39.36-.38a.2.2,0,0,0,.18-.09.09.09,0,0,1,.14,0,1.47,1.47,0,0,0,1.48.32.4.4,0,0,1,.46.21.3.3,0,0,0,.26.2,59.13,59.13,0,0,0,8.81.53,4.26,4.26,0,0,1,2.17.58.56.56,0,0,0,.56,0,2.11,2.11,0,0,1,1.87-.09.9.9,0,0,0,.72,0l.33-.12a.49.49,0,0,1,.62.17Z"/><path class="cls-4" d="M528.12,215.24l-.32-2.78a.46.46,0,0,0-.52-.41.52.52,0,0,0-.21.07,1.6,1.6,0,0,1-1.83.1.91.91,0,0,0-.58-.12,7.21,7.21,0,0,1-3.66-.41.57.57,0,0,0-.58.06,2.11,2.11,0,0,0-.74,1.41l-.09-.46c-.06-.28-.21-.34-.44-.18l-.33.22,1-9a35.56,35.56,0,0,0-1-12.7,1,1,0,0,0-1.15-.67l-.08,0a.84.84,0,0,0-.4.38.63.63,0,0,1-.59.34l-9.48.06a.91.91,0,0,0-.51.16.85.85,0,0,1-1.15-.05.75.75,0,0,0-1.05.09.7.7,0,0,0-.1.16l-.52,1.1.85-12.09a1.32,1.32,0,0,1,.75-1.15,1.41,1.41,0,0,1,.78-.12c2.43.37,4.77.69,7,1a4,4,0,0,1,3,2.36,61.08,61.08,0,0,1,3,7.76,34,34,0,0,1,1.21,13.83.87.87,0,0,0,.27.77,2,2,0,0,0,1.78.48,5.91,5.91,0,0,1,2.39.12,2.45,2.45,0,0,1,1.42,1.32A15.41,15.41,0,0,1,528.12,215.24Z"/><path class="cls-7" d="M36,194.72l-.35-7.18a.82.82,0,0,0-.86-.77l-.17,0a9.12,9.12,0,0,1-2.75.28q-4.32-.18-8.75,0a.46.46,0,0,0-.38.22,8.48,8.48,0,0,0-1.24,3,.32.32,0,0,1-.33.29q-1.23,4.6-2,9.34a22.66,22.66,0,0,1,1.21-8.59,1.26,1.26,0,0,0,.07-.54.8.8,0,0,1,.22-.64,1.33,1.33,0,0,0,.37-.61,42.5,42.5,0,0,1,2.37-5.88,6.67,6.67,0,0,1,1.76-2.3,6,6,0,0,1,2.51-1.09,22,22,0,0,1,6-.39s.44,0,1.21,0S36,180.18,36,181Q36,187.86,36,194.72Z"/><path d="M502.25,180.18a25.21,25.21,0,0,1,.44,3.51,106.27,106.27,0,0,1-.89,15.68q-1.89,13.49-4.82,26.39a112.08,112.08,0,0,1-4,13.86,120.58,120.58,0,0,1-17.21,31.46,1.45,1.45,0,0,1-1.52.57l-19.87-3.92a.52.52,0,0,1-.44-.44.47.47,0,0,1,.08-.41q3.76-5.5,6.89-11.14A184.29,184.29,0,0,0,474.5,225.2,163.93,163.93,0,0,0,482,188c0-.11,0-.08.12.08s.07.07.09,0l.08-.29a4,4,0,0,0,.54-2.65,1.34,1.34,0,0,1,.74-1.46l1.94-.9a.69.69,0,0,1,.35-.07,13.87,13.87,0,0,0,1.83.23q6.33-.21,12.79-.26a.49.49,0,0,0,.51-.37.9.9,0,0,1,1.08-.64.19.19,0,0,0,.21-.18Z"/><path class="cls-7" d="M481.58,184.38l.71,2.15v1.28l-.37.29c0,.08-.06.09-.1,0s-.12-.19-.12-.08a30.54,30.54,0,0,1,.11-6.34c0-.06,0-.1.1.12h0c.06-.21.09-.18.09-.12A5.79,5.79,0,0,1,481.58,184.38Z"/><path d="M423.82,207.21a2,2,0,0,1,.31,1.62c-.25,1-.49,2-.7,3a1.55,1.55,0,0,1-1.63,1.3,80.87,80.87,0,0,0-14.52-3.85,28.56,28.56,0,0,0-6.79-2.33,1.64,1.64,0,0,0-1.18.19.73.73,0,0,1-.64.07,1.74,1.74,0,0,1-.73-.4,1.14,1.14,0,0,0-.53-.42,586.52,586.52,0,0,0-74.58-15q-2.79-.36-5.6-.59l-1.17-4.49a.42.42,0,0,1,.29-.5h.14a459.75,459.75,0,0,1,106.65,21.54A.84.84,0,0,0,423.82,207.21Z"/><path class="cls-9" d="M36,195l.57,8.39-1.11-2.69a.49.49,0,0,0-.49-.33l-13.3-.11a1.73,1.73,0,0,0-1.75,1.66l-.21,4.92a4.54,4.54,0,0,1-.78,2.29h-.4l.6-8.94q.81-4.74,2-9.34a.32.32,0,0,0,.33-.29,8.3,8.3,0,0,1,1.25-3,.46.46,0,0,1,.37-.21q4.43-.14,8.75.05a9.12,9.12,0,0,0,2.75-.28.82.82,0,0,1,1,.58l0,.17Z"/><path class="cls-9" d="M519.8,203.64c0-1.46-.1-2.9-.16-4.31a2,2,0,0,0-1.22-1.7,4.18,4.18,0,0,0-2.29-.35,8.5,8.5,0,0,1-2,.13q-3.69-.24-8-.12a1.5,1.5,0,0,1-.73-.16,2.61,2.61,0,0,0-1-.25.51.51,0,0,0-.48.32l-.53,1.26.12-1.39a7.69,7.69,0,0,0,.24-3.28l.11-1.24.52-1.1a.74.74,0,0,1,1-.36l.17.11a.86.86,0,0,0,1.15.05.92.92,0,0,1,.51-.17l9.48-.05a.64.64,0,0,0,.59-.35.84.84,0,0,1,.4-.38,1,1,0,0,1,1.21.57s0,0,0,.07A35.58,35.58,0,0,1,519.8,203.64Z"/><path class="cls-3" d="M233.59,227.74c-.25-.32-.68,1.18-.66,1.36a3.19,3.19,0,0,0,1.3,1.86c3.37,3,6.65,6.18,10.63,8.32a61.33,61.33,0,0,0,14.94,5.66c5.56,1.32,11.72,1.09,17.5.78.13,0,.13,0,0,0l-.24,0c-.23-.06-.23-.09,0-.1a27.91,27.91,0,0,0,9.12-1.92q9-3.51,11.82-5.75,3.5-2.73,6.91-5.51a29.45,29.45,0,0,0,6.37-8.14,1.83,1.83,0,0,1,.41-.47,2.43,2.43,0,0,0,.54-.71q1.71-3.48,2.25-4.83,4.38-10.72,3.63-19.82-.3-3.81-.28-5.7a5,5,0,0,0-.61-2q2.81.22,5.6.6a586.52,586.52,0,0,1,74.58,15,1,1,0,0,1,.53.42,154.16,154.16,0,0,0-3.13,19.63c-.25,3.58-.59,7.17-1,10.75a.61.61,0,0,0-.62-.34.59.59,0,0,0-.5.42,12.65,12.65,0,0,1-3.07,5.07c-.83.84-1.66,1.71-2.49,2.62a20.18,20.18,0,0,1-1.75,1.71c-.84.72-1.46,1.29-1.86,1.7a125.29,125.29,0,0,1-14.55,12.83A175,175,0,0,1,323.7,285a120,120,0,0,1-14.64,4.34,149.25,149.25,0,0,1-26.24,3.05c-5.42.21-10.84.23-16.25.19s-10.92-.25-16.36-.65a136.76,136.76,0,0,1-40.42-8.86c-14.54-5.77-28.19-13-40.59-22.64a159.88,159.88,0,0,1-21.85-20.57,55.29,55.29,0,0,1-4.8-6.28,18.19,18.19,0,0,1-1.37-2.51,7.36,7.36,0,0,0-1.61-2.4q-.33-12.93-.72-20.43c-.06-1.21-.29-3.08-.7-5.63q12.6-3.09,25.4-5.58a379.54,379.54,0,0,1,42.85-6q8.46-.66,16.66-.76c.49,0,.7.23.62.73C221.44,204.65,225.12,216.94,233.59,227.74Z"/><path class="cls-8" d="M503.69,193.67a7.71,7.71,0,0,1-.24,3.28Z"/><path class="cls-7" d="M127,193.92c0,.17.07.3.37.39l-12.59,3.24a.15.15,0,0,1-.19-.12,0,0,0,0,1,0-.05l0-.41a.19.19,0,0,1,.16-.18Z"/><path d="M519.8,203.52l-1,9c-1.67,9.24-3.63,18.86-8,27.3a90.31,90.31,0,0,1-9.67,14.94,3.93,3.93,0,0,1-2.9,1.93q-5.6.38-11.38.68a.47.47,0,0,1-.48-.33,1,1,0,0,1,0-.77,214.07,214.07,0,0,0,10-25.72q2.85-9.51,4.47-16.94,1.28-5.91,2.39-15.32l.53-1.25a.48.48,0,0,1,.53-.32,2.54,2.54,0,0,1,1,.25,1.63,1.63,0,0,0,.73.16q4.33-.13,8,.11a8.48,8.48,0,0,0,2-.12,4.22,4.22,0,0,1,2.3.35,1.8,1.8,0,0,1,1.21,1.7C519.7,200.62,519.76,202.06,519.8,203.52Z"/><rect class="cls-7" x="416.38" y="194.15" width="0.61" height="11.72" rx="0.3" transform="translate(112.6 548.09) rotate(-74.5)"/><path d="M36.58,202.77a221,221,0,0,0,6,31.27,200.34,200.34,0,0,0,8.32,23.72.48.48,0,0,1-.26.62.52.52,0,0,1-.25,0,78.28,78.28,0,0,0-10.26-.87c-2.44,0-3.14-1.38-4.71-3.52a76.91,76.91,0,0,1-13.57-31.68,98.61,98.61,0,0,1-2.17-16.12l.21-4.92a1.73,1.73,0,0,1,1.75-1.66l13.3.12a.48.48,0,0,1,.49.32Z"/><path class="cls-1" d="M129,206q.53,7.32.35,14.61a31.43,31.43,0,0,1-1.12,7.66c-.37,1.36-1.11,3.58-2.86,3.53-4.93-.16-9.53-18.31-10.47-22.6a.35.35,0,0,1,.27-.45l1.33-.42,12-3.22a.34.34,0,0,1,.48.27A1.41,1.41,0,0,1,129,206Z"/><path d="M18.32,208.84h.4q.71,8.06,2,16a71.82,71.82,0,0,0,5.87,18.89.51.51,0,0,1-.25.68.55.55,0,0,1-.25,0c-2.9-.23-7.14.37-8.06-3.39v-26.3Z"/><path class="cls-1" d="M421.8,213.17a99.4,99.4,0,0,1-5.12,16.56,43.41,43.41,0,0,1-3.78,7.21,11.45,11.45,0,0,1-3,3.16,1.59,1.59,0,0,1-2.1-.21,6.6,6.6,0,0,1-1.52-2.85c-1.42-5.6-1.09-11.6-.39-17.51q.57-4.78,1.39-10.21A80.87,80.87,0,0,1,421.8,213.17Z"/><path d="M528.12,215.06c-.2,10.11-3.09,20.29-9.68,28.1-1.13,1.34-5,1-6.76,1.05-.72,0-.91-.32-.57-1a48,48,0,0,0,3-6.67,119.13,119.13,0,0,0,4.91-18.5,44.25,44.25,0,0,0,.66-5.12,2.07,2.07,0,0,1,.7-1.36.59.59,0,0,1,.62-.11,7.21,7.21,0,0,0,3.6.43.93.93,0,0,1,.65.12,1.62,1.62,0,0,0,1.82-.11.46.46,0,0,1,.73.33Z"/><path class="cls-4" d="M211.09,11.5a.46.46,0,0,0,.24.31.75.75,0,0,0,.37.08q12.28-.08,24.59-.19a8.91,8.91,0,0,0,1.52-.18,1.62,1.62,0,0,0,0,.23c0,.13.2.33.2.33h60.85a1,1,0,0,0,.19-.26,2.61,2.61,0,0,0-.12.26l17.64,0a1.4,1.4,0,0,0,.73.28q54.57-.13,116.5-.09a1.15,1.15,0,0,1,1.29,1.3q0,25.74-.13,51.86-.09,13.58.27,26.24a1,1,0,0,1-1,1h.87s-17.33.66-25.23.8a.32.32,0,0,0-.36.36,1.14,1.14,0,0,0,.18.64,8.68,8.68,0,0,0-4.93-1.23l-88.43-.12q-36.9,0-73.81,0l-28.17,0c-27.78,0-55.49,0-83.11.21H108.67c-.48,0-.79-.9-.79-.9h0V12.74c-.15-.48.23-.86.71-1.38h0c31.47.54,63.06.52,94.79.47,2.49,0,4.83.06,7,.19a.63.63,0,0,0,.59-.27A.64.64,0,0,0,211.09,11.5ZM321.32,52.73H303.7s-1,.4-1.13,1h0l.19,4a1.55,1.55,0,0,0,1.38,1.52l1.7.2a1.09,1.09,0,0,1,.93.79c.47,1.62.68,5.2-1.62,5.54q-5.38.81-6.78-4.66A31.41,31.41,0,0,1,298,49q1-6.95,7.09-6.17c3.87.49,5,4.59,5.72,7.73a1,1,0,0,0,1.11.79h4.6c.94.08,1-1.33,1-1.33V37.62s-.09-.83-.55-.58h0l-4.72-.16a1,1,0,0,0-.78.35,2.46,2.46,0,0,1-.84.57.87.87,0,0,1-.69,0c-8.83-3.54-20.59-1.31-24.87,8a19.6,19.6,0,0,0-.28,16.49,15,15,0,0,0,10.68,9.15,19.77,19.77,0,0,0,14.27-1.37,1.06,1.06,0,0,1,1.41.48,2.52,2.52,0,0,0,2.26,1.55l4.32,0c.43,0,.79-.34.51-.78h0V60.78c.41-.76.79-1.2,1.54-1.3l1.75-.25a1.61,1.61,0,0,0,1.37-1.41,13.66,13.66,0,0,0-.15-4C322.63,53.16,321.32,52.73,321.32,52.73ZM152.81,49.56l0-5a.81.81,0,0,1,.78-.8c2-.07,4.13-.08,6.26,0a3.54,3.54,0,0,1,3,1.35,14,14,0,0,1,2.27,7.11,1.18,1.18,0,0,0,1.32,1.2l3.81-.06a1,1,0,0,0,1.1-1.11l.1-14.41a.81.81,0,0,0-.8-.82h0l-34,0a1.39,1.39,0,0,0-1.38,1.21,17.26,17.26,0,0,0-.09,3.91,1.52,1.52,0,0,0,1.62,1.53l2.08.07a.94.94,0,0,1,1,1.06l.12,20a1.16,1.16,0,0,1-1,1.16l-2.18.22a1.64,1.64,0,0,0-1.46,1.35A10.37,10.37,0,0,0,135.6,72a.92.92,0,0,0,.88.68l19.35-.12a1.2,1.2,0,0,0,1.34-1.34l.08-3.65a1.33,1.33,0,0,0-1.55-1.53c-2,0-3-.45-3-1.5.1-2,.17-4.26.19-6.66,0-1.06.52-1.42,1.52-1.09l.26.09a2.17,2.17,0,0,1,1.6,2l.29,2.8a1,1,0,0,0,.1.39c.84,1.5,5,2,5-1q0-6.84.2-14.44A1.65,1.65,0,0,0,160.3,45l-2,0a1.64,1.64,0,0,0-1.88,1.81c-.07,2.39-1.1,3.53-3.08,3.44A.61.61,0,0,1,152.81,49.56Zm35.66,22.49a.46.46,0,0,0,.54.23,1.77,1.77,0,0,1,.69,0A26.31,26.31,0,0,0,201,71c4.09-1.38,6.93-4,7.15-8.62q.39-8,.22-16.84A1.81,1.81,0,0,1,210,43.64a27.68,27.68,0,0,1,5.54,0A1.59,1.59,0,0,1,217,45.25V63.94a1.4,1.4,0,0,1-1.3,1.35l-2.53.3a1.26,1.26,0,0,0-1.16,1.2L212,70.37A1.59,1.59,0,0,0,213.54,72h-.07l31.37,0a.68.68,0,0,0,.68-.68h0l0-13.45A1.64,1.64,0,0,0,243.73,56l-2.87-.18a1.81,1.81,0,0,0-1.93,1.79c-.05,3.07-1.08,7.39-4.84,7.68-1.43.11-2.8.2-4.12.28-.57,0-.85-.23-.85-.79l-.05-20a1,1,0,0,1,.83-1l2.57-.34a1,1,0,0,0,.88-.91,26.89,26.89,0,0,0,.18-3.94A1.34,1.34,0,0,0,232,37.12Q214.7,37,196.62,37a.92.92,0,0,0-1.05,1l-.11,3.63a1.58,1.58,0,0,0,1.75,1.83,5.15,5.15,0,0,1,2.86.85.91.91,0,0,1,.41.79q.08,7.91-.41,16.11a5.68,5.68,0,0,1-.37,1.69c-1.18,3-7.62,3.58-9.64,1.22a4.26,4.26,0,0,1-.95-2.46,30.7,30.7,0,0,1-.12-3.29q.13-6.54-.1-13a1.63,1.63,0,0,1,1.49-1.67l2.14-.2a1.2,1.2,0,0,0,1.06-1,20,20,0,0,0,.14-4.38A1.09,1.09,0,0,0,192.49,37h-18.7a.89.89,0,0,0-1,1l0,4.6a.82.82,0,0,0,1,.92l2.5-.13a.5.5,0,0,1,.49.29,4.53,4.53,0,0,1,.34,1.71q0,6.84-.14,13c-.1,3.26.2,5.62.88,7.08,1.34,2.84,4.93,5.94,8.54,6.15.54,0,1.09.07,1.63.13A.57.57,0,0,1,188.47,72.05Zm76.3-6.85,0-20.68a.74.74,0,0,1,.53-.76,4.59,4.59,0,0,1,2.18-.18A1.37,1.37,0,0,0,269,42.39a1.28,1.28,0,0,0,0-.19V38.14A1,1,0,0,0,268,37l-19-.12a1.2,1.2,0,0,0-1.36,1.21,24.55,24.55,0,0,0-.07,4.25,1.06,1.06,0,0,0,.95,1l2.53.23a1.47,1.47,0,0,1,1.36,1.48q-.13,8.4.11,18.14c.07,2.5-2.25,2.45-4,2.42a.81.81,0,0,0-.81.72,27.48,27.48,0,0,0-.13,4.86.85.85,0,0,0,.86.79l31.21,0a1.6,1.6,0,0,0,1.61-1.58h0l0-13.33A1.12,1.12,0,0,0,280.07,56l-4-.09a1.3,1.3,0,0,0-1.32,1.17c-.32,3.66-.52,7.75-5.15,8.28q-2.15.24-4.23.39A.46.46,0,0,1,264.77,65.2ZM395.25,50.77q-.08,6.16.14,13c.06,1.71-1,2.36-3.12,1.93q-1.57-.3-1.65,1.29l-.21,3.57c-.07,1.18,1.67,1.37,1.67,1.37l17.54-.17A1.19,1.19,0,0,0,411,70.5l.06-3.59a1.27,1.27,0,0,0-1.28-1.44l-2.37-.23a.83.83,0,0,1-.68-.54,4.52,4.52,0,0,1-.23-1.54c.14-6.06.66-12.09.2-18.23a1.36,1.36,0,0,1,.82-1.39,1.2,1.2,0,0,1,.49-.08l1.74,0a.89.89,0,0,0,.72-.35c1-1.4.87-4.18.7-5.83a1.08,1.08,0,0,0-1.08-1H391.19s-1.7,1.09-1.94,2.12q-2,8.44-4.63,16.37c-.23.69-.44.68-.62,0l-4.53-16.91a1,1,0,0,0-1.21-.85H344.33a.79.79,0,0,0-1,.71,11.68,11.68,0,0,0,0,4.89,1.18,1.18,0,0,0,1.42,1l1-.11a.78.78,0,0,1,.85.7.73.73,0,0,1-.11.48L343.29,50a.58.58,0,0,1-.8.19.61.61,0,0,1-.19-.2l-3.07-5.07a.83.83,0,0,1,.28-1.13.85.85,0,0,1,.39-.12l1.56-.07a.64.64,0,0,0,.69-.7l.09-5.11a.75.75,0,0,0-.73-.77,6,6,0,0,1,0-.64H322.43A7.76,7.76,0,0,0,321.12,38l0,4.11a1.33,1.33,0,0,0,1.33,1.35h0A4.65,4.65,0,0,1,326.59,46q2.93,4.85,5.82,9.28c1.92,2.94,2.14,6,1.66,9.37a1.1,1.1,0,0,1-1.06.95l-1.67,0a1.34,1.34,0,0,0-1.3,1.13,11,11,0,0,0,0,4.36,1.11,1.11,0,0,0,1.18.9h19s1.42-.19,1.39-1.15l-.14-3.58a1.27,1.27,0,0,0-1.38-1.37c-3.08-.11-3.6-1.09-3.43-3.92a12.12,12.12,0,0,1,1.49-5.84q3.6-5.29,7.21-10.8c1.27-1.93,4.38-1.83,6.35-1.8a1.24,1.24,0,0,1,1.39,1.37q0,9,0,19.38a1.31,1.31,0,0,1-1.23,1.31l-2.17.14a.74.74,0,0,0-.73.61,14.66,14.66,0,0,0-.32,4.8c0,.61.56,1.08,1.18,1.57h15.07c.72-.5,1.3-1.08,1.29-1.79a1.28,1.28,0,0,0,0-.19l-.65-4.37a.94.94,0,0,0-1.07-.79l-.17,0a2.48,2.48,0,0,1-2.95-.57,2.28,2.28,0,0,1-.31-.63V50.68s.44-1.06.83-.11a69.78,69.78,0,0,1,3,9.1c1,3.82,2.25,7.49,3.28,11.18A1.48,1.48,0,0,0,379.84,72h6.43a1.21,1.21,0,0,0,1.67-1c.78-2.69,1.32-5.4,2.21-8q2.12-6.26,4.2-12.35Q395.3,47.91,395.25,50.77Z"/></svg>