<svg id="Capa_1" data-name="Capa 1" xmlns="http://www.w3.org/2000/svg" viewBox="0 0 600 600"><defs><style>.cls-1{fill:#fff;}.cls-2{fill:#f7f7f7;}.cls-3{fill:#322a18;}.cls-4{fill:#ffc801;}.cls-5{fill:#9d9192;}.cls-6{fill:#fefee4;}.cls-7{fill:#1c1b1c;}.cls-8{fill:#afafaf;}.cls-9{fill:#69696a;}.cls-10{fill:#464646;}</style></defs><title>full-gym</title><path class="cls-1" d="M564.73,475.41a10.46,10.46,0,0,0-8-8.92s-.43-5.13-.56-5.68a11.39,11.39,0,0,0-2.64-5.21c-1.53-1.67-3.29-2.06-3.56-4.52s.15-5.25-.79-7.66a9.06,9.06,0,0,0-3.91-4.12c-1.51-.91-2.56-2.05-4.4-2.46-.48-.11-2.08,0-2.4-.25-.63-.55-.79-3.76-1-4.66a14.77,14.77,0,0,0-.56-2.2c-1.24-3.75-2.59-7.48-4-11.07a12.83,12.83,0,0,0-9.86-7.92c-3.47-.55-7.08-1.05-10.77-1.49l-3-8.3h-.43c-.78-1.64-1.61-3.25-2.54-4.81-.24-.4-.5-.78-.77-1.15a12.81,12.81,0,0,0-2.63-2.62,11.7,11.7,0,0,0-1.55-.95c-.26-.14-.56-.24-.82-.39s-.33-.35-.64-.4-.55-.05-.81-.13a12.1,12.1,0,0,0-1.48-.29c-1.9-.28-3.82-.58-5.78-.89-2.77-.44-5.51-.64-8.16-.83-1.8-.13-3.51-.26-5.17-.45a15.65,15.65,0,0,0-1.91-.1h-.8a9.47,9.47,0,0,0-4.37.24l-.81.05-.54.42a10.18,10.18,0,0,0-2,1.18,16.91,16.91,0,0,0-6-1.12c-.28,0-.55,0-.82,0l.19-.19a16.63,16.63,0,0,1,7.35-4.73,10.74,10.74,0,0,1,3.69-.58,34.63,34.63,0,0,1,7.59,1.16c11.74,2.8,23.69,5.17,35.47,7l.85.14h.81a10.33,10.33,0,0,0,10.17-8.52l0-.13a10.36,10.36,0,0,0-2.37-8.46l-.22-.25q-13.38-14.61-26.8-29.3l26.61-30.27c4.62-5.25,2.83-10.41,2.17-11.87a10.49,10.49,0,0,0-9.74-6.11,14.47,14.47,0,0,0-2.15.17,5.61,5.61,0,0,1-.6,0l-42.26,0c0-6.36,0-12.7,0-18.95a11.08,11.08,0,0,0-11.29-11.3H427.88c-27.16,0-53.49,0-78.37.08a120,120,0,0,1-4.45-20c-.93-6.61,1.18-9.46,3.13-11.22a11.15,11.15,0,0,0,3.26-5.23,19,19,0,0,0,5.84-8c8,2.95,16.24,5.7,24.56,8.21a17.29,17.29,0,0,0,5,.75c6.49,0,17.54-3.67,18.6-28.29a195.08,195.08,0,0,0-1.8-37.74,108.43,108.43,0,0,0,23.54-15.83,12.51,12.51,0,0,0,2.92-3.65q2.7-.88,5.3-2c5.1-2.17,8.95-6.33,11.28-9.43,4.77-6.34,4.77-14.31,0-21.31a15.24,15.24,0,0,0-1.35-1.71,35.74,35.74,0,0,0-5.75-16.36A85.81,85.81,0,0,0,425.5,79.11a156.69,156.69,0,0,0-32-22.08c-9.33-4.85-17-8.78-22.73-11.66a17.44,17.44,0,0,0-7.5-2l-.64,0c-1.57,0-3.18-.09-4.84-.09-1.35,0-2.58,0-3.75.1-2.87.17-5.71.26-8.41.28a14.25,14.25,0,0,0-11.26,5.71c-1.9,2.47-3.86,5.29-5.83,8.41a13.77,13.77,0,0,1-2.1,2.63,11.66,11.66,0,0,0-1.73,2.07c-.14-1.07-.32-2.16-.56-3.26a31.84,31.84,0,0,0-1.48-5C317.79,41.52,304.28,33,289,33a33.89,33.89,0,0,0-17.61,4.7c-8.58,5.2-13.49,14.14-15.52,23.53a21.09,21.09,0,0,0-1.63-3.07c-1.49-2.31-3.22-4.75-5.17-7.26a19.37,19.37,0,0,0-16.26-7.83c-.46,0-.93,0-1.43,0-2.4.11-4.68.16-6.78.16-1.6,0-3.13,0-4.56-.09-.52,0-1,0-1.52,0a24.72,24.72,0,0,0-18.31,7.4,8.4,8.4,0,0,1-2.75,2.18,104.15,104.15,0,0,0-17.62,8.48q-4.41,2.81-8.8,5.55a112.69,112.69,0,0,0-19,15c-.63.63-1.26,1.26-1.88,1.91l-4.3,4.52c-6,6.28-9.57,13.09-10.94,20.82-.12.67-.21,1.35-.29,2l0,.3c-4.6,6.27-5.1,13.58-1.35,20.22a27.71,27.71,0,0,0,12.14,11.54,62.23,62.23,0,0,0,6,2.55,10.92,10.92,0,0,0,1.8,2.76,65.73,65.73,0,0,0,43.44,22,42.81,42.81,0,0,0,4.34.23,36.18,36.18,0,0,0,9.15-1.14c3.94,16.41,10.36,30.65,19.12,42.44a20.37,20.37,0,0,1,4.41,10.31,152.76,152.76,0,0,1,2,20.31c0,2.44-.15,5.26-.45,8.4a24.14,24.14,0,0,1-1,5.14q-1.78,5.58-3.39,10.1h-.4l-24.36,0c-19.3,0-44.73-.06-70.24-.49l-4.64.06-3,3.25a11.26,11.26,0,0,0-3.27,8.67V293.6l-45-.08A10.57,10.57,0,0,0,72,311.09L98.7,341.45c-8.35,9.17-16.74,18.32-25,27.27a21.84,21.84,0,0,0-3.31,4.69,10.12,10.12,0,0,0,9,14.9,10.65,10.65,0,0,0,1.84-.16q9.28-1.63,18.51-3.53,4.47-.92,8.91-1.88l4.45-1c1.29-.29,2.5-.72,3.81-1a8.5,8.5,0,0,1,.88-.15c.35,0,.71,0,1.06,0a17.53,17.53,0,0,0,1.71-.5,7.66,7.66,0,0,1,1.59-.17l3.5-.11a4,4,0,0,1,.91,0,4.06,4.06,0,0,1,1,.36l2.37,1.06a3.94,3.94,0,0,1,1.12.66,4.16,4.16,0,0,1,.87,1.37.41.41,0,0,1,0,.4.41.41,0,0,1-.17.12,6.75,6.75,0,0,1-1.89.43,14.16,14.16,0,0,0-3.43,1,11.76,11.76,0,0,1-1.52.61,8.84,8.84,0,0,1-2.4.26c-1,0-2.09.09-3.13.06a14.83,14.83,0,0,0-2.88.36q-3,.51-6.08,1.14c-1.64.34-3.28.61-4.87.79-2,.24-4,.49-6,.77a13.44,13.44,0,0,0-9.88,6.05l-.05.09-.89-.12-2.85,7.17-2.5,5.89h-.08a1.85,1.85,0,0,1-.3,0h-.14c-.57,0-1.13,0-1.71,0a41.34,41.34,0,0,0-9.48,1.15,13.09,13.09,0,0,0-8.4,6.44c0,.07-.06.12-.1.18L62,416l-2.25,7.16L58.32,427l-.08,0-.07.36-2.56,6.9c-1,.11-2,.26-3,.46a15.69,15.69,0,0,0-6.78,3.1,16.57,16.57,0,0,0-4.47,5.67c-.32.65-.6,1.31-.89,2H40.4l-.14.54c-.5,1.16-1,2.32-1.37,3.5a10.82,10.82,0,0,0-1.35,3.92,32.25,32.25,0,0,0-1.42,9.32h-.28L35,478.89v2l-.15,2.15H35v23.6l.29,1.18c1.68,6.82,6.85,10.48,15.35,10.9q1.76,2.82,3.73,5.54l.39.53c1.62,2.25,5,7,12.2,7.07a71.07,71.07,0,0,1,8.34.67c1.48,2.51,3,4.88,4.5,7.08a12,12,0,0,0,10,5.33,12.41,12.41,0,0,0,1.63-.1c6.63-.84,12.49-1.56,17.43-2.12q2.5,3.45,5.23,6.79a11.55,11.55,0,0,0,9,4.26,11.9,11.9,0,0,0,3.41-.51c5.5-1.7,11.41-3.32,17.56-4.82,1.38-.34,2.74-.74,4-1.19a10.88,10.88,0,0,0,3.86-2.34,16.87,16.87,0,0,0,6.19-1.27c9.28-3.84,13-14.61,14.94-22.38.25-1,.48-2,.7-3-.17.79,4.91,4.76,5.62,5.41,2,1.82,4,3.6,6.07,5.32q6.18,5.16,12.82,9.69c19.14,13,40.41,22.14,63.35,25.46,20.56,3,42.37,4,63,1.26l3-.43c7.37-1.12,14.87-2.27,21.95-4.71,5.61-1.93,10.81-3.88,15.47-5.8a170,170,0,0,0,36.82-20.91,128.43,128.43,0,0,0,10-8.33c.26,1.44.54,2.9.9,4.41,2.68,11.21,10.13,18.46,19,18.46a17.14,17.14,0,0,0,3.95-.48,10.52,10.52,0,0,0,6.4,2.21h.13a9.69,9.69,0,0,1,1.3.09c7.22,1,14.62,2.14,22,3.32a12,12,0,0,0,1.89.15,11.9,11.9,0,0,0,9.27-4.54l.09-.1c1.81-2.07,3.55-4.18,5.24-6.32l17.27,3.4a11.67,11.67,0,0,0,2.28.22,11.44,11.44,0,0,0,9.1-4.51c2.43-3.18,4.71-6.51,6.85-10l8.34-.5a13.85,13.85,0,0,0,10.13-5.72q2.63-3.33,4.93-6.77c2.67,0,8.35-.15,12.1-4.62,7.62-9,11.78-20.91,12-34.36l0-.66ZM328.45,90.47a48.15,48.15,0,0,0,.2-9.11l.8,1.23a10.82,10.82,0,0,0,8.13,4.83l.63,0A12.45,12.45,0,0,0,346.92,91h.3a55.31,55.31,0,0,0,8.82-.73A10.29,10.29,0,0,0,361,88a10,10,0,0,0,1.06-.47c2.05-1,4.1-2.15,6.13-3.33a48,48,0,0,1,9.3,13,37.15,37.15,0,0,0-14.69,4.4,8.84,8.84,0,0,0-.88-.25A54.57,54.57,0,0,0,349,99.71a40.67,40.67,0,0,0-4.71.27,31.06,31.06,0,0,0-15.61-9.07l-.32-.08C328.42,90.71,328.43,90.59,328.45,90.47Zm-95.66,10.77a76.36,76.36,0,0,0-10.09.7l-2.9.4a33.41,33.41,0,0,0-14.53-4.71c-.63-.07-1.26-.12-1.9-.15a38.9,38.9,0,0,1,9.33-13.21,36,36,0,0,0,7.55,3.61,13.14,13.14,0,0,0,6.61,2.79,41.66,41.66,0,0,0,5.28.35c.88,0,1.76,0,2.61-.09a12.47,12.47,0,0,0,7.82-3.45,11.83,11.83,0,0,0,8.56-3.77l.14-.15c0,8.94,3.44,13.77,6.82,16.36a45.49,45.49,0,0,0,2.18,7.06l-.22.16-1.36.83a34.23,34.23,0,0,0-5-2.7A53,53,0,0,0,232.79,101.24Z"/><path d="M159.12,86.86a102.83,102.83,0,0,1,17.27-13.62q4.4-2.74,8.84-5.57a94.86,94.86,0,0,1,16-7.65,17.91,17.91,0,0,0,6.07-4.36c3.41-3.4,7.28-4.69,12.34-4.47q5.43.24,12.24-.07c4-.18,6.78.65,9.34,3.94q2.64,3.4,4.64,6.52c3.07,4.78,1.49,9.53-2,13.32a1.81,1.81,0,0,1-1.6.56c-.57-.08-1.12-.18-1.67-.3-3.84-.79-3.57,3.59-6.49,3.79a29.05,29.05,0,0,1-5.92-.2c-2.5-.33-2.84-2.4-1.17-4A17.78,17.78,0,0,0,228.54,73a1.21,1.21,0,0,1,.93-.48q4.68-.12,8.83-.12c2,0,3.15-1.89,4.16-3.42a3.11,3.11,0,0,0,0-3.89,42,42,0,0,0-5.37-5.63.27.27,0,0,0-.42,0l-.15.13a0,0,0,0,0,0,.07q2.31,3,4.77,5.64a3.14,3.14,0,0,1,.61,3.47c-1.06,2-2.83,2.77-5.29,2.47a.7.7,0,0,1-.6-.78.85.85,0,0,1,.14-.34,3.77,3.77,0,0,0,.45-4.59,9.87,9.87,0,0,0-1.87-2.47q-.4-.34-.21.15a4.41,4.41,0,0,0,.79,1.32c2,2.31.89,4.77-1.22,6.34a1.22,1.22,0,0,1-.74.25H229a.67.67,0,0,1-.67-.67.59.59,0,0,1,.1-.34,12.5,12.5,0,0,1,2-2.56,1.26,1.26,0,0,0,.18-1.59,25.56,25.56,0,0,0-3.81-4.56c-.48-.44-.55-.38-.23.18.76,1.33,1.59,2.63,2.47,3.91a2.08,2.08,0,0,1-.09,2.64c-1.22,1.67-3.57,3.64-5.65,2.58a16.86,16.86,0,0,1-2.09-1.22,1.55,1.55,0,0,1-.47-2c.82-1.63-1.73-4.06-2.75-5.22a.13.13,0,0,0-.21,0l-.25.17s0,0,0,.07a21,21,0,0,0,1.72,3.27.76.76,0,0,1-.22,1.05l-.1,0a26,26,0,0,0-6.24,4,.94.94,0,0,1-1.19,0l-4.24-3.34a.16.16,0,0,0-.23,0l-.18.26a.27.27,0,0,0,0,.35A13.44,13.44,0,0,0,209.52,71a.66.66,0,0,1,.11.93.6.6,0,0,1-.21.18,11.56,11.56,0,0,0-1.86,1.29Q194.24,84.85,190.68,103a1.5,1.5,0,0,1-.89,1.09q-9.25,3.84-10.33,14.17a.08.08,0,0,0,0,.07c.07,0,.08,0,0,0a.06.06,0,0,1,0,0q1.69-9.74,11.88-11.83a42.64,42.64,0,0,1,12.85-.86,23,23,0,0,1,10.88,3.66,23.47,23.47,0,0,1,8.08,9c.22.47.33.44.33-.08,0-2.83-1.61-5-3.42-7.11a.46.46,0,0,1,0-.63.43.43,0,0,1,.22-.09l3.64-.51c8.84-1.18,17.63-.85,25.72,2.62,5.2,2.23,9.81,7,14.54,10.57a12.68,12.68,0,0,0,2.55,1.51.38.38,0,0,0,.5-.21,2,2,0,0,0-.82-2.38c-1.65-1.23-5.72-4.24-3.88-6.52a13.57,13.57,0,0,1,2.51-1.7c3.21-1.91,7.08-6.7,5.17-10.74a35.13,35.13,0,0,1-3.11-11.07.79.79,0,0,0-.45-.62l-1.42-.63c-4.55-2-4.35-8.82-3.8-13.12a2.32,2.32,0,0,1,2.82-2.32.66.66,0,0,0,.71-.6v-.13c-1.35-10.69,1.72-24.28,11.54-30.24,11.94-7.25,31.57-1.89,36.71,11.47a22.63,22.63,0,0,1,1,3.5,47.17,47.17,0,0,1,.85,9.27c0,2.14-.58,4.86,1.44,6.22,2.72,1.82,2.18,9.7,1.86,12.67-.24,2.19-2.91,3.09-4.75,3.55a.77.77,0,0,0-.58.74l0,4.43a.6.6,0,0,0,.56.6,74.27,74.27,0,0,1,12.68,1.91,21.1,21.1,0,0,1,13.32,9.66,1.16,1.16,0,0,0,1.3.51c6.44-1.78,12.23-1.17,18.56.34a.8.8,0,0,1,.6,1,1,1,0,0,1,0,.16,56.82,56.82,0,0,0-2.67,6.78q-.76,2.37.58.27c6.37-10,18.42-14.19,29.77-11.33a18.11,18.11,0,0,1,11.49,8.68,26.58,26.58,0,0,1,1.68,4.43c.28.77.4.75.36-.07-.37-6.89-3.94-11.6-9.72-15.14a2,2,0,0,1-.87-1.19,59,59,0,0,0-18.8-30.62.86.86,0,0,1-.27-.93,8.88,8.88,0,0,1,1-2,.32.32,0,0,0,0-.27.06.06,0,0,0,0-.06.36.36,0,0,0-.51,0c-1,1-1.75,2.21-3.45,1.5a32.61,32.61,0,0,1-6.32-3.55,1.57,1.57,0,0,1-.47-2,4.47,4.47,0,0,0,.55-1.18c.12-1.11-.13-1.21-.76-.28A13.62,13.62,0,0,1,359,66.27a.52.52,0,0,0-.09.74,4.54,4.54,0,0,0,2.71,1.81,3.81,3.81,0,0,1,1.88.8,13.43,13.43,0,0,0,2.85,1.72c.42.18.43.47,0,.69-.73.4-1.47.49-2.27,1-2.17,1.3-4.38,2.51-6.61,3.64a.66.66,0,0,1-.88-.29.64.64,0,0,1-.06-.18,6,6,0,0,0-2.71-4,.49.49,0,0,1-.2-.61.82.82,0,0,1,.94-.61,10,10,0,0,0,5.65-1.11s0,0,0-.1l-.06-.18a.08.08,0,0,0-.12-.05c-3.46,1.41-6.72,1.87-8.42-2-1.14-2.62,1.24-4.56,2.36-6.71a.13.13,0,0,0-.05-.19l-.15-.1s0,0-.06,0c-2.38,3-5.37,5.89-3.06,10.08a.33.33,0,0,1-.13.45l-.08,0c-2.24.53-3.85-.06-4.85-1.77-.57-1-1.27-2.13-.76-3.3a30.48,30.48,0,0,1,1.76-3.34.16.16,0,0,0,0-.23.19.19,0,0,0-.27,0c-1.91,2-3.84,4.5-2.18,7.47.43.76.08,1.48-.79,1.49a2.89,2.89,0,0,1-1.09-.2,5.07,5.07,0,0,1-2.65-2.38c-.87-1.65-.57-3.42.89-5.28.46-.59.35-.74-.34-.44a1.81,1.81,0,0,0-1,1c-.74,1.63-1.76,2.29-.76,4.26.9,1.79,1.76,4,4.14,4s4.8.15,7.14.32c3.13.23,4.82,2,5,5.3a.44.44,0,0,1-.36.46A47.12,47.12,0,0,1,347,79c-3.37,0-2.66-5.09-6.93-3.71a4.22,4.22,0,0,1-1.63.17.76.76,0,0,1-.62-.37l-4.74-7.23a1.78,1.78,0,0,1,.25-2.26A23.57,23.57,0,0,0,337,61.05q2.72-4.29,5.3-7.64a4.34,4.34,0,0,1,3.38-1.81q4.36,0,8.95-.3c2.76-.16,5.54-.06,8.34,0a7.88,7.88,0,0,1,3.29,1q8.65,4.35,22.63,11.61a146.18,146.18,0,0,1,30,20.68,75.68,75.68,0,0,1,12.47,13.91c3.06,4.51,3.92,9.29,4.37,14.66a1.57,1.57,0,0,0,.3.81c.73.93,1.76,1.61,2.42,2.59q3.58,5.28.27,9.69c-1.86,2.47-4.42,5.06-7.21,6.24a61.52,61.52,0,0,1-25.73,4.7.81.81,0,0,0-.61.23.34.34,0,0,0,0,.48.37.37,0,0,0,.17.1,15.33,15.33,0,0,0,2.92.41q5.31.21,11.84.06c1.41,0,1.59.42.52,1.35a97.33,97.33,0,0,1-27,16.95,1.5,1.5,0,0,0-.89,1.66,179.67,179.67,0,0,1,2.78,42.05c-.23,5.3-1.39,21.2-10.7,18.38-12.88-3.88-25.67-8.41-37.69-13.35a.26.26,0,0,0-.34.3c.67,2.82,2.14,6.19,1.72,9-.55,3.64-2.74,5.49-5.67,7.26a.92.92,0,0,0-.45.65l-.46,2.65a1.09,1.09,0,0,1-.36.64q-8.13,7.31-6.33,20a117.28,117.28,0,0,0,7.28,28.39l-16.71,0q-2.1-5.13-4.05-10.38a22.6,22.6,0,0,1-.82-14,6.1,6.1,0,0,1,.8-1.81q7.83-11.82,15.21-24.67a.31.31,0,0,0-.3-.47,8,8,0,0,1-8.64-5.06c-.39-.85-.18-1,.64-.59a12.7,12.7,0,0,0,9,1.36c2.41-.47,8.06-4.56,6.09-7.74-5.46-8.83-9.85-16.67-12.8-26.54a26.47,26.47,0,0,1-1.06-5.24,1,1,0,0,1,0-.17.36.36,0,0,1,.15-.26c.17-.11.28-.06.33.13,1.87,6.89,6.68,16.86,13.45,20.38a82,82,0,0,0,7.85,3.8q13.85,5.45,27.63,9.46,3.62,1,7.3,1.77c2.11.42,2.89-1.94,3.2-3.52a76.91,76.91,0,0,0,1.42-16.89q-.32-11.75-1.3-24.32a100.81,100.81,0,0,0-2.09-14.91A60,60,0,0,1,386,138.69a13.2,13.2,0,0,0-.77-4c-.74-2.59,1.34-3.17,3-4.24a5.68,5.68,0,0,0,2.29-2.89A10.39,10.39,0,0,0,388,115.7,13.3,13.3,0,0,0,374,112c-4.31,1.23-6.39,5.72-6.74,9.75a.54.54,0,0,0,.49.59.48.48,0,0,0,.31-.07q2.58-1.42,5.12-2.57a4.91,4.91,0,0,1,6.06,1.36,5.44,5.44,0,0,1,1.61,3.57c0,.72-.17.79-.58.2-1.9-2.65-3.21-5.77-7.24-3.79-1.27.63-2.54,1.25-3.82,1.85a9.35,9.35,0,0,0-5.55,8.12.78.78,0,0,0,.87,1c2.14,0,4.54-.35,6.5.69a14.27,14.27,0,0,1,4.06,3.21.25.25,0,0,1,0,.35.24.24,0,0,1-.11.06,1.3,1.3,0,0,1-.8-.11c-2-1-3.46-2.29-5.71-2.64a7.5,7.5,0,0,0-6.2,1.34,12.48,12.48,0,0,0-4.64,9.62c-.16,4.47,2.15,7.76,5.58,10.29a7.73,7.73,0,0,0,3.14,1.36q9.87,2,14.42-6.62,1.37-2.58.77.28a11.55,11.55,0,0,1-4.39,6.52,2.6,2.6,0,0,0-1.09,2.27,44.84,44.84,0,0,1,.87,6.76q-.15,14.44-.84,27.23-.18,3.28,0,7.85c0,.3-.12.4-.41.3a.93.93,0,0,1-.63-.71q-.63-2.47-1.18-5.17a3,3,0,0,0-2.38-2.56,29.48,29.48,0,0,1-8.7-3.33A97.63,97.63,0,0,1,344,174.48c-3.93-3.89-7.95-8-13.72-8.88a63.15,63.15,0,0,0-9.17-.66c-1.85,0-3.21-3.48-4.08-4.85a14,14,0,0,1-1.56-3c-.4-1.31.07-2.54,1.39-3.68a.81.81,0,0,1,1.06,0c2.56,2.27,5.13,3,8.74,3.69a5.3,5.3,0,0,0,3.52-.53c2.92-1.52,2.21-4.49.61-6.67-.47-.63-.34-1.11.38-1.42l2.49-1.06a.45.45,0,0,0,.28-.62l-.56-1.79a.73.73,0,0,1,.48-.92l.08,0a2.76,2.76,0,0,0,1.3-.63.73.73,0,0,0,.25-.5l.11-1.47a.69.69,0,0,1,.59-.62l2.26-.27a.81.81,0,0,0,.7-.9.79.79,0,0,0-.06-.22A54.5,54.5,0,0,0,335.8,133a8.78,8.78,0,0,1-1.1-3.69.69.69,0,0,1,.64-.74h.1a17.45,17.45,0,0,0,4.36-.24.64.64,0,0,0,.4-.24.68.68,0,0,0,.05-.86,1.36,1.36,0,0,0-.85-.56c-1.07-.25-2.1-.48-3.11-.67a.47.47,0,0,1-.37-.55v0c1.06-3.68,2.24-7.13-.69-10.35a1,1,0,0,1-.25-.81c.29-2.29.89-4.13-1-5.83a28.17,28.17,0,0,0-19.19-7.25,13.76,13.76,0,0,0-5.69,1.07A26,26,0,0,0,304,105.2a41.25,41.25,0,0,0-3.29,3.32c-.76.71-.93.59-.51-.37.62-1.38,2.63-4,1.93-5.54q-5.13-11.33-17.46-9a7.43,7.43,0,0,0-4.79,2.86,31.71,31.71,0,0,0-6,13.22c-1.31,6.69-1.72,13.75-2.65,20a31.5,31.5,0,0,1-2.25,7.9c-1.46,3.41-5.71,7.49-9.78,7.75-3.56.22-6.21-1.73-8.55-4.21-.45-.48-.65-.39-.61.27.35,4.28,2.2,11,6.89,12.21,6.08,1.58,12.66-1,17.14-5.1.86-.79,1.2-.61,1,.55a4.87,4.87,0,0,1-.64,1.22,20.09,20.09,0,0,1-4.63,5c-1.12.87-2.56,1.32-3.77,2.09-.42.27-.38.4.12.4a22.46,22.46,0,0,0,6.35-.9c5.17-1.52,8.63-8.49,10.22-13.4a.41.41,0,0,1,.51-.31l.19,0a.31.31,0,0,1,.25.31c-.09,2-.73,3.25.87,4.89,2.58,2.65,2.63,6.33.88,9.55-.06.1,0,.16.08.17l.33.05a.18.18,0,0,0,.15-.06,12.63,12.63,0,0,0,3.09-7.21,92.74,92.74,0,0,0,.36-15.94c-.37-5.53-.12-11-.87-16.55a4.85,4.85,0,0,1,1.45-4.51c2.82-2.55,5.27.61,4.35,3.56-.59,1.87-1.56,3.43-1.78,5.48a33,33,0,0,0,1.15,12.91c1.09,3.77,2,6.09,5.8,7.83,3.35,1.53,2.44,9,1.86,11.89-1,5.09-10.32,6.77-14.6,6.36-4-.39-8-.69-12.12-.9a23.37,23.37,0,0,0-10.35,2c-1.55.66-1.65,1.81-2,3.21q-8.22,35.57-10,46.33a22.45,22.45,0,0,0,2.84,15.94q10.6,17.29,21.16,34.49a3.58,3.58,0,0,1,.53,1.55.08.08,0,0,1-.08.11l-.2,0a.21.21,0,0,1-.24-.14,8.16,8.16,0,0,0-1.43-2.48,1.33,1.33,0,0,0-2.22-.05c-3.32,3.4-5.43,8-8.08,12.17a7.85,7.85,0,0,1-1.52.17q-12.29.12-24.58.2a.75.75,0,0,1-.37-.08.46.46,0,0,1-.24-.32,14,14,0,0,1,.62-2.22q2.34-6.19,5.13-14.91a34.09,34.09,0,0,0,1.47-7.23c.34-3.48.5-6.61.5-9.39a160.45,160.45,0,0,0-2.09-21.75,30.4,30.4,0,0,0-6.27-14.8c-10.41-14-16.47-31.1-19.43-48.6a1.32,1.32,0,0,1,.77-1.42,18.48,18.48,0,0,0,7.45-6.41.45.45,0,0,1,.62-.11.43.43,0,0,1,.18.24c1.63,5.42,3,11,4.79,16.2q1.53,4.36,3,8.78a59.29,59.29,0,0,0,10.68,19.63,24.55,24.55,0,0,0,3.61,3.53c.53.43.7.31.49-.34a16.08,16.08,0,0,0-1.89-3.22,117.84,117.84,0,0,1-13.31-33.72,130.1,130.1,0,0,0-6-19,36,36,0,0,0-2-4.22.42.42,0,0,0-.56-.17.39.39,0,0,0-.1.08,16.12,16.12,0,0,1-11.29,5.34c-7.3.34-13.9-1-21-2.79a81.27,81.27,0,0,1-10-3.3c-1.89-.75-2-.51-.41.72,5.3,4,12.39,5.73,18.82,6.47a104.41,104.41,0,0,0,23,.2.86.86,0,0,1,.81,1.32c-6.62,10.31-15.16,16.57-27.91,15.24a55.71,55.71,0,0,1-37-18.74.49.49,0,0,1,.34-.81,101.17,101.17,0,0,0,11.87-1.12s0,0,0,0v-.18a.19.19,0,0,0-.2-.19,51.48,51.48,0,0,1-22.83-5.24,17.82,17.82,0,0,1-7.83-7.48c-2-3.54-1.37-6.85,1.11-9.92,1.45-1.8,1.32-3.82,1.7-5.93a30,30,0,0,1,8.33-15.68l4.3-4.52C158,88,158.55,87.43,159.12,86.86ZM344.9,159.69c-1.8,4-2.29,7.61,1.13,11a1,1,0,0,0,1.57-.22,8.94,8.94,0,0,0,1-2.48q1.77-7.32,3.89-14.19a20.41,20.41,0,0,0,.86-5.18,63.91,63.91,0,0,1,2.23-14.13.52.52,0,0,0-.35-.64h-.08a.85.85,0,0,0-.82.38c-.14.19-.3.38-.45.56-3,3.48-4.63,6.86-5,10.15A50.62,50.62,0,0,1,344.9,159.69Zm13.64,12.36c-1.23,2.34-3.55,6.22-.61,8.2a78.23,78.23,0,0,0,11.33,6.2,6.61,6.61,0,0,0,3.13.54.76.76,0,0,0,.71-.65,9.79,9.79,0,0,0,0-2.7,63.55,63.55,0,0,1,.17-17.89,11.66,11.66,0,0,0-.31-5.06,1.24,1.24,0,0,0-.93-.83,86.6,86.6,0,0,0-9.46-1.46,1.65,1.65,0,0,0-2.07,1.81C360.39,164.23,360.48,168.39,358.54,172.05Z"/><path d="M222.84,70.82a12,12,0,0,0,4.47.88,0,0,0,0,1,0,0v0q-1,1.53-3,4.77a.23.23,0,0,1-.26.09c-3.77-1.16-5.91-2.76-8.87-4.54a.58.58,0,0,1-.2-.8.22.22,0,0,1,.07-.09,14.19,14.19,0,0,1,3.47-2.81,1.09,1.09,0,0,1,1.39.29A6.72,6.72,0,0,0,222.84,70.82Z"/><path class="cls-2" d="M325.92,274.15c.13,0,.17,0,.12.13a.18.18,0,0,1-.19.14l-60.85,0a.18.18,0,0,1-.2-.2,1.48,1.48,0,0,1,0-.22c2.65-4.13,4.75-8.77,8.08-12.17a1.32,1.32,0,0,1,2.21.06,7.81,7.81,0,0,1,1.44,2.47.2.2,0,0,0,.24.14l.19-.05c.07,0,.1,0,.09-.11a3.71,3.71,0,0,0-.53-1.55Q266,245.6,255.36,228.31a22.48,22.48,0,0,1-2.84-15.93q1.8-10.75,10-46.29c.33-1.4.43-2.55,2-3.2a23.4,23.4,0,0,1,10.36-2q6.15.33,12.11.9c4.29.42,13.58-1.26,14.61-6.35.58-2.85,1.49-10.35-1.86-11.88-3.8-1.74-4.71-4.06-5.81-7.83a33.09,33.09,0,0,1-1.14-12.9c.22-2.05,1.19-3.6,1.78-5.47.92-2.95-1.53-6.1-4.35-3.56a4.83,4.83,0,0,0-1.45,4.51c.75,5.52.49,11,.87,16.54a93.51,93.51,0,0,1-.36,15.92,12.7,12.7,0,0,1-3.09,7.21.18.18,0,0,1-.16.05l-.32,0c-.11,0-.14-.07-.08-.17,1.74-3.22,1.69-6.9-.88-9.54-1.6-1.64-1-2.88-.87-4.89a.31.31,0,0,0-.25-.31l-.19,0a.41.41,0,0,0-.51.31c-1.59,4.91-5.05,11.87-10.23,13.39a22.74,22.74,0,0,1-6.34.89c-.5,0-.54-.13-.13-.39,1.21-.77,2.66-1.22,3.78-2.09a20.41,20.41,0,0,0,4.63-5,5.46,5.46,0,0,0,.64-1.23c.17-1.15-.18-1.33-1-.55-4.48,4.07-11.06,6.68-17.14,5.1-4.69-1.22-6.54-7.92-6.88-12.2q-.08-1,.6-.27c2.34,2.48,5,4.43,8.55,4.21,4.07-.26,8.33-4.34,9.79-7.75a31,31,0,0,0,2.24-7.89c.93-6.22,1.35-13.28,2.66-20a31.38,31.38,0,0,1,6-13.2,7.41,7.41,0,0,1,4.79-2.86q12.33-2.34,17.46,9c.7,1.52-1.31,4.16-1.93,5.54-.42,1-.25,1.08.51.36a42.82,42.82,0,0,1,3.29-3.31,27.06,27.06,0,0,1,5.11-2.94,13.76,13.76,0,0,1,5.69-1.06,28.2,28.2,0,0,1,19.2,7.23c1.92,1.71,1.33,3.55,1,5.83a1,1,0,0,0,.25.81c2.93,3.22,1.75,6.66.7,10.34a.48.48,0,0,0,.33.59h0c1,.19,2,.41,3.11.66a1.42,1.42,0,0,1,.86.56.67.67,0,0,1-.06.86.64.64,0,0,1-.4.24,17.45,17.45,0,0,1-4.36.24.68.68,0,0,0-.73.64v.1a8.76,8.76,0,0,0,1.09,3.69,50.8,50.8,0,0,1,3.24,6.42.8.8,0,0,1-.42,1.06.79.79,0,0,1-.22.06l-2.25.27a.67.67,0,0,0-.59.62l-.12,1.46a.7.7,0,0,1-.25.51,2.73,2.73,0,0,1-1.29.63.74.74,0,0,0-.59.86s0,.05,0,.08l.57,1.78a.45.45,0,0,1-.29.62l-2.48,1.07c-.72.31-.85.78-.39,1.42,1.61,2.17,2.31,5.14-.61,6.66a5.36,5.36,0,0,1-3.52.53c-3.6-.65-6.18-1.43-8.74-3.69a.81.81,0,0,0-1.06,0q-2,1.71-1.39,3.68a14.18,14.18,0,0,0,1.57,3c.87,1.37,2.22,4.84,4.08,4.84a63.35,63.35,0,0,1,9.17.66c5.76.83,9.79,5,13.71,8.87a97.66,97.66,0,0,0,18.74,14.46,29.48,29.48,0,0,0,8.7,3.33A3,3,0,0,1,374,194.6q.56,2.7,1.18,5.16a1,1,0,0,0,.63.72c.29.1.42,0,.41-.31q-.15-4.56,0-7.84.69-12.77.84-27.2a44.8,44.8,0,0,0-.87-6.77,2.58,2.58,0,0,1,1.1-2.26,11.59,11.59,0,0,0,4.38-6.51q.6-2.86-.77-.28-4.56,8.56-14.42,6.61a7.73,7.73,0,0,1-3.14-1.36c-3.43-2.53-5.74-5.82-5.58-10.28a12.45,12.45,0,0,1,4.64-9.61,7.54,7.54,0,0,1,6.2-1.35c2.25.35,3.76,1.67,5.71,2.64a1.23,1.23,0,0,0,.8.11.25.25,0,0,0,.19-.3.54.54,0,0,0,0-.11,14.63,14.63,0,0,0-4.06-3.21c-2-1-4.36-.64-6.51-.68a.79.79,0,0,1-.87-1,9.36,9.36,0,0,1,5.56-8.11c1.28-.61,2.55-1.22,3.82-1.85,4-2,5.34,1.14,7.24,3.79.41.58.61.52.58-.2a5.37,5.37,0,0,0-1.61-3.57,4.9,4.9,0,0,0-6.06-1.36q-2.54,1.14-5.12,2.57a.54.54,0,0,1-.74-.21.64.64,0,0,1-.07-.31c.36-4,2.44-8.52,6.75-9.74a13.31,13.31,0,0,1,14.07,3.7,10.4,10.4,0,0,1,2.48,11.83,5.7,5.7,0,0,1-2.3,2.89c-1.67,1.07-3.75,1.64-3,4.23a13.26,13.26,0,0,1,.77,4,60.22,60.22,0,0,0,1.76,16.11A99.17,99.17,0,0,1,390,169.5q1,12.57,1.3,24.31a76.68,76.68,0,0,1-1.42,16.87c-.31,1.58-1.09,3.94-3.2,3.53q-3.69-.72-7.3-1.77-13.78-4-27.63-9.46a83.2,83.2,0,0,1-7.85-3.79c-6.77-3.53-11.59-13.49-13.45-20.37-.06-.19-.17-.23-.33-.13a.34.34,0,0,0-.16.26,1,1,0,0,0,0,.17,26.38,26.38,0,0,0,1.06,5.23c3,9.87,7.34,17.7,12.81,26.53,2,3.18-3.68,7.26-6.09,7.73a12.7,12.7,0,0,1-9-1.36c-.83-.46-1-.26-.65.59a8,8,0,0,0,8.65,5,.32.32,0,0,1,.34.29.37.37,0,0,1,0,.18Q329.68,236.2,321.84,248a5.92,5.92,0,0,0-.79,1.8,22.49,22.49,0,0,0,.81,13.95Q323.81,269,325.92,274.15Zm-44.65-87.54a.33.33,0,0,1,.45-.15h0a57.25,57.25,0,0,1,13.11,10,.23.23,0,0,0,.3,0,.21.21,0,0,0,.05-.13,1.52,1.52,0,0,0-.27-1,31.1,31.1,0,0,0-13.66-11.78,1.79,1.79,0,0,0-1.11-.13,1.49,1.49,0,0,0-1,.84q-8.28,15.54-11.34,27.29c-1.17,4.5.18,8.53,2.94,12.58A105,105,0,0,1,283.35,251c.18.54.32.53.41,0,.55-3.08-.44-6.16,1.65-8.9q2.07-2.75,4-4.92c2.91-3.27,3.51-6.69,3-11a87.54,87.54,0,0,0-2.27-13.26,41.9,41.9,0,0,0-11.56-19.42,1.27,1.27,0,0,1-.22-1.51Zm20.57,28.49c3.82,4.25,9.39,7.3,15.17,7.45,4.69.12,6.7-4.83,5.9-8.76-.4-2-.92-2-1.54-.08q-1.61,5-6.71,4.73-4.77-.28-12.18-3.95c-.33-.16-.56-.1-.7.18A.4.4,0,0,0,301.84,215.1Z"/><path class="cls-2" d="M344.9,159.69a50.62,50.62,0,0,0,4-14.77c.41-3.29,2.08-6.67,5-10.15.15-.18.31-.37.45-.56a.85.85,0,0,1,.82-.38.51.51,0,0,1,.45.57s0,0,0,.08a63.91,63.91,0,0,0-2.23,14.13,20.41,20.41,0,0,1-.86,5.18q-2.12,6.87-3.89,14.19a8.94,8.94,0,0,1-1,2.48,1,1,0,0,1-1.37.37,1,1,0,0,1-.2-.15C342.61,167.3,343.1,163.67,344.9,159.69Z"/><path class="cls-2" d="M358.54,172.05c1.94-3.66,1.85-7.82,2-11.84a1.65,1.65,0,0,1,2.07-1.81,86.6,86.6,0,0,1,9.46,1.46,1.24,1.24,0,0,1,.93.83,11.66,11.66,0,0,1,.31,5.06,63.55,63.55,0,0,0-.17,17.89,9.79,9.79,0,0,1,0,2.7.76.76,0,0,1-.71.65,6.61,6.61,0,0,1-3.13-.54,78.23,78.23,0,0,1-11.33-6.2C355,178.27,357.31,174.39,358.54,172.05Z"/><path d="M281.27,186.61,278.41,192a1.27,1.27,0,0,0,.22,1.51,41.9,41.9,0,0,1,11.56,19.42,87.54,87.54,0,0,1,2.27,13.26c.47,4.32-.13,7.74-3,11q-1.94,2.18-4,4.92c-2.09,2.74-1.1,5.82-1.65,8.9-.09.56-.23.57-.41,0a105,105,0,0,0-12.6-26.86c-2.76-4-4.11-8.08-2.94-12.58q3.06-11.76,11.34-27.29a1.49,1.49,0,0,1,1-.84,1.79,1.79,0,0,1,1.11.13,31.1,31.1,0,0,1,13.66,11.78,1.52,1.52,0,0,1,.27,1,.2.2,0,0,1-.22.19.21.21,0,0,1-.13-.05,57.25,57.25,0,0,0-13.11-10,.34.34,0,0,0-.46.13Z"/><path d="M317,222.55c-5.78-.15-11.35-3.2-15.17-7.45a.4.4,0,0,1-.06-.43c.14-.28.37-.34.7-.18q7.41,3.67,12.18,3.95,5.1.3,6.71-4.73c.62-2,1.14-1.94,1.54.08C323.71,217.72,321.7,222.67,317,222.55Z"/><path class="cls-3" d="M330.7,315.07h17.62a1.36,1.36,0,0,1,1.45,1.13,13.66,13.66,0,0,1,.15,4,1.61,1.61,0,0,1-1.37,1.41l-1.75.25c-.75.1-1.13.54-1.54,1.3v10.57c.28.44-.08.78-.51.78h0l-4.32,0a2.53,2.53,0,0,1-2.26-1.56,1.06,1.06,0,0,0-1.41-.48,19.77,19.77,0,0,1-14.27,1.37,15,15,0,0,1-10.68-9.15,19.6,19.6,0,0,1,.28-16.49c4.28-9.29,16-11.51,24.87-8a.92.92,0,0,0,.69,0,2.49,2.49,0,0,0,.84-.58,1,1,0,0,1,.78-.35l4.72-.09c.46,0,.84.36.56.82h0v12.35c.38.94-.09,1.41-1,1.33h-4.6a1,1,0,0,1-1.11-.79c-.76-3.14-1.85-7.24-5.72-7.73q-6.12-.78-7.09,6.17a31.41,31.41,0,0,0,.37,12.18q1.39,5.46,6.78,4.66c2.3-.34,2.09-3.91,1.62-5.54a1.09,1.09,0,0,0-.93-.79l-1.7-.19a1.56,1.56,0,0,1-1.38-1.53l-.07-4a.94.94,0,0,1,1-1ZM338,330.63a.5.5,0,0,1,.67.18l0,.09c1,3,2.82,2.49,5.4,2.39.43,0,.65-.24.48-.67V322.09a2.3,2.3,0,0,1,1.66-1.62l1.74-.28a.78.78,0,0,0,.61-.5,4.4,4.4,0,0,0,.15-2.41.84.84,0,0,0-1.08-.78H332c-.68-.27-1.05.06-1.1.74l-.16,1.82a1.2,1.2,0,0,0,1,1.28l2.07.37a.87.87,0,0,1,.6.45c1.1,2.32,1.65,7.53-2.09,8.12-9.93,1.55-9.37-12.84-8.43-18.56.81-5,4.22-8.14,9.49-6.49,3.6,1.13,4.42,4.65,5.46,7.76a.94.94,0,0,0,.93.64l3.08-.16a1,1,0,0,0,1-1.08V301.18a1,1,0,0,0-1-1.22h-.08l-2.89.16a.76.76,0,0,0-.68.44l-.74,1.46a.42.42,0,0,1-.56.19l-.09-.06c-3-2.55-7.76-2.65-11.72-2.27-14,1.34-19.55,19.12-10.12,29C321.38,334.61,331.58,334.37,338,330.63Z"/><path class="cls-3" d="M180.34,311.92q3,.15,3.06-3.44a1.64,1.64,0,0,1,1.87-1.8l1.95,0a1.64,1.64,0,0,1,1.6,1.7q-.23,7.59-.2,14.43c0,3-4.14,2.5-5,1a1,1,0,0,1-.1-.39l-.28-2.8a2.21,2.21,0,0,0-1.59-2l-.27-.09c-1-.33-1.49,0-1.51,1.09,0,2.4-.09,4.62-.19,6.66-.06,1.05.93,1.55,3,1.49,1,0,1.55.49,1.54,1.54l-.08,3.65a1.19,1.19,0,0,1-1.34,1.33l-19.41.12a.91.91,0,0,1-.88-.67,10.22,10.22,0,0,1-.19-4.44,1.66,1.66,0,0,1,1.47-1.34l2.18-.22a1.15,1.15,0,0,0,1-1.14L166.85,307a.94.94,0,0,0-1-1l-2.08-.07a1.5,1.5,0,0,1-1.62-1.5,17.22,17.22,0,0,1,.09-3.84,1.37,1.37,0,0,1,1.38-1.19l33.95,0a.8.8,0,0,1,.81.8v-.59l-.1,14.35a1,1,0,0,1-1.09,1.1l-3.8.06a1.16,1.16,0,0,1-1.31-1.19,14,14,0,0,0-2.27-7.08,3.51,3.51,0,0,0-3-1.34q-3.18-.09-6.24,0a.79.79,0,0,0-.77.79l0,5A.6.6,0,0,0,180.34,311.92Zm-1.43-7.13c2.26,0,4.54,0,6.86.06,5.06.17,6.47,3.64,7,8.2a1.52,1.52,0,0,0,1.55,1.37l1.39,0a1.14,1.14,0,0,0,1.25-1.3l0-11.65a.6.6,0,0,0-.68-.7q-14,0-28.67.09a20.17,20.17,0,0,0-2.73.19c-1.21.17-1.08,1.56-1,2.46a1.65,1.65,0,0,0,.35.92,1.06,1.06,0,0,0,.87.4c1.52,0,3.52.1,3.5,2.2q-.12,10.63-.23,20.6c0,1.75-2.05,1.94-3.33,2a1.12,1.12,0,0,0-1.2,1.3l0,1.58a1.16,1.16,0,0,0,1.15,1.15l16.19-.06c1,0,1.51-.47,1.49-1.41l0-1.42c0-.88-.49-1.29-1.42-1.24-2.23.13-3.4-.92-3.53-3.13a62,62,0,0,1,0-7.71,1,1,0,0,1,1-.9c4.49,0,5.38,1,5.86,5.05a1.49,1.49,0,0,0,1.81,1.45,1.43,1.43,0,0,0,1.29-1.31.71.71,0,0,0,0-.14l0-13.27a1.25,1.25,0,0,0-1-1.22,2.07,2.07,0,0,0-1,0,1.22,1.22,0,0,0-.94,1.05q-.68,5.07-5.77,4.18a.78.78,0,0,1-.65-.76l0-7.39A.53.53,0,0,1,178.91,304.79Z"/><path class="cls-3" d="M215,334.14c-.54-.06-1.09-.11-1.63-.14-3.62-.2-7.21-3.3-8.55-6.14q-1-2.19-.88-7.08.18-6.16.14-13a4.52,4.52,0,0,0-.34-1.7.49.49,0,0,0-.48-.29l-2.52.13a.82.82,0,0,1-1-.92l-.05-4.6a.9.9,0,0,1,1-1h18.82a1.09,1.09,0,0,1,1.23,1.13,20,20,0,0,1-.14,4.38,1.19,1.19,0,0,1-1.06,1l-2.14.2a1.62,1.62,0,0,0-1.48,1.67q.24,6.42.1,13a30.56,30.56,0,0,0,.11,3.29,4.25,4.25,0,0,0,1,2.47c2,2.36,8.44,1.78,9.63-1.23a5.92,5.92,0,0,0,.36-1.69q.5-8.2.42-16.12a1,1,0,0,0-.42-.79,5.1,5.1,0,0,0-2.86-.85,1.58,1.58,0,0,1-1.74-1.83l.1-3.63a.92.92,0,0,1,1.06-1q18.06,0,35.39.1a1.34,1.34,0,0,1,1.49,1.49,26.89,26.89,0,0,1-.18,3.94,1,1,0,0,1-.89.91l-2.56.35a.94.94,0,0,0-.83.94l.05,20c0,.56.28.82.85.79,1.32-.08,2.69-.18,4.12-.29,3.75-.29,4.78-4.61,4.83-7.68a1.81,1.81,0,0,1,1.93-1.79l2.87.18a1.65,1.65,0,0,1,1.75,1.83l0,13.46a.67.67,0,0,1-.68.67H240.8c-.89.27-1.6-.44-1.8-1.33V329.4a1.77,1.77,0,0,1,1.32-1.2l2.35-.3c.69-.08,1.32-1.35,1.32-1.35V307.6a1.62,1.62,0,0,0-1.43-1.6,28.55,28.55,0,0,0-5.55,0,1.83,1.83,0,0,0-1.65,1.86q.16,8.82-.22,16.84c-.22,4.57-3.07,7.23-7.16,8.62a26.36,26.36,0,0,1-11.31,1.29,2,2,0,0,0-.69,0,.45.45,0,0,1-.54-.22A.57.57,0,0,0,215,334.14Zm.4-16c0-3.37,0-7-.05-10.78,0-2,1.24-3,3.24-2.75a1.08,1.08,0,0,0,1.38-1.18l.06-1.45c0-.84-.37-1.25-1.2-1.85H201.77c-.57.59-.86.88-.57,1.45v2.54c-.25.58,0,.8.6.67q3.06-.76,3.13,2,.13,6.12,0,12.67c-.1,6.31,1.1,11.76,8.38,13.1a29.17,29.17,0,0,0,14-.43q5.2-1.61,6.15-5.42a33,33,0,0,0,.62-7.74q0-4.85-.13-9.74a8.69,8.69,0,0,1,.52-3.31,1.63,1.63,0,0,1,1.29-1l2.12-.32a.86.86,0,0,0,.82-.91l.07-2.19a.81.81,0,0,0-.79-.85s0,0,0,.19H224.92c-.36-.24-.67,0-.74.38a8,8,0,0,0,0,2.76.61.61,0,0,0,.58.55l2.35.32a1.53,1.53,0,0,1,1.48,1.66q.16,8.65.17,16.89a5.25,5.25,0,0,1-3.42,5.35c-4.1,1.66-9.85.67-9.76-4.81C215.6,322,215.41,320,215.43,318.1ZM257,329.63a1.25,1.25,0,0,1-1.4-.87,4.45,4.45,0,0,1-.2-1.28q-.13-10.07,0-20.5,0-2.4,3.43-2.2a1.29,1.29,0,0,0,1.36-1.19l.11-1.46a1.07,1.07,0,0,0-1.22-1.32l-17.74-.06a.83.83,0,0,0-.85.83h0l0,2.36a.77.77,0,0,0,.72.84l2.67.43a.82.82,0,0,1,.56.35,3.67,3.67,0,0,1,.64,2q.08,6.49,0,19.13c0,2.78-2.06,2.46-4,2.9a.57.57,0,0,0-.48.53c-.21,1.63-.67,3.62,1.84,3.57q15.74-.3,29-.1a.46.46,0,0,0,.46-.44h0v-12a1.4,1.4,0,0,0-1.46-1.4l-1.59.06a1.3,1.3,0,0,0-1.25,1.1c-.56,3.69-1.07,8.12-5.9,8.33A44.63,44.63,0,0,0,257,329.63Z"/><path class="cls-3" d="M292.31,328.71c1.39-.09,2.8-.22,4.24-.39,4.64-.54,4.84-4.66,5.17-8.34a1.29,1.29,0,0,1,1.31-1.17l4.06.1a1.11,1.11,0,0,1,1.09,1.11l0,13.41a1.61,1.61,0,0,1-1.61,1.61h-.34l-30.6,0a.86.86,0,0,1-.84-.81,29.49,29.49,0,0,1,.12-4.95.82.82,0,0,1,.82-.72c1.74,0,4,.07,3.93-2.46q-.24-9.9-.11-18.43a1.47,1.47,0,0,0-1.33-1.51l-2.47-.23a1.06,1.06,0,0,1-.94-1,25.6,25.6,0,0,1,.07-4.34,1.19,1.19,0,0,1,1.33-1.23l18.74.12a1,1,0,0,1,1.08,1.12v4.1a1.39,1.39,0,0,1-1.38,1.4h-.18a4.59,4.59,0,0,0-2.18.18.75.75,0,0,0-.54.77l0,21.13C291.74,328.57,291.93,328.74,292.31,328.71Zm-15.13-23.83c2.44.24,3.71.44,3.66,3.39q-.13,6.78-.06,18.71c0,1.72-1.17,2.57-3.53,2.57a1.17,1.17,0,0,0-1.19,1.06,11.85,11.85,0,0,0,0,1.78,1.3,1.3,0,0,0,1.3,1.22l28.42,0a1,1,0,0,0,1-1l.07-11.62c0-.84-.4-1.23-1.22-1.18l-1.76.1a1.44,1.44,0,0,0-1.33,1.25c-.34,2.57-.7,5.82-2.94,7.31-1.54,1-5.18.95-7.38,1.15a1.23,1.23,0,0,1-1.31-1.13v-.09q-.09-10.86,0-21.55c0-2,2.24-1.95,3.59-2a.87.87,0,0,0,.9-1l0-2a.78.78,0,0,0-.85-.89q-8.77-.24-17.29,0a1,1,0,0,0-1.14,1.19v1.57A1.21,1.21,0,0,0,277.18,304.88Z"/><path class="cls-3" d="M399.36,314l-.11.07h0l0,0a.51.51,0,0,1-.07-.17,4.75,4.75,0,0,1-.14-.57,1.34,1.34,0,0,0,0-.2c0-.07-.08-.1-.13-.15a.42.42,0,0,1-.09-.19c0-.06,0-.16-.06-.2a.32.32,0,0,0-.35,0,.26.26,0,0,0-.07.1,3.27,3.27,0,0,1-.2.55.93.93,0,0,0,0,.44V326a3,3,0,0,0,.1,1,2,2,0,0,0,1.88,1.22c.09,0,.21,0,.27,0a2.26,2.26,0,0,1,.31-.23l.36-.18a.87.87,0,0,1,.24-.1,1.06,1.06,0,0,1,.25,0,.89.89,0,0,1,1,.55,1.14,1.14,0,0,1,.1.19,1.59,1.59,0,0,1,.06.3c0,.25,0,.49.07.74s.11.57.16.86c.11.58.21,1.16.31,1.74,0,.26.06.54.09.81s.05.58.07.87a1,1,0,0,1,0,.25,2.24,2.24,0,0,1-.11.5l-.14.43a.59.59,0,0,1-.06.14.57.57,0,0,1-.22.15,1.6,1.6,0,0,1-.37.12,1,1,0,0,1-.24,0H400.8a7.68,7.68,0,0,0-.83,0l-.88.09-1.77.15c-1.18.08-2.37.14-3.55.18s-2.36.05-3.53.05c-.44,0-.87,0-1.3,0l-.63-.05c-.24,0-.47,0-.72,0a5,5,0,0,1-1.6-.48l-.44-.19a.42.42,0,0,1-.17-.1.35.35,0,0,1-.1-.18c-.17-.49,0-1.06-.16-1.55a6.24,6.24,0,0,1-.4-.92c-.08-.37-.3-.7-.39-1.07a4.31,4.31,0,0,1-.09-.95,3.74,3.74,0,0,1,.29-1.66,1.52,1.52,0,0,1,1.34-.88c.38,0,.62.25,1,.35a2.35,2.35,0,0,0,.53,0c.41,0,.81,0,1.22-.06.78-.1,1.53-.46,1.53-1.36q0-10.35,0-19.38a1.22,1.22,0,0,0-1.39-1.36c-2,0-5.08-.14-6.35,1.79q-3.62,5.5-7.21,10.8a12.12,12.12,0,0,0-1.49,5.84c-.17,2.83.35,3.81,3.43,3.92a1.27,1.27,0,0,1,1.38,1.37l.14,3.58c0,1-1.39,1.87-1.39,1.87L358.29,335a1.26,1.26,0,0,1-1.32-1,12.47,12.47,0,0,1,0-4.94,1.34,1.34,0,0,1,1.29-1.12l1.66,0a1.09,1.09,0,0,0,1.06-.95c.48-3.36.27-6.4-1.65-9.33s-3.85-6-5.79-9.24a4.61,4.61,0,0,0-4.1-2.5,1.35,1.35,0,0,1-1.36-1.34l0-4.09c0-.7.7-1.94,1.4-1.94h18c2,0,2,.59,2,1v5.84c-.41.31-.64.55-1.09.56l-1.56.08a.82.82,0,0,0-.79.84.93.93,0,0,0,.12.4l3.07,5.07a.58.58,0,0,0,1,0l3.24-5.2a.8.8,0,0,0-.25-1.08.84.84,0,0,0-.49-.11l-1,.11a1.18,1.18,0,0,1-1.42-1,11.63,11.63,0,0,1,0-4.88c.11-.53.43-.79,1-1.43h33.93c.64.63,1,.94,1.21,1.56L411,317.14c.18.7.39.71.62,0q1.45-4.41,2.7-8.9c.42-1.51.83-3,1.21-4.56s.67-3.59,1.57-5a2.66,2.66,0,0,1,2.07-1.33,4.07,4.07,0,0,1,.92.12,19.63,19.63,0,0,0,2.21.52,16.33,16.33,0,0,0,2.4-.27,27.54,27.54,0,0,1,5.37.15c1.32.17,3.11.8,4.42.4.23-.07.44-.17.67-.24a4,4,0,0,1,1.09-.11,1.74,1.74,0,0,1,1,.2,1.57,1.57,0,0,1,.53.88c.07.25.3.36.37.59a3.22,3.22,0,0,1-.1,1c0,.53.09,1.1.09,1.64a5.59,5.59,0,0,1-.7,3.19.87.87,0,0,1-.73.37l-1.73,0a1.33,1.33,0,0,0-1.33.94,1.21,1.21,0,0,0-.05.46c.47,6.21-.05,12.3-.19,18.43a4.1,4.1,0,0,0,.23,1.55.83.83,0,0,0,.68.55l2.39.23a1.27,1.27,0,0,1,1.28,1.45L438,333a1.19,1.19,0,0,1-1.34,1.31H419.08s-1.74-.19-1.67-1.37l.21-3.56q.08-1.61,1.65-1.29,3.21.63,3.12-1.94-.21-6.89-.14-13.05,0-2.87-.9-.15-2.09,6.09-4.2,12.35c-.89,2.63-1.43,5.35-2.21,8a2.7,2.7,0,0,1-1.67,1.7h-6.43a6.72,6.72,0,0,1-1.15-.9,2.63,2.63,0,0,1-.4-.53,1.51,1.51,0,0,1-.13-.29.7.7,0,0,1,0-.12c0-.05-.08-.08-.09-.14s0-.11,0-.15l-.05-.06s0-.09,0-.13a.81.81,0,0,0-.14-.33,1,1,0,0,0-.22-.28l-.07-.07,0-.07-.06-.15a2.46,2.46,0,0,1-.15-.53c0-.18,0-.35-.06-.53a1.46,1.46,0,0,0-.12-.33.46.46,0,0,0-.27-.38,1.29,1.29,0,0,1-.16-.18,2.07,2.07,0,0,1-.3-.66,11.27,11.27,0,0,1-.28-1.11l-.15-.74c-.09-.42-.18-.83-.25-1.25l-.09-.64c0-.1,0-.21,0-.31a1.23,1.23,0,0,1,0-.25c0-.09,0-.17,0-.26a1.61,1.61,0,0,0-.17-.51,1.26,1.26,0,0,0-.18-.32,1.49,1.49,0,0,1-.12-.14,1.47,1.47,0,0,1-.06-.14l-.08-.26a1.23,1.23,0,0,1-.05-.25,1,1,0,0,1,0-.24,1.34,1.34,0,0,0,0-.34c0-.07-.1-.13-.13-.2l-.3-.66a2.47,2.47,0,0,1-.18-.52.3.3,0,0,1,0-.23s.1-.08.12-.13a.38.38,0,0,0,0-.21l-.15-.51c-.1-.34-.2-.68-.31-1-.33-1.11-.68-2.21-1-3.31-.19-.54-.39-1.09-.59-1.63-.11-.28-.2-.59-.33-.86M359.4,333.61l17.25-.08a1,1,0,0,0,1-1,6.55,6.55,0,0,0-.26-2.4.7.7,0,0,0-.5-.46c-1.52-.33-3.49,0-3.77-2.17-.45-3.51-.46-6.69,1.46-9.69q3.84-6,7.34-11.18c.4-.6,1.57-1.2,3.5-1.8a.7.7,0,0,0,.49-.6l.19-2.52a.76.76,0,0,0-.86-.92H372.71a.93.93,0,0,0-1.06,1.07l0,2a1,1,0,0,0,.79,1,6.59,6.59,0,0,0,1.54.23.88.88,0,0,1,.79.48,2.41,2.41,0,0,1,0,2.52,75.11,75.11,0,0,1-4.24,6.37.59.59,0,0,1-.84.13.57.57,0,0,1-.15-.16q-2-3.17-4.08-6.51a1.66,1.66,0,0,1,.24-2.42c.69-.58,1.81-.55,2.6-1a.58.58,0,0,0,.27-.45l.21-2c.08-.85-.3-1.27-1.16-1.26l-16.95.1a1.1,1.1,0,0,0-1.23,1.29l.05,1.44a1.39,1.39,0,0,0,1.24,1.36,5.34,5.34,0,0,1,4.15,2.56q3.38,5.15,6.81,10.58c1.61,2.52,1.18,6.35,1,9.19-.09,1.76-1.07,2.46-2.92,2.1a1.26,1.26,0,0,0-1.56,1.14l-.15,1.6A1.3,1.3,0,0,0,359.4,333.61Zm63.39-29.4a.24.24,0,0,1,.23,0,.31.31,0,0,1,.22.32q.09,12.44-.09,23.32c0,1.1-1.09,1.59-3.23,1.47-.88-.06-1.2,1.24-1.2,1.24l0,1.7a1.2,1.2,0,0,0,1.37,1.38l11.91-.06h2.92a5.06,5.06,0,0,0,1,0c.81-.18.74-1.35.44-2a3.47,3.47,0,0,0-.34-.59c-.16-.23-.32-.62-.57-.74-.51-.25-1,.17-1.55,0a3.64,3.64,0,0,1-1.17-.9,2.39,2.39,0,0,1-.31-.69,11,11,0,0,1-.1-2.92c-.09-1.53-.61-3-.8-4.46a4,4,0,0,0-.4-1.06,7.33,7.33,0,0,1-.41-4.17,22.38,22.38,0,0,1,1.21-4.07,9.65,9.65,0,0,0,.79-2.4c0-.6,0-1.23,0-1.84.07-1.11.23-2.54,1.19-3.28.71-.55,1.61-.25,2.29-.73a.67.67,0,0,0,.22-.36c.21-.63.63-1.75,0-2.09a6.52,6.52,0,0,0-2.46-.15l-9.19-.19c-.91,0-1.83,0-2.75,0-.71,0-1.43.12-2.14.23s-2,.19-2.42.74a2,2,0,0,0-.16.54l-.63,2.08L414.69,311l-2.89,9.6c-.09.29-.26.35-.52.18a1.84,1.84,0,0,1-.74-1.15q-2.24-8.6-4.88-17.8a1.24,1.24,0,0,0-1.49-1H387.88c-.67-.15-.54.85-.54.85v2s-.14,1.06.59,1c2.42-.35,3.6.61,3.56,2.89q-.19,8.83,0,19.05c0,1.65-1.06,3.09-2.85,2.72-1.13-.23-1.73.23-1.79,1.38l-.05,1.06c0,1,.43,1.52,1.44,1.14H401c.41.33.74,0,.74-.41v-.09l-.27-2.42a.62.62,0,0,0-.62-.6c-1.57-.13-3.82-.14-3.83-2.37q0-10.49-.08-21.33c0-1.66.29-1.71.88-.16.47,1.25,1,2.54,1.44,3.82q3.31,10.74,6.87,22.68a2.51,2.51,0,0,0,1.83,1.59h4.71a2.06,2.06,0,0,0,1.16-1.18c2.6-9.53,6.14-18.5,8.79-28A.43.43,0,0,1,422.79,304.21Z"/><path class="cls-4" d="M338,330.63c-6.38,3.74-16.58,4-22-1.74-9.43-9.89-3.91-27.67,10.12-29,4-.38,8.75-.28,11.72,2.27a.43.43,0,0,0,.6,0,.22.22,0,0,0,.05-.08l.74-1.46a.76.76,0,0,1,.68-.44l2.89-.16A1.22,1.22,0,0,1,344,301.1s0,0-.15.08v10.21a1,1,0,0,1-1,1.08l-3.08.16a.94.94,0,0,1-.93-.64c-1-3.11-1.86-6.63-5.46-7.76-5.27-1.65-8.68,1.51-9.49,6.49-.94,5.72-1.5,20.11,8.43,18.56,3.74-.59,3.19-5.8,2.09-8.12a.87.87,0,0,0-.6-.45l-2.07-.37a1.2,1.2,0,0,1-1-1.28l.16-1.82c.05-.68.42-1,1.1-.74h15.64a.84.84,0,0,1,1.08.78,4.4,4.4,0,0,1-.15,2.41.78.78,0,0,1-.61.5l-1.74.28a2.3,2.3,0,0,0-1.66,1.62v10.53c.17.43-.05.66-.48.67-2.58.1-4.39.65-5.4-2.39a.5.5,0,0,0-.63-.31Z"/><path class="cls-4" d="M179,304.84a.54.54,0,0,0-.6.61l.05,7.31a.78.78,0,0,0,.64.76q5.06.87,5.72-4.14a1.24,1.24,0,0,1,.94-1.05,2,2,0,0,1,1,0,1.23,1.23,0,0,1,.94,1.2l0,13.35a1.5,1.5,0,0,1-1.55,1.46h0a1.43,1.43,0,0,1-1.49-1.46c-.47-4-1.35-5.06-5.8-5a1,1,0,0,0-1,.89,61.77,61.77,0,0,0,0,7.69q.18,3.3,3.48,3.11,1.4-.07,1.41,1.23l0,1.42q0,1.41-1.47,1.41l-16.63.06a1.18,1.18,0,0,1-1.19-1.15l0-1.58a1.14,1.14,0,0,1,1.25-1.3c1.32-.05,3.43-.24,3.44-2q.12-10,.23-20.6c0-2.1-2-2.21-3.61-2.2a1.14,1.14,0,0,1-.91-.41,1.6,1.6,0,0,1-.36-.92c-.06-.89-.19-2.28,1.06-2.45a21.53,21.53,0,0,1,2.82-.19q15.22-.11,29.65-.1a.62.62,0,0,1,.71.7l0,11.66a1.18,1.18,0,0,1-1.3,1.3l-1.49,0a1.53,1.53,0,0,1-1.55-1.37c-.5-4.56-2-8-7.2-8.2C183.68,304.83,181.31,304.8,179,304.84Z"/><path class="cls-4" d="M215.43,318.1c0,1.94.17,3.87.15,5.81-.09,5.48,5.66,6.47,9.76,4.81a5.25,5.25,0,0,0,3.42-5.35q0-8.24-.17-16.89a1.53,1.53,0,0,0-1.48-1.66l-2.35-.32a.61.61,0,0,1-.58-.55,8,8,0,0,1,0-2.76c.07-.36.38-.62.74-1.1H238a5.35,5.35,0,0,1,1,1.35v0l-.25,2.19a.86.86,0,0,1-.82.91l-2.12.32a1.63,1.63,0,0,0-1.29,1,8.69,8.69,0,0,0-.52,3.31q.09,4.89.13,9.74a33,33,0,0,1-.62,7.74q-.94,3.81-6.15,5.42a29.17,29.17,0,0,1-14,.43c-7.28-1.34-8.48-6.79-8.38-13.1q.09-6.56,0-12.67-.08-2.81-3.13-2c-.56.13-.85-.09-.6-.67v-2.54c-.29-.57,0-.86.57-.73h17.09c.83-.12,1.23.29,1.2,1.13l-.06,1.45a1.08,1.08,0,0,1-1.38,1.18c-2-.24-3.28.73-3.24,2.75C215.45,311.13,215.47,314.73,215.43,318.1Z"/><path class="cls-4" d="M255.58,328.78a1.26,1.26,0,0,0,1.41.87,44.43,44.43,0,0,1,4.62-.44c4.83-.21,5.34-4.63,5.9-8.31a1.3,1.3,0,0,1,1.25-1.11l1.59-.06a1.4,1.4,0,0,1,1.46,1.4v12a.46.46,0,0,1-.46.45h0q-13.26-.19-29,.1c-2.51.05-2-1.93-1.84-3.56a.57.57,0,0,1,.49-.53c2-.44,4-.13,4-2.9q.06-12.6,0-19.11a3.68,3.68,0,0,0-.63-2,.84.84,0,0,0-.57-.36l-2.66-.43a.77.77,0,0,1-.72-.84v-2.35a.84.84,0,0,1,.85-.84h0l17.73.05c.88,0,1.29.45,1.22,1.32l-.11,1.47a1.29,1.29,0,0,1-1.37,1.18c-2.26-.13-3.41.6-3.42,2.2q-.1,10.43,0,20.47A4.83,4.83,0,0,0,255.58,328.78Z"/><path class="cls-4" d="M280.83,308.29c.06-3-1.21-3.15-3.65-3.39a1.21,1.21,0,0,1-1.09-1.21v-1.57a1,1,0,0,1,1.14-1.19q8.5-.24,17.27,0a.78.78,0,0,1,.84.9l0,2a.86.86,0,0,1-.89,1c-1.35.09-3.57.07-3.58,2q-.06,10.67,0,21.48A1.26,1.26,0,0,0,292,329.6h.21c2.2-.2,5.82-.11,7.36-1.15,2.23-1.49,2.59-4.74,2.92-7.31a1.43,1.43,0,0,1,1.34-1.24l1.75-.11c.81-.05,1.22.34,1.21,1.18l-.07,11.62a1,1,0,0,1-1,1l-28.35,0a1.3,1.3,0,0,1-1.3-1.22,11.85,11.85,0,0,1,0-1.78,1.17,1.17,0,0,1,1.19-1.06c2.36,0,3.53-.85,3.52-2.57Q280.7,315.08,280.83,308.29Z"/><path class="cls-4" d="M359.3,333.7a1.3,1.3,0,0,1-1.32-1.44l.15-1.63a1.26,1.26,0,0,1,1.56-1.14c1.87.37,2.85-.34,2.95-2.11.15-2.85.58-6.71-1-9.24-2.31-3.65-4.59-7.19-6.85-10.65a5.35,5.35,0,0,0-4.18-2.57,1.42,1.42,0,0,1-1.25-1.36l-.05-1.46a1.1,1.1,0,0,1,1.25-1.29l17-.11c.87,0,1.25.42,1.17,1.27l-.21,2a.59.59,0,0,1-.27.46c-.8.44-1.92.41-2.62,1a1.68,1.68,0,0,0-.24,2.43q2.13,3.38,4.11,6.55a.6.6,0,0,0,.83.19.57.57,0,0,0,.16-.15c1.75-2.4,3.17-4.53,4.27-6.41a2.42,2.42,0,0,0,0-2.54.87.87,0,0,0-.79-.48,7.35,7.35,0,0,1-1.55-.23,1,1,0,0,1-.79-1l0-1.94a.93.93,0,0,1,1.06-1.07l12.61,0c.62,0,.9.31.86.93l-.19,2.53a.68.68,0,0,1-.49.6q-2.91.9-3.51,1.8-3.51,5.19-7.37,11.21c-1.92,3-1.91,6.2-1.46,9.73.28,2.15,2.27,1.84,3.78,2.17a.7.7,0,0,1,.5.47,6.74,6.74,0,0,1,.27,2.4,1.05,1.05,0,0,1-1.05,1Z"/><path class="cls-4" d="M422.61,304.45c-2.65,9.48-6.19,18.45-8.79,28a2.06,2.06,0,0,1-1.16,1.18H408a2.51,2.51,0,0,1-1.83-1.59q-3.56-11.92-6.87-22.68c-.4-1.28-1-2.57-1.44-3.82-.59-1.55-.88-1.5-.88.16q0,10.85.08,21.33c0,2.23,2.26,2.24,3.83,2.37a.62.62,0,0,1,.62.6l.27,2.42a.76.76,0,0,1-.66.83s-.06,0-.08.38H388.28c-1-.33-1.49-.84-1.44-1.85l.05-1.06c.06-1.15.66-1.61,1.79-1.38,1.79.37,2.88-1.07,2.85-2.72q-.22-10.22,0-19.05c0-2.28-1.14-3.24-3.56-2.89-.73.11-.59-1-.59-1v-2a1.92,1.92,0,0,1,.54-1.57h16.29c.78.61,1.28,1,1.49,1.73q2.64,9.21,4.88,17.8a1.84,1.84,0,0,0,.74,1.15c.26.17.43.11.52-.18l5.67-18.85c.2-.65,1.47-.93,1.47-.93l16.95.07a1.18,1.18,0,0,1,1.18,1.19.37.37,0,0,1,0,.11l-.15,1.44a1.21,1.21,0,0,1-1.33,1.07c-1.87-.17-2.82.72-2.83,2.66q0,9.51,0,19.72c0,2.07,1.58,2.74,3.35,2.76a.81.81,0,0,1,.75.59,5.33,5.33,0,0,1,.09,2.42.84.84,0,0,1-.92.77l-16,.08a1.17,1.17,0,0,1-1.33-1.35v-1.81s.32-1.3,1.2-1.24c2.14.12,3.22-.37,3.23-1.47q.17-10.87.09-23.32a.31.31,0,0,0-.22-.32.24.24,0,0,0-.23,0A.43.43,0,0,0,422.61,304.45Z"/><path class="cls-5" d="M129.32,358.62q10.47.58,20.09.27c1.09,0,1.4.43.92,1.41L142.2,377a.68.68,0,0,1-.9.31A.62.62,0,0,1,141,377a20.56,20.56,0,0,0-21.71-9q-19.95,4.71-39.9,8.23c-.25,0-.31-.05-.19-.27A11.1,11.1,0,0,1,81,373.5q15.09-16.32,30.33-33.12a1.12,1.12,0,0,0,0-1.67L79.46,302.47a.57.57,0,0,1,.05-.81.55.55,0,0,1,.37-.14l47.87.08a.71.71,0,0,1,.71.72h0q-.27,12-.12,24.2.22,17.3-.15,30.86A1.06,1.06,0,0,0,129.32,358.62Z"/><path class="cls-5" d="M484.86,342.77a.41.41,0,0,0,0,.56q16.35,17.9,32.6,35.64a.38.38,0,0,1,.09.32.33.33,0,0,1-.39.28q-17.43-2.76-34.76-6.89c-5.69-1.37-11.26-2.28-16.9-.3A26.63,26.63,0,0,0,453.9,380a.71.71,0,0,1-1,.08.78.78,0,0,1-.21-.3l-6.17-17.41a.53.53,0,0,1,.32-.66.51.51,0,0,1,.17,0q8.88-.09,20.35.48a.51.51,0,0,0,.61-.57q.33-28.75.14-56.08a.7.7,0,0,1,.71-.7h0l45.51,0a13.32,13.32,0,0,0,2.1-.13c1.46-.24,1.71.2.73,1.31Z"/><path class="cls-4" d="M436.7,356.81a23.09,23.09,0,0,1,1.56,2.67A138.21,138.21,0,0,1,448,385.71a20.07,20.07,0,0,1,.56,3.12,23.6,23.6,0,0,0,.62,3.43,52.37,52.37,0,0,1,1,6.16,17.31,17.31,0,0,1,.09,3.24c-.06,1-.11,2.11-.14,3.23a136,136,0,0,0-15.74,31.17q-4.29,11.94-6.77,21.56a1.25,1.25,0,0,0,.19.74,4.27,4.27,0,0,1-1.51.07q-11-2.46-21.67-4.71-10.44-2.21-33.59-6-6.49-1-14.15-1.84t-14.83-1.81a1.75,1.75,0,0,1-1.3-.9,53.52,53.52,0,0,0-7.62-10.93,1.78,1.78,0,0,1-.31-1.93Q335,425.6,337,420.9q1.31-3.07,2.31-6.22c1.39-4.36,3.2-8.69,4.18-13.09a60.73,60.73,0,0,0,1.14-6.78c.65-6-2.88-10.12-7.92-12.53A57,57,0,0,0,326,378.49a182.71,182.71,0,0,0-27.16-4.37,56.29,56.29,0,0,0-8.48-.21,63.67,63.67,0,0,0-22.44,5.5c-.67.31-1.35.65-2,1s-1.33.7-2,1a36.12,36.12,0,0,0-6.82,4.11,19.72,19.72,0,0,0-4.56,5.47q-2.06,3.2-.4,4a14.22,14.22,0,0,0-.24,10.9q4.91,12.84,9.77,25.5a1.94,1.94,0,0,1-.37,2,47.23,47.23,0,0,0-6.74,9.21q-13.87.4-27.07,2.08-8.61,1.1-16.78,1.94c-3.79.38-7.54,1-11.26,1.54-2.8.39-5.61.86-8.4,1.42q-12.23,2.44-24.57,4.32l-1.55-.22a1.36,1.36,0,0,1-1.16-1.15,207,207,0,0,0-7.3-32.32A99.3,99.3,0,0,0,148.21,401a34.15,34.15,0,0,0-5.33-7c.78.17,1.18-.15,1.21-1a14.19,14.19,0,0,1,.43-3q2.78-10.89,5.11-17.82a83.59,83.59,0,0,1,5.55-12.56,9.64,9.64,0,0,1,1.59-2,7.8,7.8,0,0,0,1.48-2.18q41.43.09,83.11.06l28.17,0q36.9,0,73.81,0l88.43.12A8.76,8.76,0,0,1,436.7,356.81Z"/><path class="cls-6" d="M427.84,458.36l8.73,2a.23.23,0,0,0,.28-.18.15.15,0,0,0,0-.07,3.58,3.58,0,0,1,.12-1.34,133.41,133.41,0,0,1,5.13-15.35c1.32-3.22,3.71-8.55,6.77-10.33a1.61,1.61,0,0,1,2.09.41,10.91,10.91,0,0,1,2,6.27,102.09,102.09,0,0,1-1.48,22.78c-.42,2.31-.44,4.67-.71,7a.84.84,0,0,1-.68.15,459.75,459.75,0,0,0-106.65-21.54.42.42,0,0,0-.44.38.57.57,0,0,0,0,.13l1.17,4.49a4.91,4.91,0,0,1,.61,2c0,1.26.08,3.15.28,5.69q.75,9.1-3.63,19.83-.54,1.34-2.25,4.83a2.31,2.31,0,0,1-.55.71,2,2,0,0,0-.44.53,29.22,29.22,0,0,1-6.33,8.07q-3.42,2.79-6.91,5.51-2.86,2.25-11.82,5.76a27.91,27.91,0,0,1-9.12,1.92c-.24,0-.24,0,0,.1a.93.93,0,0,0,.24,0q.19,0,0,0c-5.78.3-11.94.54-17.5-.78a61.33,61.33,0,0,1-14.94-5.66c-4.54-2.44-7.89-5.92-11.59-9.33a.91.91,0,0,1-.32-.65c-.08-1,.15-1.54.7-1.52a46,46,0,0,0,43.64,14.38,44.18,44.18,0,0,0,28.58-18.64,41.85,41.85,0,0,0-4.31-53.22,1.15,1.15,0,0,1-.18-1.32,131.9,131.9,0,0,0,9.29-23.14,57.09,57.09,0,0,0,2.08-9.91c1.07-9.59-6.77-12.86-14.27-15.2A118.62,118.62,0,0,0,297.33,378a67.57,67.57,0,0,0-14.22.45,65.64,65.64,0,0,0-18.41,5.75c-5.42,2.58-10,4.94-12.61,10.81q-1.65-.78.4-4a19.72,19.72,0,0,1,4.56-5.47,36.12,36.12,0,0,1,6.82-4.11c.68-.3,1.35-.63,2-1s1.36-.73,2-1a63.67,63.67,0,0,1,22.44-5.5,56.29,56.29,0,0,1,8.48.21A182.71,182.71,0,0,1,326,378.49a57,57,0,0,1,10.71,3.79c5,2.41,8.57,6.5,7.92,12.53a60.73,60.73,0,0,1-1.14,6.78c-1,4.4-2.79,8.73-4.18,13.09q-1,3.15-2.31,6.22-2,4.69-4.13,9.45a1.78,1.78,0,0,0,.31,1.93,53.52,53.52,0,0,1,7.62,10.93,1.75,1.75,0,0,0,1.3.9q7.14,1,14.83,1.81t14.15,1.84q23.16,3.75,33.59,6,10.62,2.25,21.67,4.71A4.27,4.27,0,0,0,427.84,458.36Zm21.5,5.55a.3.3,0,0,0-.21-.37h0l-10.72-3a.3.3,0,0,0-.37.21h0a.3.3,0,0,0,.21.37h0l10.72,3a.3.3,0,0,0,.37-.21h0Z"/><path d="M260.65,490.2q-13.44-15.88-10-36.82c.08-.49-.13-.73-.62-.72q-8.2.09-16.66.76a379.54,379.54,0,0,0-42.85,6q-12.8,2.49-25.4,5.58a15.09,15.09,0,0,1-5.27,1,3.58,3.58,0,0,0-2.35,1,1.33,1.33,0,0,0-.38.55,1.25,1.25,0,0,1-1.17.77,1.41,1.41,0,0,0,0-.62.34.34,0,0,0-.48-.27l-12,3.23a2.19,2.19,0,0,0-1-.13.37.37,0,0,1-.21-.06.34.34,0,0,1-.15-.43.43.43,0,0,0-.13-.48,2.85,2.85,0,0,1-1-2.29.86.86,0,0,0-.19-.6.94.94,0,0,1,0-1.14q19.32-5.37,35.6-8.78A546.9,546.9,0,0,1,246.71,447c1.78-.13,3.53-.2,5.27-.19a1,1,0,0,0,.87-.56l1.66-3.66a47.23,47.23,0,0,1,6.74-9.21,1.94,1.94,0,0,0,.37-2q-4.86-12.66-9.77-25.5a14.22,14.22,0,0,1,.24-10.9c2.57-5.87,7.19-8.23,12.61-10.81a65.64,65.64,0,0,1,18.41-5.75,67.57,67.57,0,0,1,14.22-.45,118.62,118.62,0,0,1,28.15,5.15c7.5,2.34,15.34,5.61,14.27,15.2a57.09,57.09,0,0,1-2.08,9.91,131.9,131.9,0,0,1-9.29,23.14,1.15,1.15,0,0,0,.18,1.32,41.85,41.85,0,0,1,4.31,53.22,44.18,44.18,0,0,1-28.58,18.64A46,46,0,0,1,260.65,490.2Zm-3.72-20.92c-2-9.28,1.21-20.15,7.26-27.56,3.24-4,3.77-9.09,2.44-13.87a129.84,129.84,0,0,0-7.92-21.57,13.2,13.2,0,0,1-1.43-4.63c-.18-3.57,3.23-7.74,5.87-9.8a85.89,85.89,0,0,1,18.61-10.72,6.13,6.13,0,0,0,1.12-.62c.7-.49.63-.65-.21-.49a90.2,90.2,0,0,0-19,5.93c-3.27,1.42-6.84,4-8.5,7.26-3.2,6.37-2,13.29,1.38,19.5a71.9,71.9,0,0,1,7.35,19.78,2.26,2.26,0,0,1-.38,2A45.22,45.22,0,0,0,253,460.09c-.95,12,4.71,23.79,13.71,31.52a59.13,59.13,0,0,0,13.16,8.47,0,0,0,0,0,.06,0l.11-.17a.25.25,0,0,0-.08-.38A71.88,71.88,0,0,1,262.43,481,34.89,34.89,0,0,1,256.93,469.28Zm5.71-68.86,8,24.42a.37.37,0,0,0,.48.27,3.57,3.57,0,0,0,1.38-.76l4.82-2.33c13.46-5.33,29.1-4.69,41.61,3.05.21.13.35.08.44-.14l1-2.62,8.14-22.41a.91.91,0,0,0-.36-1.07c-12.55-8.28-26.39-10.75-41.23-9.32a41.12,41.12,0,0,0-12.77,3.35,52.78,52.78,0,0,0-11.43,6.84C262.63,399.8,262.59,400,262.64,400.42Zm71.5,2.44A9.65,9.65,0,0,0,324.81,391a16.67,16.67,0,0,0-3.59.4c-.76.17-.78.39-.05.67,3,1.16,11.66,3.27,9.8,8.37q-3.8,10.35-9.29,22.18a20,20,0,0,0-1.27,3.49.59.59,0,0,0,.13.57.2.2,0,0,0,.28,0l0-.05q3.91-6.42,8.7-13A27.71,27.71,0,0,0,334.14,402.86Z"/><path class="cls-2" d="M264.19,441.72c-6.05,7.41-9.28,18.28-7.26,27.56a34.89,34.89,0,0,0,5.5,11.73A71.88,71.88,0,0,0,280,499.5a.25.25,0,0,1,.08.38l-.11.17a0,0,0,0,1-.06,0,59.13,59.13,0,0,1-13.16-8.47c-9-7.73-14.66-19.53-13.71-31.52a45.22,45.22,0,0,1,10.46-25.58,2.26,2.26,0,0,0,.38-2,71.9,71.9,0,0,0-7.35-19.78c-3.4-6.21-4.58-13.13-1.38-19.5,1.66-3.29,5.23-5.84,8.5-7.26a90.2,90.2,0,0,1,19-5.93c.84-.16.91,0,.21.49a6.13,6.13,0,0,1-1.12.62,85.89,85.89,0,0,0-18.61,10.72c-2.64,2.06-6,6.23-5.87,9.8a13.2,13.2,0,0,0,1.43,4.63,129.84,129.84,0,0,1,7.92,21.57C268,432.63,267.43,437.76,264.19,441.72Z"/><path class="cls-4" d="M320.4,422.31c.12-.76-.08-1.14-.6-1.15a.48.48,0,0,0-.29.1,1,1,0,0,1-.94.13A67.7,67.7,0,0,0,300.09,417a39,39,0,0,0-6.21-.08c-3.43.23-7,0-10.25,1.22-.76.27-1.56.23-2.29.57-1.29.62-2.39,1-3.55,1.56a1.6,1.6,0,0,0-.75.67c-.3.57-.19.94.31,1.12l-4.82,2.33a7.44,7.44,0,0,1-.83-1.64c-.2-.58-.42-1.15-.65-1.7-.77-1.83-1.21-3.68-1.83-5.57q-2.39-7.29-4.75-14.07a2.25,2.25,0,0,0-1.14-1.31q-.4-.19-.69.36c-.05-.38,0-.62.11-.72a52.78,52.78,0,0,1,11.43-6.84A41.12,41.12,0,0,1,287,389.51c14.84-1.43,28.68,1,41.23,9.32a.91.91,0,0,1,.36,1.07Z"/><path class="cls-7" d="M142.88,394a34.15,34.15,0,0,1,5.33,7,99.3,99.3,0,0,1,8.21,19.26,207,207,0,0,1,7.3,32.32,1.36,1.36,0,0,0,1.16,1.15l1.55.22-12,2.72c-.3-.09-.42-.22-.37-.39a4.15,4.15,0,0,0,.14-1.86,131.16,131.16,0,0,0-5.32-20.47c-1.05-3.07-3-7.72-5.74-9.76a1.65,1.65,0,0,0-2.14.15c-2.54,2.52-3,9.33-3,12.79a119.13,119.13,0,0,0,2,24,12.65,12.65,0,0,1,.22,2.39,2.49,2.49,0,0,0,.66,2.06.94.94,0,0,0,0,1.14.86.86,0,0,1,.19.6,2.85,2.85,0,0,0,1,2.29.43.43,0,0,1,.13.48.34.34,0,0,0,.15.43.37.37,0,0,0,.21.06,2.19,2.19,0,0,1,1,.13l-1.33.42a.35.35,0,0,0-.27.45c.94,4.28,5.54,22.43,10.47,22.59,1.75.05,2.49-2.17,2.86-3.53a31.35,31.35,0,0,0,1.12-7.66q.18-7.29-.35-14.61a1.25,1.25,0,0,0,1.17-.77,1.33,1.33,0,0,1,.38-.55,3.58,3.58,0,0,1,2.35-1,15.09,15.09,0,0,0,5.27-1,56.69,56.69,0,0,1,.7,5.63q.39,7.5.72,20.42-.47,4.76-.74,9a93.18,93.18,0,0,1-2.39,16.76c-1.29,5.1-3.88,13.46-9.07,15.6-7.12,2.94-13.47-7-16-12a127.67,127.67,0,0,1-9.82-26.79,252.67,252.67,0,0,1-6.95-46.89,167,167,0,0,1,.36-24.5,109.57,109.57,0,0,1,2.63-16.11c1-4.33,3.45-11.07,7.06-13.85C135.59,389.18,139.8,390.77,142.88,394Z"/><path class="cls-2" d="M334.14,402.86a27.71,27.71,0,0,1-4.59,10.78q-4.79,6.57-8.7,13a.19.19,0,0,1-.27.06l0,0a.59.59,0,0,1-.13-.57,20,20,0,0,1,1.27-3.49q5.49-11.84,9.29-22.18c1.86-5.1-6.79-7.21-9.8-8.37-.73-.28-.71-.5.05-.67a16.67,16.67,0,0,1,3.59-.4A9.65,9.65,0,0,1,334.14,402.86Z"/><path class="cls-8" d="M122.67,405.57a1.92,1.92,0,0,0-2-.69,11.7,11.7,0,0,1-1.92.2q-9.27-.49-15.6-.45a59.18,59.18,0,0,1-8.07-.45A34.18,34.18,0,0,1,98,398.73a3.63,3.63,0,0,1,2.88-1.63c1.94-.26,3.87-.51,5.79-.73s3.81-.54,5.74-.94c3-.62,6.07-1.17,9.32-1.65a14.66,14.66,0,0,1,2.72-.16c.81,0,1.12.44.92,1.23Z"/><path class="cls-9" d="M474.54,396a1.35,1.35,0,0,0-.43,1.52,29.73,29.73,0,0,1,1.09,7.67q-.9-4-1.46-8.23a1.4,1.4,0,0,1,.35-1.14Q474.23,395.69,474.54,396Z"/><path class="cls-8" d="M474.37,396a20.67,20.67,0,0,1,3-.06c4.32.51,8.79.57,12.9,1.23q3,.48,5.9.9a2.21,2.21,0,0,1,1.56,1.17,46.54,46.54,0,0,1,4.29,9.48,80.08,80.08,0,0,0-8.35.17,29.24,29.24,0,0,1-4.39,0,32.05,32.05,0,0,0-4.49,0,.46.46,0,0,1-.36-.16.7.7,0,0,0-.54-.24,25.08,25.08,0,0,0-3.94.15,16.85,16.85,0,0,1-3.12-.35,1,1,0,0,1-.57-.22,3.88,3.88,0,0,1-.84-1.1c-.19-.36-.3-.33-.31.07l-.09,1.58,0-3.42a29.25,29.25,0,0,0-1.08-7.67A1.33,1.33,0,0,1,474.37,396Z"/><path class="cls-7" d="M420.78,499.58c.44-3.59.78-7.17,1-10.76a154.06,154.06,0,0,1,3.13-19.62,2,2,0,0,0,.73.4.76.76,0,0,0,.64-.08,1.69,1.69,0,0,1,1.18-.19,28.56,28.56,0,0,1,6.79,2.33q-.82,5.43-1.39,10.21c-.7,5.91-1,11.92.39,17.51a6.55,6.55,0,0,0,1.52,2.85,1.59,1.59,0,0,0,2.1.21,11.45,11.45,0,0,0,3-3.16,43.41,43.41,0,0,0,3.78-7.21,99.4,99.4,0,0,0,5.12-16.56,1.55,1.55,0,0,0,1.63-1.3c.21-1,.45-2,.7-3a2,2,0,0,0-.31-1.62c.27-2.34.29-4.7.71-7A102.09,102.09,0,0,0,453,439.76a10.91,10.91,0,0,0-2-6.27,1.61,1.61,0,0,0-2.09-.41c-3.06,1.78-5.45,7.11-6.77,10.33A133.41,133.41,0,0,0,437,458.76a3.58,3.58,0,0,0-.12,1.34.24.24,0,0,1-.22.26h-.07l-8.73-2a1.25,1.25,0,0,1-.19-.74q2.49-9.63,6.77-21.56a136,136,0,0,1,15.74-31.17,26.06,26.06,0,0,1,7.68-6.95c5.62-3.18,10.3.24,12.34,5.5a38,38,0,0,1,2.27,8.6,114.76,114.76,0,0,1,.26,28.88A254.59,254.59,0,0,1,463,487.27a166.3,166.3,0,0,1-13.37,31.55c-3.56,6.4-9.12,14.65-15.5,16.84-6.54,2.26-10.36-5.3-11.57-10.37C420.45,516.47,420.53,509,420.78,499.58Z"/><path class="cls-6" d="M272.53,424.35a3.57,3.57,0,0,1-1.38.76.37.37,0,0,1-.48-.27l-8-24.42q.28-.56.69-.36a2.25,2.25,0,0,1,1.14,1.31q2.36,6.78,4.75,14.07c.62,1.89,1.06,3.74,1.83,5.57.23.55.45,1.12.65,1.7A7.44,7.44,0,0,0,272.53,424.35Z"/><path class="cls-9" d="M95.11,404.18a59.18,59.18,0,0,0,8.07.45q6.33,0,15.6.45a11.7,11.7,0,0,0,1.92-.2,1.92,1.92,0,0,1,2,.69L120.2,417.1a31.12,31.12,0,0,1-9.3-.07,35.46,35.46,0,0,0-3.86,0,.29.29,0,0,1-.24-.15.51.51,0,0,0-.42-.21,30.36,30.36,0,0,1-5-.19,13.08,13.08,0,0,0-4.67,0,13.8,13.8,0,0,1-3.44.13,3.55,3.55,0,0,0-3.13,1l.51-2.42Z"/><path class="cls-9" d="M502.23,408.74l1.89,5.24a2.72,2.72,0,0,0,.53,2.23L505,418l.35,1.6,1.14,6.14-.75-1.18c-.13-.19-.27-.21-.42-.05l-.24.24a.43.43,0,0,1-.6.07,1.24,1.24,0,0,0-1-.17,3.08,3.08,0,0,1-.8.1c-1.9,0-3.75-.12-5.56-.28a53.7,53.7,0,0,0-8.3-.11l-7.55.49a14.65,14.65,0,0,1-2.39-.11,12.82,12.82,0,0,0-2.41,0,140.27,140.27,0,0,0-1.25-16.09l.09-1.58c0-.4.12-.43.31-.07a4.15,4.15,0,0,0,.81,1.06,1,1,0,0,0,.6.26,16.85,16.85,0,0,0,3.12.35,25.21,25.21,0,0,1,3.95-.15.71.71,0,0,1,.54.25.45.45,0,0,0,.38.15,31.77,31.77,0,0,1,4.47,0,29.11,29.11,0,0,0,4.38,0A80.13,80.13,0,0,1,502.23,408.74Z"/><path class="cls-8" d="M504.12,414a3.6,3.6,0,0,1,.53,2.23A2.72,2.72,0,0,1,504.12,414Z"/><path class="cls-8" d="M90.69,415.29l-.51,2.42-1.61,7.14L88.12,427l-.39,7.25-.15-4.65.41-4a.23.23,0,0,0-.21-.25h0l-.22,0a.32.32,0,0,0-.36.22l-.63,1.69-.19-2.12c0-.36-.2-.44-.49-.23a1.71,1.71,0,0,1-1.54.19,9.23,9.23,0,0,0-2.62-.48c-1.88-.06-3.74,0-5.57.08a24.61,24.61,0,0,1-3.43,0c-1.18-.08-2.35-.16-3.5-.22A41.81,41.81,0,0,1,72,418.75a3.14,3.14,0,0,1,2-1.61,30.48,30.48,0,0,1,8.38-.84,11.54,11.54,0,0,0,3.33-.31,12.34,12.34,0,0,1,3.86-.37,1,1,0,0,0,.69-.23C90.67,415,90.81,415,90.69,415.29Z"/><path class="cls-10" d="M120.2,417.1,119,426.82l-.23-.76a.35.35,0,0,0-.49-.27,15.36,15.36,0,0,1-5.43.64c-1.21-.06-2.41-.08-3.62-.07q-3.57,0-6.93-.26a11,11,0,0,1-2.17-.59,4.45,4.45,0,0,0-2.32-.18,5,5,0,0,1-1.89-.05,3.47,3.47,0,0,0-1.6.26,5.53,5.53,0,0,1-2.93.21.61.61,0,0,1-.32-.16,3.27,3.27,0,0,0-1.87-.77.24.24,0,0,0-.28.19c-.18.63-.31.74-.4.32a.83.83,0,0,1,.08-.48l1.61-7.14a3.55,3.55,0,0,1,3.13-1,13.8,13.8,0,0,0,3.44-.13,13.08,13.08,0,0,1,4.67,0,30.36,30.36,0,0,0,5,.19.51.51,0,0,1,.42.21.29.29,0,0,0,.24.15,35.46,35.46,0,0,1,3.86,0A31.12,31.12,0,0,0,120.2,417.1Z"/><path class="cls-6" d="M320.4,422.31l-1,2.62c-.09.22-.23.27-.44.14-12.51-7.74-28.15-8.38-41.61-3.05-.5-.18-.61-.55-.31-1.12a1.6,1.6,0,0,1,.75-.67c1.16-.56,2.26-.94,3.55-1.56.73-.34,1.53-.3,2.29-.57,3.29-1.18,6.82-1,10.25-1.22a39,39,0,0,1,6.21.08,67.7,67.7,0,0,1,18.48,4.43,1,1,0,0,0,.94-.13.48.48,0,0,1,.29-.1C320.32,421.17,320.52,421.55,320.4,422.31Z"/><path class="cls-8" d="M528.35,435l-1.56-3.92a.64.64,0,0,0-.62-.43c-1.79,0-3.69-.09-5.7-.25a.18.18,0,0,1-.16-.13.16.16,0,0,0-.15-.11l-8.29-.21a1.16,1.16,0,0,1-.67-.24,1.87,1.87,0,0,0-1.54-.32.4.4,0,0,0-.37.44l0,3.38a92.2,92.2,0,0,0-2.62-12.48c-.19-.71-.57-1.07-1.12-1.09l-.35-1.6-.07-.53a.37.37,0,0,1,.34-.46,13,13,0,0,1,3.83-.07q6.31.72,12.2,1.66a2.72,2.72,0,0,1,2.12,1.71q2,5.16,3.83,10.54a6.63,6.63,0,0,1,.3,1.51,1.58,1.58,0,0,0,.2.66A3.18,3.18,0,0,1,528.35,435Z"/><path class="cls-2" d="M154,456.26l-12.2,2.87a.2.2,0,0,0-.16.18l0,.41a.15.15,0,0,0,.13.17h.06l12.59-3.24,12-2.72q12.34-1.87,24.57-4.32c2.79-.56,5.6-1,8.4-1.42,3.72-.52,7.47-1.16,11.26-1.54q8.18-.86,16.78-1.94,13.2-1.68,27.07-2.08l-1.66,3.66a1,1,0,0,1-.87.56c-1.74,0-3.49.06-5.27.19a546.9,546.9,0,0,0-70.25,9.72q-16.28,3.42-35.6,8.78a2.49,2.49,0,0,1-.66-2.06,12.65,12.65,0,0,0-.22-2.39,119.13,119.13,0,0,1-2-24c.06-3.46.47-10.27,3-12.79a1.65,1.65,0,0,1,2.14-.15c2.73,2,4.69,6.69,5.74,9.76a131.16,131.16,0,0,1,5.32,20.47A4.15,4.15,0,0,1,154,456.26Z"/><path class="cls-9" d="M86.57,427.19l-1.08,4.95a3.05,3.05,0,0,0-.15-1.26c-.1-.27-.27-.32-.51-.17l-1.21.8a1,1,0,0,1-.64.16,3.74,3.74,0,0,0-1.69.24,1.29,1.29,0,0,1-.8,0,18.38,18.38,0,0,0-6-.36,21.19,21.19,0,0,1-4.06-.1l-1.19-.3a3.14,3.14,0,0,0-2.32.43l2.28-7.25c1.15.06,2.32.14,3.5.22a24.61,24.61,0,0,0,3.43,0c1.83-.11,3.69-.14,5.57-.08a9.23,9.23,0,0,1,2.62.48,1.71,1.71,0,0,0,1.54-.19c.29-.21.46-.13.49.23Z"/><path class="cls-7" d="M506.47,425.76a30.17,30.17,0,0,1,.45,3.34,89.22,89.22,0,0,1-.92,21.42,21.15,21.15,0,0,1,.33-7.16,31.34,31.34,0,0,0,.22-10.7c-.1-.66-.33-.7-.67-.14l-.64,1.05a.82.82,0,0,1-.57.4,16.8,16.8,0,0,1-2.89.32q-8.14.19-16.29,0c-1.45,0-2.74,0-3.87.07s-2.42.18-3.69.25a.55.55,0,0,0-.54.44l-.9,3.88-.08-14.17a12.93,12.93,0,0,1,2.42,0,14.54,14.54,0,0,0,2.38.11l7.55-.49a53.7,53.7,0,0,1,8.3.11c1.81.16,3.67.25,5.56.28a3.08,3.08,0,0,0,.8-.1,1.23,1.23,0,0,1,1,.17.44.44,0,0,0,.61-.07l.23-.24c.16-.16.3-.14.42.05Z"/><path class="cls-7" d="M88.57,425.15a.83.83,0,0,0-.08.48c.09.42.22.31.4-.32a.24.24,0,0,1,.28-.19,3.21,3.21,0,0,1,1.87.78.67.67,0,0,0,.32.15,5.33,5.33,0,0,0,2.93-.21,3.47,3.47,0,0,1,1.6-.26,5,5,0,0,0,1.89.05,4.35,4.35,0,0,1,2.32.19,11.45,11.45,0,0,0,2.17.58c2.24.2,4.55.28,6.93.26,1.21,0,2.41,0,3.62.08a15.8,15.8,0,0,0,5.42-.64.39.39,0,0,1,.5.26l.23.76-.38,5.16q-.39-1.89-3.46.07a.81.81,0,0,1-.35.14.51.51,0,0,1-.47-.15.73.73,0,0,0-.48-.21l-12.53-.6a.09.09,0,0,1-.1-.09.15.15,0,0,0-.13-.13,47.22,47.22,0,0,0-5.93-.24,10.94,10.94,0,0,0-2.22.3,4,4,0,0,1-2.34-.11c-.51-.19-1-.39-1.5-.61a.51.51,0,0,0-.64.21,2.1,2.1,0,0,0-.24,1.06.1.1,0,0,1-.11.11h0a.11.11,0,0,1-.11-.12,44.39,44.39,0,0,0,.15-4.62Z"/><path d="M88.33,427.29q0,2.32-.15,4.62c0,.07,0,.11.11.12h0c.08,0,.12,0,.12-.11a2,2,0,0,1,.23-1.06.51.51,0,0,1,.64-.21c.5.22,1,.42,1.5.61a4,4,0,0,0,2.35.11,10.94,10.94,0,0,1,2.22-.3,47.06,47.06,0,0,1,5.92.24.14.14,0,0,1,.13.13.09.09,0,0,0,.1.09l12.54.6a.73.73,0,0,1,.48.21.49.49,0,0,0,.46.15.8.8,0,0,0,.36-.14q3.07-2,3.46-.07c0,14.48,1.75,27.7,3.39,41.5a138.94,138.94,0,0,0,13.4,45.69,94.46,94.46,0,0,0,9.63,15.17.72.72,0,0,1-.34,1.18c-1,.35-2.07.66-3.16.92q-9.57,2.34-18.13,5a1.59,1.59,0,0,1-1.71-.52,136.72,136.72,0,0,1-27.73-57,328,328,0,0,1-6.34-39.37l.12-10.33Z"/><path class="cls-9" d="M528.16,435l.81,7.54-.81-3.53a1.67,1.67,0,0,0-.28-.64c-.72-1-1.39-1.17-2-.49a.67.67,0,0,1-.59.22,58,58,0,0,0-12.35.06.84.84,0,0,1-.43-.09.34.34,0,0,1-.19-.28.39.39,0,0,0-.51-.39,3.49,3.49,0,0,0-1.5.58.7.7,0,0,0-.32.54l-1.38,10.37.71-2.15V429.81s-.07-.4.18-.44a1.87,1.87,0,0,1,1.54.32,1.16,1.16,0,0,0,.67.24l8.29.21a.16.16,0,0,1,.15.11.18.18,0,0,0,.16.13c2,.16,3.91.25,5.7.25a.64.64,0,0,1,.62.43Z"/><path class="cls-5" d="M87.67,429.59l.14,4.65-.12,10.32a48.38,48.38,0,0,0-.67-6.19Q86.63,436.11,87.67,429.59Z"/><path class="cls-10" d="M85.67,432.14,85.5,443.6l-1.71-2.27a.5.5,0,0,0-.63-.18l-.33.13a1,1,0,0,1-.71,0,2.07,2.07,0,0,0-1.87.08.56.56,0,0,1-.57,0,4.24,4.24,0,0,0-2.17-.58,59.07,59.07,0,0,1-8.81-.52.34.34,0,0,1-.26-.2.39.39,0,0,0-.46-.22,1.47,1.47,0,0,1-1.48-.32s-.09,0-.14,0a.19.19,0,0,1-.18.08c-.28,0-.4.11-.36.39a2.32,2.32,0,0,1,0,.87c-.06.26-.13.26-.19,0a2.75,2.75,0,0,1,0-1.25l1.59-8a3.14,3.14,0,0,1,2.32-.43l1.19.3a21.19,21.19,0,0,0,4.06.1,18.28,18.28,0,0,1,6,.37,1.35,1.35,0,0,0,.79-.07,3.68,3.68,0,0,1,1.64-.23,1,1,0,0,0,.67-.16l1.21-.8a.34.34,0,0,1,.52.17A3.27,3.27,0,0,1,85.67,432.14Z"/><path d="M506.07,450.52q-3.1,18-6.52,31.71a136.46,136.46,0,0,1-30.23,57.9c-.63.73-1.09,1.37-2.17,1.2Q456,539.54,445,538a19,19,0,0,0-2.8-.19.57.57,0,0,1-.56-.57.57.57,0,0,1,.11-.33,181.18,181.18,0,0,0,34.81-98l.91-3.88a.53.53,0,0,1,.53-.44c1.27-.07,2.5-.16,3.7-.25s2.42-.11,3.86-.07q8.15.24,16.3,0a16.91,16.91,0,0,0,2.89-.32.82.82,0,0,0,.57-.4l.63-1.05c.35-.56.57-.52.67.14a31.09,31.09,0,0,1-.21,10.7A20.89,20.89,0,0,0,506.07,450.52Z"/><path class="cls-10" d="M529.26,442.52v1.17a.32.32,0,0,1-.33.33.89.89,0,0,0-1,.65.48.48,0,0,1-.5.37q-6.47,0-12.79.26a9.58,9.58,0,0,1-1.61-.2,1.28,1.28,0,0,0-.72.1l-1.08.52a2.51,2.51,0,0,0-1.4,2.34,4.32,4.32,0,0,1-.59,2.09v-1.28l1-10.37a.69.69,0,0,1,.31-.54,3.61,3.61,0,0,1,1.51-.58.4.4,0,0,1,.51.4.31.31,0,0,0,.19.27.73.73,0,0,0,.43.09,57.9,57.9,0,0,1,12.34-.06.69.69,0,0,0,.57-.19c.65-.72,1.34-.55,2.08.5a1.67,1.67,0,0,1,.25.6Z"/><path d="M85.32,443.6q0,4,.23,5.82,1.89,16.27,3.56,26.05,4.76,27.79,21.29,54.15a.62.62,0,0,1-.46.94q-8.18.91-19.72,2.38a2.09,2.09,0,0,1-2.14-.94,135,135,0,0,1-8.65-14.68,118.26,118.26,0,0,1-11.25-35.59q-2.55-15.66-3.48-26.43a66.39,66.39,0,0,1,.65-15.66,2.9,2.9,0,0,0,.05,1.25c.07.25.13.25.2,0a2.32,2.32,0,0,0,0-.87c0-.28.08-.4.36-.39a.19.19,0,0,0,.18-.08.09.09,0,0,1,.14,0,1.47,1.47,0,0,0,1.48.32.39.39,0,0,1,.46.22.34.34,0,0,0,.26.2,59.07,59.07,0,0,0,8.81.52,4.26,4.26,0,0,1,2.17.58.52.52,0,0,0,.56,0,2.07,2.07,0,0,1,1.87-.08,1,1,0,0,0,.72,0l.33-.13a.48.48,0,0,1,.62.18Z"/><path class="cls-5" d="M555.12,477.58l-.32-2.78a.46.46,0,0,0-.52-.41.52.52,0,0,0-.21.07,1.6,1.6,0,0,1-1.83.1.91.91,0,0,0-.58-.12A7.21,7.21,0,0,1,548,474a.57.57,0,0,0-.58.06,2.11,2.11,0,0,0-.74,1.41l-.09-.46c-.06-.28-.21-.34-.44-.18l-.33.22,1-9a35.56,35.56,0,0,0-1-12.7,1,1,0,0,0-1.15-.67l-.08,0a.84.84,0,0,0-.4.38.63.63,0,0,1-.59.34l-9.48.06a.92.92,0,0,0-.51.17.86.86,0,0,1-1.15,0,.74.74,0,0,0-1.05.08.59.59,0,0,0-.1.17l-.52,1.09.85-12.09a1.33,1.33,0,0,1,.75-1.15,1.41,1.41,0,0,1,.78-.11c2.43.36,4.77.68,7,1a4,4,0,0,1,3,2.37,60.4,60.4,0,0,1,3,7.75,34,34,0,0,1,1.21,13.83.87.87,0,0,0,.27.77,2,2,0,0,0,1.78.48,5.91,5.91,0,0,1,2.39.12,2.52,2.52,0,0,1,1.42,1.32A15.41,15.41,0,0,1,555.12,477.58Z"/><path class="cls-8" d="M63,457.06l-.35-7.18a.82.82,0,0,0-.86-.77l-.17,0a8.81,8.81,0,0,1-2.75.28q-4.32-.18-8.75-.05a.46.46,0,0,0-.38.22,8.55,8.55,0,0,0-1.24,3,.31.31,0,0,1-.33.29q-1.23,4.61-2,9.34a22.69,22.69,0,0,1,1.21-8.59,1.26,1.26,0,0,0,.07-.54.8.8,0,0,1,.22-.64,1.33,1.33,0,0,0,.37-.61A42.5,42.5,0,0,1,50.38,446a6.54,6.54,0,0,1,1.76-2.29,5.85,5.85,0,0,1,2.51-1.1,22,22,0,0,1,6-.39s.44,0,1.21,0,1.11.37,1.11,1.2Q63,450.2,63,457.06Z"/><path d="M529.25,442.52a25.21,25.21,0,0,1,.44,3.51,106.27,106.27,0,0,1-.89,15.68Q526.91,475.2,524,488.1A112.08,112.08,0,0,1,520,502a120.58,120.58,0,0,1-17.21,31.46,1.45,1.45,0,0,1-1.52.57l-19.87-3.92a.52.52,0,0,1-.44-.44.47.47,0,0,1,.08-.41q3.76-5.51,6.89-11.14a184.56,184.56,0,0,0,13.57-30.53A163.93,163.93,0,0,0,509,450.38c0-.12,0-.09.12.07s.07.08.09,0l.08-.29a4,4,0,0,0,.54-2.65,1.33,1.33,0,0,1,.74-1.45l1.94-.91a.69.69,0,0,1,.35-.07,13.87,13.87,0,0,0,1.83.23q6.33-.21,12.79-.26a.49.49,0,0,0,.51-.37.9.9,0,0,1,1.08-.64.19.19,0,0,0,.21-.18Z"/><path class="cls-8" d="M508.58,446.72l.71,2.15v1.28l-.37.29c0,.09-.06.09-.1,0s-.12-.19-.12-.07a30.62,30.62,0,0,1,.11-6.35c0-.06,0-.09.1.12h0c.06-.21.09-.18.09-.11A5.77,5.77,0,0,1,508.58,446.72Z"/><path d="M450.82,469.55a2,2,0,0,1,.31,1.62c-.25,1-.49,2-.7,3a1.55,1.55,0,0,1-1.63,1.3,80.87,80.87,0,0,0-14.52-3.85,28.56,28.56,0,0,0-6.79-2.33,1.69,1.69,0,0,0-1.18.19.76.76,0,0,1-.64.08,2,2,0,0,1-.73-.4,1,1,0,0,0-.53-.42,584.79,584.79,0,0,0-74.58-15q-2.79-.37-5.6-.6l-1.17-4.49a.41.41,0,0,1,.29-.49.34.34,0,0,1,.14,0A459.75,459.75,0,0,1,450.14,469.7.84.84,0,0,0,450.82,469.55Z"/><path class="cls-10" d="M63,457.33l.57,8.38L62.47,463a.48.48,0,0,0-.49-.32l-13.3-.12a1.73,1.73,0,0,0-1.75,1.66l-.21,4.92a4.51,4.51,0,0,1-.78,2.29h-.4l.6-8.94q.81-4.74,2-9.34a.31.31,0,0,0,.33-.28,8.34,8.34,0,0,1,1.25-3.05.46.46,0,0,1,.37-.21q4.42-.14,8.75.05a8.81,8.81,0,0,0,2.75-.28.82.82,0,0,1,1,.58l0,.17Z"/><path class="cls-10" d="M546.8,466c0-1.46-.1-2.89-.16-4.31a2,2,0,0,0-1.22-1.7,4.18,4.18,0,0,0-2.29-.35,8,8,0,0,1-2,.13q-3.69-.24-8-.11a1.63,1.63,0,0,1-.73-.17,2.61,2.61,0,0,0-1-.25.51.51,0,0,0-.48.32l-.53,1.26.12-1.38a7.75,7.75,0,0,0,.24-3.29l.11-1.24.52-1.1a.73.73,0,0,1,1-.35.59.59,0,0,1,.17.1.86.86,0,0,0,1.15,0,.92.92,0,0,1,.51-.17l9.48-.05a.64.64,0,0,0,.59-.35.84.84,0,0,1,.4-.38,1,1,0,0,1,1.21.57s0,.05,0,.07A35.58,35.58,0,0,1,546.8,466Z"/><path class="cls-4" d="M260.59,490.08c-.25-.31-.68,1.18-.66,1.36a3.24,3.24,0,0,0,1.3,1.87c3.37,3,6.65,6.17,10.63,8.31a60.93,60.93,0,0,0,14.94,5.66c5.56,1.32,11.72,1.09,17.5.78.13,0,.13,0,0,0l-.24,0c-.23-.05-.23-.09,0-.1a28.17,28.17,0,0,0,9.12-1.91q9-3.53,11.82-5.76,3.5-2.73,6.91-5.51a29.53,29.53,0,0,0,6.37-8.13,1.72,1.72,0,0,1,.41-.48,2.31,2.31,0,0,0,.54-.71q1.71-3.48,2.25-4.83,4.38-10.72,3.63-19.82-.3-3.81-.28-5.7a5,5,0,0,0-.61-2q2.81.23,5.6.6a586.52,586.52,0,0,1,74.58,15,1,1,0,0,1,.53.42,154.16,154.16,0,0,0-3.13,19.63c-.25,3.58-.59,7.17-1,10.75a.63.63,0,0,0-.62-.34.59.59,0,0,0-.5.42,12.65,12.65,0,0,1-3.07,5.07c-.83.84-1.66,1.71-2.49,2.62a20.18,20.18,0,0,1-1.75,1.71c-.84.72-1.46,1.29-1.86,1.7a125.29,125.29,0,0,1-14.55,12.83,175,175,0,0,1-45.24,23.81,118.24,118.24,0,0,1-14.64,4.34,149.25,149.25,0,0,1-26.24,3.05c-5.42.21-10.84.23-16.25.19s-10.92-.25-16.36-.65a136.76,136.76,0,0,1-40.42-8.86,163.94,163.94,0,0,1-40.59-22.63,160.57,160.57,0,0,1-21.85-20.58,54.42,54.42,0,0,1-4.8-6.28,18.19,18.19,0,0,1-1.37-2.51,7.36,7.36,0,0,0-1.61-2.4q-.33-12.93-.72-20.43c-.06-1.21-.29-3.08-.7-5.63q12.6-3.07,25.4-5.58a377.15,377.15,0,0,1,42.85-6q8.46-.68,16.66-.77c.49,0,.7.24.62.73C248.44,467,252.12,479.29,260.59,490.08Z"/><path class="cls-9" d="M530.69,456a7.71,7.71,0,0,1-.24,3.28Z"/><path class="cls-8" d="M154,456.26c-.05.17.07.3.37.39l-12.59,3.24a.15.15,0,0,1-.19-.12,0,0,0,0,1,0,0l0-.41a.2.2,0,0,1,.16-.18Z"/><path d="M546.8,465.86l-1,9c-1.67,9.24-3.63,18.86-8,27.3a90.31,90.31,0,0,1-9.67,14.94,4,4,0,0,1-2.9,1.94q-5.59.36-11.38.67a.47.47,0,0,1-.48-.33,1,1,0,0,1,0-.77,213.42,213.42,0,0,0,10-25.72q2.85-9.51,4.47-16.94,1.27-5.91,2.39-15.32l.53-1.25a.49.49,0,0,1,.53-.32,2.54,2.54,0,0,1,1,.25,1.5,1.5,0,0,0,.73.16c2.89-.08,5.57-.05,8,.12a9.08,9.08,0,0,0,2-.13,4.22,4.22,0,0,1,2.3.35,1.8,1.8,0,0,1,1.21,1.7C546.7,463,546.76,464.4,546.8,465.86Z"/><rect class="cls-8" x="443.38" y="456.49" width="0.61" height="11.72" rx="0.3" transform="translate(-120.42 766.34) rotate(-74.5)"/><path d="M63.58,465.11a221.45,221.45,0,0,0,6,31.28,201,201,0,0,0,8.32,23.72.47.47,0,0,1-.26.61.52.52,0,0,1-.25,0,78.28,78.28,0,0,0-10.26-.87c-2.44,0-3.14-1.38-4.71-3.52a76.85,76.85,0,0,1-13.57-31.68,98.61,98.61,0,0,1-2.17-16.12l.21-4.92A1.73,1.73,0,0,1,48.68,462l13.3.12a.49.49,0,0,1,.49.32Z"/><path class="cls-2" d="M156,468.33q.53,7.32.35,14.61a31.35,31.35,0,0,1-1.12,7.66c-.37,1.36-1.11,3.58-2.86,3.53-4.93-.16-9.53-18.31-10.47-22.59a.35.35,0,0,1,.27-.45l1.33-.42,12-3.23a.34.34,0,0,1,.48.27A1.41,1.41,0,0,1,156,468.33Z"/><path d="M45.32,471.18h.4q.7,8.07,2,16a71.82,71.82,0,0,0,5.87,18.89.51.51,0,0,1-.25.68.44.44,0,0,1-.25,0c-2.9-.22-7.14.38-8.06-3.39v-26.3Z"/><path class="cls-2" d="M448.8,475.51a99.4,99.4,0,0,1-5.12,16.56,43.41,43.41,0,0,1-3.78,7.21,11.45,11.45,0,0,1-3,3.16,1.59,1.59,0,0,1-2.1-.21,6.55,6.55,0,0,1-1.52-2.85c-1.42-5.59-1.09-11.6-.39-17.51q.57-4.78,1.39-10.21A80.87,80.87,0,0,1,448.8,475.51Z"/><path d="M555.12,477.4c-.2,10.11-3.09,20.29-9.68,28.1-1.13,1.34-5,1-6.76,1.05-.72,0-.91-.31-.57-.95a48,48,0,0,0,3-6.67A119.3,119.3,0,0,0,546,480.44a44.7,44.7,0,0,0,.66-5.13,2.07,2.07,0,0,1,.7-1.36.58.58,0,0,1,.62-.1,7.32,7.32,0,0,0,3.6.42.93.93,0,0,1,.65.12,1.62,1.62,0,0,0,1.82-.11.49.49,0,0,1,.66.13.48.48,0,0,1,.07.21Z"/><path class="cls-5" d="M238.09,273.84a.44.44,0,0,0,.24.31.75.75,0,0,0,.37.08q12.28-.08,24.59-.19a8.83,8.83,0,0,0,1.52-.17,1.48,1.48,0,0,0,0,.22c0,.13.2.33.2.33h60.85a1,1,0,0,0,.19-.25c0-.14-.12.25-.12.25l17.64,0a1.4,1.4,0,0,0,.73.28q54.57-.14,116.5-.09a1.15,1.15,0,0,1,1.29,1.3q0,25.75-.13,51.86-.09,13.57.27,26.24a1,1,0,0,1-1,1h.87s-17.33.66-25.23.8a.32.32,0,0,0-.36.36,1.14,1.14,0,0,0,.18.64,8.76,8.76,0,0,0-4.93-1.23l-88.43-.12q-36.9,0-73.81,0l-28.17,0c-27.78,0-55.49,0-83.11.21H135.67c-.48,0-.79-.9-.79-.9h0V275.08c-.15-.47.23-.86.71-1.37h0c31.47.53,63.06.51,94.79.46,2.49,0,4.83.06,7,.19a.63.63,0,0,0,.59-.27A.64.64,0,0,0,238.09,273.84Zm110.23,41.23H330.7s-1,.4-1.13,1h0l.19,4a1.56,1.56,0,0,0,1.38,1.53l1.7.19a1.09,1.09,0,0,1,.93.79c.47,1.63.68,5.2-1.62,5.54q-5.38.81-6.78-4.66a31.41,31.41,0,0,1-.37-12.18q1-6.94,7.09-6.17c3.87.49,5,4.59,5.72,7.73a1,1,0,0,0,1.11.79h4.6c.94.08,1-1.33,1-1.33V300s-.09-.83-.55-.58h0l-4.72-.16a1,1,0,0,0-.78.35,2.49,2.49,0,0,1-.84.58.92.92,0,0,1-.69,0c-8.83-3.53-20.59-1.31-24.87,8a19.6,19.6,0,0,0-.28,16.49,15,15,0,0,0,10.68,9.15,19.77,19.77,0,0,0,14.27-1.37,1.06,1.06,0,0,1,1.41.48,2.53,2.53,0,0,0,2.26,1.56l4.32,0c.43,0,.79-.34.51-.78h0V323.12c.41-.76.79-1.2,1.54-1.3l1.75-.25a1.61,1.61,0,0,0,1.37-1.41,13.66,13.66,0,0,0-.15-4C349.63,315.5,348.32,315.07,348.32,315.07ZM179.81,311.9l0-4.94a.81.81,0,0,1,.78-.81c2-.07,4.13-.08,6.26,0a3.54,3.54,0,0,1,3,1.35,14,14,0,0,1,2.27,7.11,1.18,1.18,0,0,0,1.32,1.2l3.81-.06a1,1,0,0,0,1.1-1.11l.1-14.41a.81.81,0,0,0-.8-.82h0l-34,0a1.39,1.39,0,0,0-1.38,1.21,17.26,17.26,0,0,0-.09,3.91,1.52,1.52,0,0,0,1.62,1.53l2.08.07a1,1,0,0,1,1,1.06l.12,20a1.16,1.16,0,0,1-1,1.16l-2.18.22a1.65,1.65,0,0,0-1.46,1.35,10.36,10.36,0,0,0,.18,4.54.92.92,0,0,0,.88.68l19.35-.12a1.2,1.2,0,0,0,1.34-1.34l.08-3.65a1.33,1.33,0,0,0-1.55-1.53c-2,.06-3-.44-3-1.5.1-2,.17-4.26.19-6.66,0-1.06.52-1.42,1.52-1.09l.26.09a2.18,2.18,0,0,1,1.6,2l.29,2.8a1,1,0,0,0,.1.39c.84,1.5,5,2,5-1q0-6.84.2-14.44a1.63,1.63,0,0,0-1.61-1.69l-2,0a1.64,1.64,0,0,0-1.88,1.81q-.11,3.58-3.08,3.44A.61.61,0,0,1,179.81,311.9Zm35.66,22.49a.46.46,0,0,0,.54.23,2,2,0,0,1,.69,0,26.31,26.31,0,0,0,11.3-1.29c4.09-1.38,6.93-4,7.15-8.62q.39-8,.22-16.84A1.82,1.82,0,0,1,237,306a27.68,27.68,0,0,1,5.54,0,1.59,1.59,0,0,1,1.43,1.59v18.69a1.41,1.41,0,0,1-1.3,1.36l-2.53.29a1.27,1.27,0,0,0-1.16,1.2l-.05,3.58a1.59,1.59,0,0,0,1.59,1.61h-.07l31.37,0a.68.68,0,0,0,.68-.67h0l0-13.46a1.64,1.64,0,0,0-1.75-1.83l-2.87-.17a1.8,1.8,0,0,0-1.93,1.78c-.05,3.07-1.08,7.39-4.84,7.68-1.43.11-2.8.2-4.12.28a.7.7,0,0,1-.85-.79l-.05-20a.94.94,0,0,1,.83-.94l2.57-.35a1,1,0,0,0,.88-.91,26.89,26.89,0,0,0,.18-3.94,1.34,1.34,0,0,0-1.49-1.49q-17.34-.09-35.42-.1a.92.92,0,0,0-1.05,1l-.11,3.63a1.58,1.58,0,0,0,1.75,1.83,5.15,5.15,0,0,1,2.86.85.91.91,0,0,1,.41.79q.08,7.91-.41,16.11a5.68,5.68,0,0,1-.37,1.69c-1.18,3-7.62,3.58-9.64,1.23a4.32,4.32,0,0,1-.95-2.47,30.61,30.61,0,0,1-.12-3.29q.13-6.54-.1-13a1.63,1.63,0,0,1,1.49-1.67l2.14-.2a1.19,1.19,0,0,0,1.06-1,20,20,0,0,0,.14-4.38,1.09,1.09,0,0,0-1.23-1.13h-18.7a.89.89,0,0,0-1,1l0,4.6c0,.65.34.95,1,.92l2.5-.14a.5.5,0,0,1,.49.29,4.53,4.53,0,0,1,.34,1.71q0,6.84-.14,13c-.1,3.26.2,5.62.88,7.08,1.34,2.84,4.93,5.94,8.54,6.15.54,0,1.09.07,1.63.13A.57.57,0,0,1,215.47,334.39Zm76.3-6.85,0-20.68a.75.75,0,0,1,.53-.76,4.59,4.59,0,0,1,2.18-.18,1.37,1.37,0,0,0,1.53-1.19,1.21,1.21,0,0,0,0-.19v-4.06a1,1,0,0,0-1.08-1.1l-19-.12a1.2,1.2,0,0,0-1.36,1.21,24.57,24.57,0,0,0-.07,4.25,1.06,1.06,0,0,0,1,1l2.53.23a1.47,1.47,0,0,1,1.36,1.48q-.14,8.4.11,18.14c.07,2.5-2.25,2.45-4,2.42a.81.81,0,0,0-.81.72,27.48,27.48,0,0,0-.13,4.86.85.85,0,0,0,.86.79l31.21,0a1.61,1.61,0,0,0,1.61-1.59h0l0-13.33a1.11,1.11,0,0,0-1.09-1.1l-4-.1a1.3,1.3,0,0,0-1.32,1.17c-.32,3.66-.52,7.75-5.15,8.28q-2.15.25-4.23.39C292,328.09,291.77,327.92,291.77,327.54Zm130.48-14.43q-.08,6.17.14,13.05.09,2.56-3.12,1.94-1.57-.32-1.65,1.29l-.21,3.56c-.07,1.18,1.67,1.37,1.67,1.37l17.54-.17a1.19,1.19,0,0,0,1.34-1.31l.06-3.59a1.27,1.27,0,0,0-1.28-1.44l-2.37-.23a.81.81,0,0,1-.68-.54,4.52,4.52,0,0,1-.23-1.54c.14-6.06.66-12.09.2-18.22a1.35,1.35,0,0,1,.82-1.39,1.41,1.41,0,0,1,.49-.09l1.74,0a.89.89,0,0,0,.72-.35c1-1.39.87-4.18.7-5.83a1.08,1.08,0,0,0-1.08-1H418.19s-1.7,1.09-1.94,2.12q-2,8.44-4.63,16.37c-.23.69-.44.68-.62,0l-4.53-16.91a1,1,0,0,0-1.21-.85H371.33a.79.79,0,0,0-1,.72,11.63,11.63,0,0,0,0,4.88,1.18,1.18,0,0,0,1.42,1l1-.11a.79.79,0,0,1,.74,1.19l-3.24,5.2a.58.58,0,0,1-.8.19.61.61,0,0,1-.19-.2l-3.07-5.07a.83.83,0,0,1,.28-1.13.74.74,0,0,1,.39-.11l1.56-.08a.63.63,0,0,0,.69-.69l.09-5.12a.75.75,0,0,0-.73-.77,6,6,0,0,1,0-.64H349.43a7.76,7.76,0,0,0-1.31,1.67l0,4.12a1.33,1.33,0,0,0,1.33,1.34h0a4.65,4.65,0,0,1,4.16,2.51q2.93,4.85,5.82,9.28c1.92,2.94,2.14,6,1.66,9.37a1.1,1.1,0,0,1-1.06,1l-1.67,0a1.35,1.35,0,0,0-1.3,1.14,10.94,10.94,0,0,0,0,4.35,1.11,1.11,0,0,0,1.18.9h19s1.42-.19,1.39-1.15l-.14-3.58a1.27,1.27,0,0,0-1.38-1.37c-3.08-.11-3.6-1.09-3.43-3.92a12.12,12.12,0,0,1,1.49-5.84q3.6-5.29,7.21-10.8c1.27-1.93,4.38-1.83,6.35-1.79a1.22,1.22,0,0,1,1.39,1.36q0,9,0,19.38a1.31,1.31,0,0,1-1.23,1.31l-2.17.14a.74.74,0,0,0-.73.61,14.66,14.66,0,0,0-.32,4.8c0,.61.56,1.08,1.18,1.57h15.07c.72-.5,1.3-1.08,1.29-1.79a1.09,1.09,0,0,0,0-.18l-.65-4.38a1,1,0,0,0-1.07-.79l-.17.05a2.5,2.5,0,0,1-2.95-.58,2.28,2.28,0,0,1-.31-.63V313s.44-1.06.83-.12a69.78,69.78,0,0,1,3,9.1c1,3.82,2.25,7.49,3.28,11.18a1.47,1.47,0,0,0,1.73,1.13h6.43a1.21,1.21,0,0,0,1.67-1c.78-2.68,1.32-5.4,2.21-8q2.12-6.26,4.2-12.35Q422.3,310.25,422.25,313.11Z"/></svg>