<svg xmlns="http://www.w3.org/2000/svg" viewBox="0 0 680 160"><defs><style>.cls-1{fill:none;stroke:#000;stroke-miterlimit:10;stroke-width:2px;}</style></defs><title>Recurso 1</title><g id="Capa_2" data-name="Capa 2"><g id="Capa_1-2" data-name="Capa 1"><path class="cls-1" d="M420,1.74H632.5A46.5,46.5,0,0,1,679,48.24v63a46.5,46.5,0,0,1-46.5,46.5H420a0,0,0,0,1,0,0V1.74a0,0,0,0,1,0,0Z"/><path d="M492.34,76.54H512a53.11,53.11,0,0,1,6.36,25.26q0,15.44-7.45,25.94T492.6,138.25q-14.14,0-24-16.3t-9.86-39.69q0-23.48,10-39.08t25.09-15.59a25.55,25.55,0,0,1,11.38,3.16V62.1q-4.87-3.47-8.89-3.47-7.28,0-11.87,6.87t-4.6,17.84q0,11.2,4.27,17.76t11.54,6.57q4.62,0,4.62-4.1,0-3.09-3.05-3.09h-4.93Z"/><path d="M575.65,30.21,556,77.09v58.53H535.39V77.09L515.62,30.21h20.94l9,21.7,9.6-21.7Z"/><path d="M577.68,135.62v-76q0-14.13,5.64-23.09T598,27.59q10.68,0,16.42,14.9,3.51-8,7.52-11.47a14.72,14.72,0,0,1,9.91-3.43q9.36,0,14.34,9t5,25.8v73.28H630.49V67.05a27.34,27.34,0,0,0-.53-6.76,2.12,2.12,0,0,0-2.16-1.66c-2,0-3,2.62-3,7.88v69.11H604.11V67.05a25.46,25.46,0,0,0-.56-6.72,2.17,2.17,0,0,0-2.18-1.7c-2,0-3,2.81-3,8.42v68.57Z"/><path d="M411,0H38A38,38,0,0,0,0,38v84a38,38,0,0,0,38,38H411a38,38,0,0,0,38-38V38A38,38,0,0,0,411,0ZM64,61.54c-.95-4-2.62-6-5-6q-4.77,0-4.78,10v13H61v28.26H54.17v27.49H33.54V69q0-18.46,7.49-30.54T59.92,26.33q12.56,0,21,16.45Zm38.68,72.82h-19v-77h19Zm-2.61-87.57a8,8,0,0,1-13.68,0,17,17,0,0,1-2.67-9.88,16.85,16.85,0,0,1,2.83-9.77c1.88-2.75,4.1-4.13,6.68-4.13s4.8,1.38,6.68,4.13a16.92,16.92,0,0,1,2.82,9.77A17,17,0,0,1,100.05,46.79Zm39.62,88.66c-1,.05-1.71.07-2.19.07A19.18,19.18,0,0,1,125.31,131a32.12,32.12,0,0,1-9.18-12.36q-4.36-10-4.37-26.41V29h19V58.45h8.54V89h-8.54c0,6.12.64,10.35,1.91,12.66s3.6,3.48,7,3.48Zm36.8-41h-5.75v39.92H150.09V29h20.63V66.64h5.75Zm24.14,39.92H180V29h20.64Zm54.87-10.19q-7.8,11.74-18.83,11.74t-18.86-11.78Q210,112.36,210,95.75q0-16.9,7.83-28.45t19.32-11.55q10.77,0,18.47,11.78t7.7,28.22Q263.28,112.43,255.48,124.17Zm60.92-22.78q0,15-6.56,25.29T293.78,137q-10.83,0-17.44-12-5.13-9.34-5.13-25.95V58.45h19v43.48c0,4.38,1.2,6.56,3.61,6.56s3.56-2.18,3.56-6.56V58.45h19Zm42.85-12.51q-4,0-5.52,2.28t-1.9,9q-1.33,22.31-11.39,31.5-5.34,4.78-15.15,4.79h-2.64V105.87h.86q4.58,0,6.54-2.9t2.26-10.15q.4-11.82,1.45-16.6a27.15,27.15,0,0,1,4.24-9.5,17.73,17.73,0,0,1,15.5-8.27h5.75Zm56,11.66H386.44a30.32,30.32,0,0,1,.25-13.67h9.66q-1-8.57-6.35-8.57c-2.37,0-4.31,1.53-5.8,4.6A26.91,26.91,0,0,0,382,94.67q0,7.5,2.16,12.13t5.66,4.63q2.85,0,5.49-4.33l10.83,19.77q-7.58,9-16.82,9-11.3,0-19-11.51t-7.68-28.49q0-16.92,7.75-28.57t19-11.66q11,0,18.53,11.39t7.49,28.07C415.46,96.27,415.39,98.07,415.26,100.54Z"/><path d="M236.6,84.25c-2,0-3.76,1.12-5.19,3.36a16.77,16.77,0,0,0,0,16.41q2.16,3.39,5.16,3.39t5.21-3.39a16.73,16.73,0,0,0,0-16.41C240.41,85.37,238.66,84.25,236.6,84.25Z"/></g></g></svg>